{"glyphs":{"0":{"ha":694,"x_min":83,"x_max":686,"o":"m 480 939 q 626 866 567 939 q 686 637 686 793 q 642 363 686 503 q 517 121 597 223 q 384 4 454 40 q 290 -16 343 -16 q 142 56 201 -16 q 83 286 83 129 q 142 598 83 441 q 321 876 212 781 q 480 939 392 939 m 481 903 q 401 872 441 903 q 318 744 361 842 q 235 492 275 646 q 184 149 184 291 q 215 44 184 79 q 289 9 245 9 q 359 36 330 9 q 493 286 437 109 q 583 757 583 576 q 553 868 583 832 q 481 903 522 903 z "},"1":{"ha":694,"x_min":85,"x_max":580,"o":"m 580 939 l 361 178 q 342 81 342 111 q 360 43 342 56 q 441 25 377 30 l 434 0 l 85 0 l 94 25 q 168 34 150 26 q 210 66 196 46 q 256 178 233 98 l 413 724 q 429 781 427 774 q 431 808 431 795 q 418 845 431 831 q 382 859 405 859 q 328 850 365 859 l 319 875 l 547 939 l 580 939 z "},"2":{"ha":694,"x_min":22,"x_max":651,"o":"m 479 0 l 22 0 l 22 25 q 484 506 372 332 q 536 675 536 587 q 493 790 536 746 q 380 835 450 835 q 223 743 285 835 l 199 754 q 300 890 234 842 q 444 939 367 939 q 591 879 532 939 q 651 733 651 819 q 630 623 651 673 q 510 445 597 543 q 155 98 377 294 l 386 98 q 477 121 441 98 q 529 183 513 144 l 556 183 l 479 0 z "},"3":{"ha":694,"x_min":46,"x_max":630,"o":"m 212 503 l 212 522 q 457 620 376 547 q 515 743 515 671 q 481 831 515 796 q 399 866 448 866 q 264 772 323 866 l 239 779 q 330 898 275 858 q 451 939 385 939 q 581 891 531 939 q 630 770 630 843 q 584 650 630 707 q 424 547 537 592 q 530 463 494 517 q 566 332 566 408 q 517 162 566 247 q 384 30 469 77 q 205 -16 298 -16 q 75 14 119 -16 q 46 61 46 34 q 63 102 46 85 q 106 119 81 119 q 141 113 123 119 q 194 86 152 110 q 260 55 237 62 q 309 47 284 47 q 410 118 370 47 q 450 269 450 189 q 423 385 450 334 q 338 467 396 435 q 212 503 281 498 z "},"4":{"ha":694,"x_min":43,"x_max":676,"o":"m 676 920 l 500 315 l 610 315 l 586 231 l 475 231 l 404 -16 l 304 -16 l 376 231 l 43 231 l 72 326 l 625 920 l 676 920 m 526 745 l 130 315 l 402 315 l 526 745 z "},"5":{"ha":694,"x_min":50,"x_max":665,"o":"m 358 920 l 665 920 l 634 808 l 358 808 l 307 694 q 478 626 417 677 q 572 404 572 547 q 537 234 572 310 q 452 106 503 157 q 344 24 401 54 q 185 -16 265 -16 q 77 14 117 -16 q 50 65 50 34 q 67 107 50 90 q 111 124 85 124 q 191 88 146 124 q 235 58 218 66 q 269 52 250 52 q 410 129 346 52 q 475 327 475 205 q 440 471 475 412 q 353 555 406 531 q 212 589 300 580 l 358 920 z "},"6":{"ha":694,"x_min":87,"x_max":730,"o":"m 730 939 l 730 912 q 505 798 614 885 q 313 574 395 711 q 433 606 387 606 q 579 543 519 606 q 640 375 640 481 q 536 98 640 213 q 311 -16 431 -16 q 144 65 201 -16 q 87 252 87 146 q 152 527 87 391 q 327 759 216 662 q 555 902 437 856 q 730 939 626 929 m 281 517 q 184 170 184 311 q 220 56 184 98 q 304 14 257 14 q 450 128 382 14 q 517 391 517 241 q 478 515 517 471 q 383 558 439 558 q 338 550 359 558 q 281 517 317 543 z "},"7":{"ha":694,"x_min":157,"x_max":727,"o":"m 269 920 l 727 920 l 727 897 l 212 -16 l 157 9 l 608 812 l 390 812 q 267 796 300 812 q 191 718 234 780 l 163 718 l 269 920 z "},"8":{"ha":694,"x_min":53,"x_max":679,"o":"m 469 515 q 564 382 534 444 q 594 259 594 321 q 510 66 594 149 q 302 -16 426 -16 q 122 51 192 -16 q 53 208 53 118 q 110 358 53 284 q 323 500 166 432 q 242 623 263 574 q 220 718 220 671 q 288 873 220 808 q 458 939 355 939 q 617 882 555 939 q 679 751 679 826 q 629 615 679 676 q 469 515 579 554 m 442 543 q 556 625 515 568 q 596 756 596 682 q 557 865 596 825 q 455 905 518 905 q 357 867 395 905 q 320 768 320 829 q 340 684 320 723 q 442 543 368 627 m 349 473 q 196 351 248 431 q 144 180 144 271 q 190 61 144 106 q 310 16 235 16 q 440 70 387 16 q 493 199 493 124 q 462 319 493 256 q 349 473 431 382 z "},"9":{"ha":694,"x_min":40,"x_max":682,"o":"m 40 -16 l 40 5 q 161 49 110 20 q 326 173 253 99 q 456 345 399 247 q 391 318 414 324 q 340 312 368 312 q 183 382 237 312 q 129 545 129 452 q 234 823 129 707 q 458 939 340 939 q 624 858 566 939 q 682 668 682 777 q 618 396 682 530 q 445 165 554 262 q 216 21 336 68 q 40 -16 144 -7 m 490 401 q 585 747 585 595 q 549 862 585 821 q 465 903 513 903 q 318 791 385 903 q 252 525 252 679 q 290 402 252 444 q 385 360 328 360 q 432 368 410 360 q 490 401 454 376 z "}," ":{"ha":347,"x_min":0,"x_max":0,"o":""}," ":{"ha":347,"x_min":0,"x_max":0,"o":""},"!":{"ha":463,"x_min":104,"x_max":441,"o":"m 219 224 l 193 224 q 240 411 227 347 q 271 581 254 476 q 312 832 304 796 q 356 925 326 893 q 395 941 370 941 q 428 926 414 941 q 441 886 441 911 q 428 815 441 858 q 318 508 400 722 q 275 395 279 407 q 219 224 262 357 m 174 117 q 223 96 203 117 q 243 47 243 76 q 223 -2 243 18 q 174 -22 203 -22 q 125 -2 145 -22 q 104 47 104 18 q 125 96 104 76 q 174 117 145 117 z "},"\"":{"ha":583,"x_min":199,"x_max":628,"o":"m 448 545 l 468 743 q 479 833 476 820 q 502 900 488 877 q 533 929 513 917 q 578 941 554 941 q 615 928 602 941 q 628 894 628 915 q 618 849 628 876 q 576 743 593 778 l 480 545 l 448 545 m 199 545 l 220 745 q 238 861 229 831 q 275 922 251 903 q 328 941 299 941 q 365 927 351 941 q 379 893 379 913 q 372 857 379 877 q 323 745 363 829 l 229 545 l 199 545 z "},"#":{"ha":694,"x_min":25,"x_max":669,"o":"m 78 -19 l 141 290 l 25 290 l 25 345 l 152 345 l 199 578 l 25 578 l 25 632 l 212 632 l 273 941 l 330 941 l 268 632 l 496 632 l 562 941 l 618 941 l 554 632 l 669 632 l 669 578 l 544 578 l 496 345 l 669 345 l 669 290 l 485 290 l 422 -19 l 367 -19 l 429 290 l 199 290 l 134 -19 l 78 -19 m 209 345 l 439 345 l 488 578 l 256 578 l 209 345 z "},"$":{"ha":694,"x_min":58,"x_max":679,"o":"m 529 871 l 435 545 q 583 389 541 462 q 613 273 613 338 q 569 126 613 197 q 454 21 526 55 q 271 -12 382 -14 l 249 -92 l 204 -92 l 228 -12 q 137 15 174 -1 q 58 64 101 31 l 114 256 l 142 256 q 134 184 134 213 q 163 90 134 132 q 243 31 192 49 l 361 446 q 235 575 271 517 q 199 699 199 633 q 274 862 199 801 q 438 924 350 924 q 498 920 460 924 l 514 972 l 557 972 l 540 913 q 614 884 587 900 q 679 836 642 868 l 634 672 l 606 672 q 609 722 609 703 q 583 823 609 779 q 529 871 567 849 m 488 883 q 441 888 458 888 q 340 844 382 888 q 298 734 298 800 q 319 660 298 696 q 399 572 340 624 l 488 883 m 281 25 q 312 23 302 23 q 410 49 358 23 q 490 122 462 75 q 518 222 518 170 q 492 312 518 267 q 397 416 466 356 l 281 25 z "},"%":{"ha":1157,"x_min":98,"x_max":1135,"o":"m 1135 941 l 162 -37 l 98 -37 l 1070 941 l 1135 941 m 367 941 q 477 890 431 941 q 524 756 524 839 q 441 539 524 630 q 266 448 359 448 q 150 500 197 448 q 102 633 102 552 q 188 848 102 756 q 367 941 273 941 m 372 911 q 311 885 338 911 q 226 740 262 840 q 190 555 190 640 q 210 496 190 518 q 259 474 231 474 q 310 494 288 474 q 398 639 358 539 q 439 829 439 739 q 419 889 439 867 q 372 911 399 911 m 971 454 q 1084 402 1037 454 q 1132 267 1132 351 q 1093 117 1132 189 q 992 3 1054 44 q 873 -37 930 -37 q 758 13 805 -37 q 711 142 711 63 q 795 360 711 267 q 971 454 880 454 m 979 426 q 919 401 945 426 q 834 256 873 359 q 796 72 796 154 q 816 12 796 35 q 863 -10 836 -10 q 919 12 896 -10 q 1006 159 967 58 q 1044 339 1044 260 q 1025 403 1044 380 q 979 426 1006 426 z "},"&":{"ha":1080,"x_min":66,"x_max":1018,"o":"m 730 482 l 1005 482 l 1005 456 q 908 424 945 448 q 820 326 871 399 q 709 171 753 229 q 883 35 789 35 q 987 84 941 35 l 1018 84 q 932 4 977 28 q 824 -21 886 -21 q 711 3 759 -21 q 617 84 664 27 q 474 3 542 28 q 323 -21 406 -21 q 133 43 200 -21 q 66 209 66 106 q 169 422 66 330 q 442 552 236 482 q 437 601 439 578 q 435 642 435 623 q 508 861 435 781 q 683 941 581 941 q 792 902 752 941 q 833 806 833 864 q 774 667 833 734 q 566 552 716 601 q 686 214 614 350 q 791 416 791 340 q 778 444 791 433 q 730 456 765 454 l 730 482 m 557 595 q 696 680 660 640 q 745 801 745 735 q 722 869 745 844 q 660 895 698 895 q 577 852 611 895 q 543 711 543 809 q 547 659 543 688 q 557 595 550 630 m 449 509 q 260 390 318 460 q 203 243 203 319 q 257 101 203 157 q 399 45 312 45 q 486 60 448 45 q 591 122 524 75 q 508 299 548 190 q 449 509 467 408 z "},"'":{"ha":297,"x_min":182,"x_max":363,"o":"m 182 545 l 203 745 q 221 861 212 831 q 257 922 234 903 q 310 941 281 941 q 349 927 334 941 q 363 892 363 913 q 356 858 363 877 q 306 745 347 832 l 212 545 l 182 545 z "},"(":{"ha":463,"x_min":95,"x_max":614,"o":"m 261 -286 l 238 -297 q 122 -25 157 -143 q 95 161 95 67 q 196 552 95 379 q 598 964 320 764 l 614 941 q 410 732 489 848 q 248 385 311 589 q 184 15 184 182 q 261 -286 184 -113 z "},")":{"ha":463,"x_min":-151,"x_max":368,"o":"m 202 951 l 225 964 q 340 693 306 811 q 368 507 368 601 q 267 116 368 288 q -135 -297 142 -96 l -151 -276 q 54 -68 -26 -182 q 216 280 153 76 q 279 650 279 484 q 202 951 279 778 z "},"*":{"ha":694,"x_min":98,"x_max":597,"o":"m 335 708 q 316 801 332 755 q 293 892 293 867 q 310 946 293 928 q 351 964 326 964 q 387 946 372 964 q 403 894 403 928 q 385 809 403 863 q 363 708 367 754 q 430 766 400 732 q 498 832 476 819 q 544 845 521 845 q 582 830 566 845 q 597 793 597 814 q 574 749 597 768 q 463 709 552 729 q 376 683 410 698 q 462 655 411 665 q 569 618 544 640 q 595 569 595 595 q 579 534 595 549 q 544 519 564 519 q 499 533 524 519 q 432 597 474 547 q 363 659 404 630 q 378 575 364 621 q 403 466 403 495 q 387 420 403 439 q 352 401 370 401 q 307 421 327 401 q 292 467 292 435 q 308 545 292 499 q 328 608 323 591 q 335 659 332 625 q 265 600 295 633 q 191 530 216 545 q 154 519 173 519 q 115 534 131 519 q 98 569 98 550 q 112 605 98 586 q 154 635 126 623 q 237 657 172 644 q 319 683 279 666 q 232 711 283 701 q 129 743 149 729 q 98 798 98 766 q 114 831 98 816 q 149 846 129 846 q 197 832 172 846 q 259 775 222 818 q 335 708 296 732 z "},"+":{"ha":937,"x_min":25,"x_max":756,"o":"m 362 96 l 362 434 l 25 434 l 25 490 l 362 490 l 362 827 l 418 827 l 418 490 l 756 490 l 756 434 l 418 434 l 418 96 l 362 96 z "},",":{"ha":347,"x_min":-14,"x_max":184,"o":"m -14 -153 q 68 -94 37 -130 q 93 -42 93 -67 q 89 -20 93 -30 q 70 2 86 -14 q 52 24 54 18 q 47 51 47 36 q 67 101 47 80 q 114 122 87 122 q 163 100 142 122 q 184 43 184 77 q 137 -79 184 -17 q -1 -174 90 -140 l -14 -153 z "},"-":{"ha":463,"x_min":37,"x_max":416,"o":"m 416 347 l 388 256 l 37 256 l 64 347 l 416 347 z "},"­":{"ha":463,"x_min":37,"x_max":416,"o":"m 416 347 l 388 256 l 37 256 l 64 347 l 416 347 z "},".":{"ha":347,"x_min":47,"x_max":184,"o":"m 115 121 q 164 101 144 121 q 184 53 184 81 q 164 4 184 24 q 115 -16 144 -16 q 67 4 87 -16 q 47 53 47 24 q 67 101 47 81 q 115 121 87 121 z "},"/":{"ha":386,"x_min":-47,"x_max":530,"o":"m 530 964 l 13 -21 l -47 -21 l 473 964 l 530 964 z "},":":{"ha":463,"x_min":83,"x_max":364,"o":"m 295 614 q 344 594 323 614 q 364 546 364 574 q 344 497 364 517 q 295 477 323 477 q 246 497 267 477 q 226 546 226 517 q 246 594 226 574 q 295 614 267 614 m 151 123 q 199 103 180 123 q 219 55 219 83 q 199 7 219 27 q 151 -13 179 -13 q 103 7 123 -13 q 83 55 83 27 q 103 103 83 83 q 151 123 123 123 z "},";":{"ha":463,"x_min":24,"x_max":366,"o":"m 297 613 q 346 593 326 613 q 366 544 366 573 q 346 495 366 515 q 297 475 326 475 q 248 495 269 475 q 228 544 228 515 q 248 593 228 573 q 297 613 268 613 m 24 -151 q 113 -87 96 -110 q 130 -43 130 -64 q 125 -19 130 -29 q 107 4 123 -13 q 90 29 92 22 q 84 54 84 41 q 104 104 84 83 q 151 125 125 125 q 201 102 180 125 q 222 44 222 80 q 196 -45 222 -1 q 126 -124 171 -89 q 36 -174 110 -136 l 24 -151 z "},";":{"ha":463,"x_min":24,"x_max":366,"o":"m 297 613 q 346 593 326 613 q 366 544 366 573 q 346 495 366 515 q 297 475 326 475 q 248 495 269 475 q 228 544 228 515 q 248 593 228 573 q 297 613 268 613 m 24 -151 q 113 -87 96 -110 q 130 -43 130 -64 q 125 -19 130 -29 q 107 4 123 -13 q 90 29 92 22 q 84 54 84 41 q 104 104 84 83 q 151 125 125 125 q 201 102 180 125 q 222 44 222 80 q 196 -45 222 -1 q 126 -124 171 -89 q 36 -174 110 -136 l 24 -151 z "},"<":{"ha":937,"x_min":26,"x_max":756,"o":"m 26 479 l 756 795 l 756 736 l 128 463 l 756 188 l 756 127 l 26 446 l 26 479 z "},"=":{"ha":937,"x_min":25,"x_max":757,"o":"m 25 599 l 757 599 l 757 543 l 25 543 l 25 599 m 25 378 l 757 378 l 757 322 l 25 322 l 25 378 z "},">":{"ha":937,"x_min":25,"x_max":755,"o":"m 755 443 l 25 127 l 25 185 l 654 458 l 25 733 l 25 795 l 755 476 l 755 443 z "},"?":{"ha":694,"x_min":134,"x_max":637,"o":"m 244 226 l 218 226 q 260 374 228 312 q 385 535 292 437 q 507 694 477 634 q 528 783 528 737 q 490 873 528 836 q 393 910 452 910 q 299 886 335 910 q 279 852 279 872 q 290 815 279 839 q 301 776 301 791 q 285 737 301 753 q 245 722 269 722 q 204 739 221 722 q 188 783 188 755 q 246 892 188 843 q 404 941 304 941 q 573 882 509 941 q 637 748 637 823 q 607 643 637 688 q 458 509 568 585 q 307 376 348 433 q 244 226 265 318 m 203 117 q 252 97 232 117 q 273 47 273 77 q 252 -1 273 19 q 203 -21 232 -21 q 155 -1 175 -21 q 134 47 134 19 q 154 97 134 77 q 203 117 174 117 z "},"@":{"ha":1278,"x_min":66,"x_max":1245,"o":"m 955 650 l 876 379 q 822 186 831 227 q 812 121 812 146 q 827 85 812 100 q 863 70 842 70 q 982 119 913 70 q 1101 280 1052 169 q 1151 512 1151 391 q 1095 726 1151 628 q 937 877 1039 825 q 711 930 835 930 q 420 847 555 930 q 208 608 286 764 q 130 283 130 452 q 198 0 130 127 q 392 -193 267 -127 q 661 -258 517 -258 q 983 -163 839 -258 q 1206 117 1127 -67 l 1245 117 q 1023 -184 1184 -69 q 657 -300 863 -300 q 357 -223 496 -300 q 142 -7 219 -147 q 66 301 66 133 q 150 635 66 480 q 386 877 234 790 q 707 964 537 964 q 961 906 848 964 q 1133 737 1074 848 q 1192 500 1192 625 q 1136 254 1192 376 q 996 77 1081 132 q 817 21 910 21 q 740 45 766 21 q 713 114 713 70 q 726 214 713 152 q 565 56 625 92 q 458 20 505 20 q 373 63 410 20 q 336 178 336 106 q 400 399 336 277 q 570 597 464 521 q 709 654 648 654 q 785 630 755 654 q 826 560 815 607 l 848 635 l 955 650 m 717 622 q 614 568 666 622 q 483 356 537 490 q 443 199 443 258 q 467 129 443 156 q 521 102 491 102 q 604 132 560 102 q 694 224 647 162 q 764 349 742 286 q 802 524 802 456 q 777 595 802 569 q 717 622 752 622 z "},"A":{"ha":848,"x_min":-68,"x_max":760,"o":"m 715 941 l 646 176 q 640 105 640 122 q 650 64 640 78 q 685 35 663 44 q 760 25 707 25 l 752 0 l 390 0 l 397 25 l 413 25 q 485 44 457 25 q 515 87 505 57 q 530 186 523 108 l 541 302 l 277 302 l 184 176 q 144 114 152 133 q 136 79 136 96 q 153 42 136 58 q 212 25 171 26 l 204 0 l -68 0 l -60 25 q 28 59 -10 27 q 142 193 66 90 l 692 941 l 715 941 m 581 715 l 315 352 l 546 352 l 581 715 z "},"B":{"ha":848,"x_min":-32,"x_max":820,"o":"m 205 895 l 215 920 l 543 920 q 691 894 626 920 q 788 822 755 868 q 820 724 820 776 q 763 581 820 645 q 576 486 705 517 q 699 404 659 455 q 738 290 738 352 q 703 159 738 222 q 612 62 667 97 q 479 12 557 28 q 305 0 423 0 l -32 0 l -23 25 q 49 35 30 26 q 87 66 76 47 q 131 184 104 92 l 296 741 q 317 840 317 811 q 298 879 317 865 q 227 894 279 894 q 205 895 216 894 m 343 513 q 407 511 387 511 q 617 573 548 511 q 686 726 686 634 q 644 835 686 796 q 509 874 602 874 q 447 866 485 874 l 343 513 m 210 60 q 324 50 283 50 q 512 114 430 50 q 593 287 593 178 q 543 417 593 370 q 380 464 492 464 q 327 462 358 464 l 210 60 z "},"C":{"ha":926,"x_min":94,"x_max":977,"o":"m 977 941 l 909 643 l 884 643 l 882 718 q 866 790 878 758 q 829 845 854 822 q 768 882 805 869 q 685 895 730 895 q 473 829 564 895 q 291 589 357 744 q 237 331 237 462 q 315 118 237 197 q 517 38 393 38 q 685 80 612 38 q 822 210 759 122 l 854 210 q 688 35 779 91 q 471 -21 597 -21 q 271 26 358 -21 q 139 159 184 73 q 94 342 94 244 q 174 635 94 493 q 396 859 255 778 q 680 941 536 941 q 830 909 747 941 q 883 895 867 895 q 911 902 899 895 q 952 941 924 909 l 977 941 z "},"D":{"ha":1003,"x_min":-41,"x_max":979,"o":"m 203 895 l 212 920 l 505 920 q 782 877 692 920 q 925 742 871 834 q 979 545 979 650 q 948 370 979 455 q 878 234 917 285 q 758 121 839 182 q 583 30 677 59 q 348 0 489 0 l -41 0 l -33 25 q 39 35 21 26 q 79 66 66 46 q 123 180 99 94 l 286 736 q 305 840 305 802 q 288 880 305 866 q 218 895 270 895 l 203 895 m 444 869 l 245 180 q 222 85 222 103 q 230 64 222 74 q 249 50 237 54 q 306 44 267 44 q 504 66 412 44 q 653 132 595 88 q 785 305 736 195 q 835 557 835 416 q 759 794 835 716 q 537 871 683 871 q 444 869 501 871 z "},"E":{"ha":848,"x_min":-31,"x_max":878,"o":"m 450 870 l 345 507 l 431 507 q 564 535 523 507 q 635 639 606 563 l 661 639 l 566 305 l 539 305 q 551 377 551 347 q 539 424 551 406 q 507 450 528 441 q 420 458 486 458 l 332 458 l 243 154 q 231 87 231 110 q 248 56 231 69 q 305 46 259 46 l 387 46 q 598 93 519 46 q 741 256 678 140 l 766 256 l 680 0 l -31 0 l -22 25 q 49 35 31 26 q 88 66 76 47 q 132 182 106 94 l 293 737 q 312 840 312 804 q 294 880 312 865 q 224 895 276 895 l 210 895 l 218 920 l 878 920 l 821 698 l 796 698 q 801 750 801 729 q 783 810 801 786 q 716 858 760 842 q 566 870 684 870 l 450 870 z "},"F":{"ha":848,"x_min":-34,"x_max":928,"o":"m 452 871 l 343 507 l 464 507 q 586 532 545 507 q 669 639 626 557 l 694 639 l 599 304 l 572 304 q 582 371 582 345 q 554 435 582 412 q 452 458 527 458 l 330 458 l 250 180 q 228 82 228 106 q 247 43 228 57 q 338 25 265 30 l 330 0 l -34 0 l -25 25 q 45 35 28 26 q 85 66 73 46 q 129 180 104 94 l 291 734 q 311 840 311 802 q 302 870 311 857 q 276 888 293 882 q 207 895 258 895 l 215 920 l 928 920 l 861 687 l 835 687 q 842 756 842 729 q 818 827 842 801 q 754 864 793 853 q 633 871 727 871 l 452 871 z "},"G":{"ha":1003,"x_min":96,"x_max":1006,"o":"m 1000 941 l 931 651 l 905 651 q 911 726 911 702 q 853 844 911 793 q 691 895 794 895 q 347 697 480 895 q 240 347 240 541 q 306 124 240 218 q 509 31 372 31 q 573 37 543 31 q 664 64 603 43 l 731 300 q 745 378 745 349 q 728 416 745 403 q 635 435 699 435 l 616 435 l 624 462 l 1006 462 l 1000 435 q 924 423 947 435 q 883 384 900 412 q 846 277 871 366 l 778 45 q 628 -8 685 5 q 508 -22 571 -22 q 273 33 363 -22 q 139 177 182 87 q 96 356 96 267 q 146 583 96 475 q 272 765 197 690 q 435 882 347 839 q 690 941 556 941 q 867 908 788 941 q 914 895 899 895 q 943 903 931 895 q 974 941 955 911 l 1000 941 z "},"H":{"ha":1003,"x_min":-37,"x_max":1126,"o":"m 342 509 l 767 509 l 834 736 q 853 840 853 803 q 845 870 853 857 q 819 888 836 882 q 749 895 801 895 l 756 920 l 1126 920 l 1118 895 q 1048 885 1072 895 q 1000 848 1016 871 q 955 736 978 817 l 793 181 q 772 82 772 112 q 790 43 772 56 q 876 25 808 30 l 869 0 l 511 0 l 520 25 q 591 35 573 26 q 630 66 618 47 q 673 181 648 92 l 756 463 l 330 463 l 246 181 q 227 82 227 113 q 244 43 227 56 q 330 25 262 30 l 324 0 l -37 0 l -28 25 q 43 35 26 26 q 83 66 71 47 q 127 181 101 94 l 290 736 q 309 840 309 804 q 301 870 309 857 q 274 888 292 882 q 204 895 256 895 l 212 920 l 575 920 l 568 895 q 500 885 522 895 q 454 849 469 871 q 409 736 433 819 l 342 509 z "},"I":{"ha":463,"x_min":-43,"x_max":570,"o":"m 342 25 l 335 0 l -43 0 l -34 25 q 41 35 23 26 q 85 66 71 46 q 132 180 108 98 l 292 735 q 312 840 312 804 q 303 869 312 857 q 276 888 294 882 q 206 895 258 895 l 214 920 l 570 920 l 562 895 q 498 885 519 895 q 451 846 467 871 q 410 735 435 821 l 251 180 q 229 83 229 104 q 238 54 229 66 q 265 36 246 42 q 342 25 283 29 z "},"J":{"ha":616,"x_min":-47,"x_max":760,"o":"m 397 920 l 760 920 l 752 895 q 654 869 682 894 q 594 736 625 844 l 477 332 q 410 157 444 217 q 288 27 365 75 q 115 -21 211 -21 q -5 15 37 -21 q -47 103 -47 52 q -22 171 -47 144 q 39 198 3 198 q 89 180 69 198 q 108 135 108 161 q 90 93 108 113 q 68 58 68 67 q 81 32 68 43 q 115 20 94 20 q 180 35 146 20 q 243 81 214 50 q 295 154 273 111 q 340 271 317 197 l 373 388 l 474 736 q 496 832 496 813 q 476 874 496 858 q 390 895 456 890 l 397 920 z "},"K":{"ha":926,"x_min":-37,"x_max":1012,"o":"m 444 523 l 671 171 q 772 51 732 77 q 878 25 812 25 l 870 0 l 478 0 l 484 25 q 550 47 531 30 q 570 87 570 65 q 563 127 570 108 q 524 193 557 140 l 337 486 l 247 181 q 224 83 224 108 q 243 43 224 57 q 337 25 262 30 l 326 0 l -37 0 l -28 25 q 43 35 24 26 q 83 66 70 47 q 126 181 100 94 l 288 736 q 307 839 307 800 q 289 880 307 866 q 222 895 272 895 l 208 895 l 216 920 l 562 920 l 555 895 q 491 885 512 895 q 448 848 462 871 q 408 736 435 826 l 337 500 l 664 747 q 749 824 729 795 q 762 856 762 842 q 749 880 762 868 q 711 895 736 891 l 718 920 l 1012 920 l 1006 895 q 925 873 958 886 q 857 837 892 860 q 725 736 847 830 l 444 523 z "},"L":{"ha":772,"x_min":-45,"x_max":726,"o":"m 637 0 l -45 0 l -35 25 q 37 34 19 26 q 79 66 66 46 q 124 178 100 97 l 286 738 q 307 840 307 807 q 288 880 307 865 q 218 894 269 894 q 199 895 206 894 l 208 920 l 583 920 l 577 895 q 488 882 514 895 q 444 842 461 870 q 404 728 431 824 l 244 178 q 226 92 226 116 q 244 60 226 75 q 296 50 256 50 l 385 50 q 539 75 482 50 q 616 130 581 93 q 684 231 635 150 l 701 261 l 726 261 l 637 0 z "},"M":{"ha":1157,"x_min":-45,"x_max":1283,"o":"m 440 920 l 525 179 l 1059 920 l 1283 920 l 1283 895 q 1197 885 1210 890 q 1156 850 1175 876 q 1116 748 1137 823 l 945 165 q 930 85 930 114 q 949 45 930 58 q 1030 25 975 25 l 1046 25 l 1040 0 l 653 0 l 660 25 l 678 25 q 757 40 730 25 q 794 81 778 51 q 841 215 811 111 l 993 748 l 456 0 l 429 0 l 343 748 l 179 179 q 158 81 158 106 q 176 43 158 56 q 265 25 195 30 l 258 0 l -45 0 l -38 25 l -20 25 q 77 59 47 25 q 123 165 99 83 l 323 850 q 280 882 300 873 q 205 895 260 890 l 212 920 l 440 920 z "},"N":{"ha":926,"x_min":-39,"x_max":1058,"o":"m 398 920 l 682 199 l 836 737 q 855 840 855 804 q 838 880 855 865 q 772 894 820 894 q 755 895 764 894 l 762 920 l 1058 920 l 1050 895 q 981 885 1004 895 q 934 848 949 871 q 890 737 912 817 l 673 -21 l 649 -21 l 343 755 l 180 182 q 161 82 161 117 q 178 43 161 56 q 257 25 195 30 l 250 0 l -39 0 l -29 25 q 43 35 25 26 q 85 66 71 47 q 129 182 104 96 l 311 821 q 255 877 285 862 q 161 895 224 892 l 168 920 l 398 920 z "},"O":{"ha":1003,"x_min":83,"x_max":997,"o":"m 684 941 q 846 901 776 941 q 957 784 917 861 q 997 623 997 706 q 911 312 997 475 q 687 64 825 150 q 401 -21 549 -21 q 223 26 294 -21 q 117 151 151 73 q 83 300 83 228 q 145 555 83 429 q 293 765 207 681 q 477 895 379 850 q 684 941 574 941 m 661 897 q 529 864 593 897 q 400 754 464 830 q 286 554 336 677 q 223 267 223 402 q 273 97 223 171 q 425 22 322 22 q 546 53 486 22 q 669 157 605 83 q 805 394 750 250 q 860 663 860 538 q 810 826 860 755 q 661 897 761 897 z "},"P":{"ha":848,"x_min":-33,"x_max":863,"o":"m 217 920 l 579 920 q 792 858 722 920 q 863 709 863 797 q 818 573 863 639 q 685 466 773 507 q 494 425 597 425 q 332 448 431 425 l 259 197 q 233 79 233 108 q 252 43 233 58 q 339 25 270 29 l 332 0 l -33 0 l -26 25 q 74 50 46 25 q 135 186 102 75 l 287 710 q 314 836 314 804 q 295 876 314 860 q 210 895 275 891 l 217 920 m 344 491 q 467 471 420 471 q 602 502 541 471 q 697 593 663 532 q 731 720 731 654 q 689 829 731 789 q 562 869 647 869 q 450 857 515 869 l 344 491 z "},"Q":{"ha":1003,"x_min":66,"x_max":996,"o":"m 406 -21 l 231 -163 q 308 -155 273 -155 q 371 -159 342 -155 q 494 -185 399 -163 q 659 -206 589 -206 q 787 -180 734 -206 q 889 -93 840 -154 l 911 -104 q 747 -249 842 -204 q 545 -293 652 -293 q 384 -270 486 -293 q 165 -235 227 -235 q 126 -239 141 -235 q 81 -255 111 -242 l 66 -237 l 344 -17 q 149 96 215 1 q 82 300 82 192 q 172 608 82 449 q 402 853 262 766 q 677 941 542 941 q 848 900 777 941 q 958 782 919 859 q 996 623 996 704 q 907 307 996 467 q 687 64 819 146 q 406 -21 555 -18 m 661 897 q 528 864 593 897 q 399 754 463 830 q 285 554 336 677 q 223 267 223 402 q 273 97 223 171 q 425 22 322 22 q 545 53 486 22 q 669 157 605 83 q 805 395 750 250 q 860 663 860 539 q 810 826 860 755 q 661 897 761 897 z "},"R":{"ha":848,"x_min":-32,"x_max":804,"o":"m 577 0 l 430 447 q 324 457 378 446 l 245 179 q 229 87 229 125 q 249 43 229 59 q 330 25 264 31 l 324 0 l -32 0 l -24 25 q 43 35 26 27 q 84 66 71 47 q 130 179 106 98 l 290 734 q 307 821 307 790 q 281 873 307 852 q 208 895 256 895 l 216 920 l 516 920 q 733 863 667 920 q 800 713 800 806 q 731 550 800 624 q 545 457 663 477 l 634 188 q 699 59 667 89 q 804 25 732 29 l 797 0 l 577 0 m 336 496 q 413 490 379 490 q 597 554 530 490 q 665 715 665 619 q 623 831 665 791 q 496 871 581 871 q 444 865 474 871 l 336 496 z "},"S":{"ha":694,"x_min":9,"x_max":753,"o":"m 9 -21 l 85 320 l 109 320 q 104 238 104 271 q 163 87 104 145 q 318 28 222 28 q 453 83 407 28 q 499 209 499 138 q 478 293 499 255 q 308 491 446 349 q 222 592 241 559 q 191 707 191 647 q 262 872 191 804 q 447 941 334 941 q 519 933 485 941 q 595 906 540 929 q 639 889 635 890 q 660 887 648 887 q 694 897 680 887 q 727 941 708 907 l 753 941 l 682 635 l 659 635 q 662 701 662 676 q 608 836 662 783 q 465 888 553 888 q 350 846 394 888 q 306 751 306 805 q 334 660 306 703 q 464 520 362 617 q 595 368 565 422 q 625 252 625 313 q 588 116 625 182 q 481 15 551 51 q 330 -21 412 -21 q 254 -14 290 -21 q 142 23 219 -6 q 98 33 115 33 q 35 -21 58 33 l 9 -21 z "},"T":{"ha":772,"x_min":97,"x_max":902,"o":"m 203 920 l 902 920 l 827 675 l 801 675 q 814 771 814 729 q 783 846 814 821 q 665 865 760 865 l 592 865 l 410 231 q 376 84 376 112 q 397 42 376 58 q 474 25 419 25 l 505 25 l 497 0 l 97 0 l 104 25 l 122 25 q 203 42 175 25 q 239 84 223 54 q 283 212 255 114 l 474 865 l 419 865 q 291 844 340 865 q 213 785 243 824 q 164 675 183 747 l 139 675 l 203 920 z "},"U":{"ha":1003,"x_min":148,"x_max":1131,"o":"m 182 920 l 570 920 l 563 895 q 478 883 503 893 q 434 848 452 873 q 397 755 416 823 l 302 430 q 273 316 277 343 q 264 235 264 273 q 326 97 264 153 q 489 40 387 40 q 609 65 556 40 q 700 137 662 91 q 768 261 737 182 q 823 419 800 339 l 905 700 q 935 837 935 805 q 915 875 935 859 q 831 895 894 891 l 838 920 l 1131 920 l 1123 895 q 1049 885 1072 895 q 1009 849 1026 875 q 971 751 992 824 l 871 410 q 781 164 823 243 q 657 32 738 85 q 456 -21 576 -21 q 233 57 317 -21 q 148 237 148 136 q 155 322 148 277 q 182 425 161 352 l 273 738 q 292 838 292 806 q 272 877 292 863 q 175 895 253 890 l 182 920 z "},"V":{"ha":848,"x_min":174,"x_max":1004,"o":"m 211 -21 l 287 745 q 292 823 292 803 q 270 874 292 854 q 198 895 247 895 l 174 895 l 180 920 l 543 920 l 536 895 q 455 882 477 894 q 420 843 433 871 q 406 758 413 828 l 351 210 l 710 699 q 783 810 768 779 q 793 846 793 831 q 778 878 793 865 q 720 895 762 892 l 728 920 l 1004 920 l 998 895 q 945 882 964 892 q 870 828 907 864 q 753 683 833 792 l 235 -21 l 211 -21 z "},"W":{"ha":1157,"x_min":169,"x_max":1311,"o":"m 188 -21 l 267 745 q 272 813 272 789 q 250 873 272 852 q 169 895 227 893 l 176 920 l 521 920 l 513 895 q 419 870 444 895 q 384 745 393 844 l 333 249 l 682 788 q 683 811 683 802 q 661 869 683 849 q 564 895 638 890 l 570 920 l 942 920 l 935 895 q 848 884 870 894 q 820 860 831 876 q 802 803 809 843 q 786 646 800 791 q 742 249 771 500 l 1033 691 q 1093 793 1080 764 q 1105 842 1105 822 q 1088 876 1105 861 q 1033 895 1072 890 l 1038 920 l 1311 920 l 1304 895 q 1240 877 1268 892 q 1175 820 1213 862 q 1085 691 1153 795 l 623 -21 l 598 -21 l 673 691 l 211 -21 l 188 -21 z "},"X":{"ha":848,"x_min":-93,"x_max":1029,"o":"m 718 920 l 1029 920 l 1021 895 q 906 855 956 885 q 772 734 857 825 l 534 490 l 601 244 q 636 135 610 209 q 669 68 652 87 q 710 38 685 48 q 785 25 734 27 l 777 0 l 416 0 l 424 25 q 504 46 479 27 q 522 81 522 60 q 505 165 522 100 l 440 396 l 224 178 q 149 94 161 114 q 142 70 142 81 q 162 37 142 50 q 220 25 172 31 l 213 0 l -93 0 l -85 25 q 9 52 -28 31 q 157 178 62 83 l 424 447 l 351 712 q 293 862 317 834 q 206 895 268 890 l 213 920 l 542 920 l 534 895 q 472 889 488 895 q 448 871 456 883 q 439 844 439 859 q 456 768 439 828 l 518 542 l 663 686 q 780 823 748 771 q 791 856 791 842 q 779 880 791 871 q 710 895 760 892 l 718 920 z "},"Y":{"ha":772,"x_min":125,"x_max":926,"o":"m 486 489 l 661 734 q 728 856 728 829 q 714 881 728 871 q 631 895 699 890 l 637 920 l 926 920 l 921 895 q 863 883 879 889 q 815 851 839 873 q 723 739 783 823 l 498 429 l 430 201 q 405 83 405 116 q 413 52 405 62 q 440 34 420 41 q 519 25 466 26 l 512 0 l 125 0 l 133 25 q 210 35 191 26 q 255 67 240 47 q 302 179 278 98 l 383 448 l 285 765 q 236 869 258 849 q 159 895 214 890 l 166 920 l 506 920 l 498 895 q 425 886 434 890 q 401 867 410 882 q 391 834 391 853 q 411 739 391 806 l 486 489 z "},"Z":{"ha":772,"x_min":-3,"x_max":848,"o":"m 210 920 l 848 920 l 848 895 l 165 44 l 272 44 q 515 61 444 44 q 633 120 586 78 q 712 239 680 162 l 738 239 l 659 0 l -3 0 l -3 20 l 680 870 l 490 870 q 314 859 365 870 q 227 813 263 848 q 165 710 191 779 l 142 710 l 210 920 z "},"[":{"ha":541,"x_min":9,"x_max":654,"o":"m 9 -277 l 366 941 l 654 941 l 640 894 l 450 894 l 122 -228 l 311 -228 l 297 -277 l 9 -277 z "},"\\":{"ha":386,"x_min":148,"x_max":321,"o":"m 196 964 l 321 -21 l 271 -21 l 148 964 l 196 964 z "},"]":{"ha":541,"x_min":-139,"x_max":507,"o":"m 507 941 l 150 -277 l -139 -277 l -125 -230 l 65 -230 l 393 892 l 205 892 l 218 941 l 507 941 z "},"^":{"ha":586,"x_min":38,"x_max":639,"o":"m 351 941 l 639 455 l 576 455 l 339 852 l 102 455 l 38 455 l 330 941 l 351 941 z "},"_":{"ha":694,"x_min":-12,"x_max":707,"o":"m 707 -300 l -12 -300 l -12 -243 l 707 -243 l 707 -300 z "},"`":{"ha":463,"x_min":244,"x_max":468,"o":"m 394 951 l 468 718 l 446 718 l 244 951 l 394 951 z "},"a":{"ha":694,"x_min":33,"x_max":652,"o":"m 652 614 l 519 154 l 505 92 q 503 77 503 83 q 509 58 503 66 q 523 52 515 52 q 546 63 532 52 q 616 144 572 83 l 640 128 q 543 21 593 58 q 452 -16 494 -16 q 408 -2 422 -16 q 393 41 393 13 q 408 128 393 74 l 422 179 q 259 17 334 63 q 154 -16 205 -16 q 68 25 104 -16 q 33 138 33 66 q 97 365 33 245 q 262 557 162 485 q 409 614 340 614 q 478 592 450 614 q 519 520 505 570 l 544 597 l 652 614 m 410 578 q 318 538 367 578 q 195 367 249 480 q 141 162 141 254 q 164 89 141 116 q 217 62 187 62 q 378 172 291 62 q 494 469 494 317 q 471 553 494 527 q 410 578 449 578 z "},"b":{"ha":694,"x_min":37,"x_max":652,"o":"m 401 964 l 267 496 q 381 589 332 564 q 482 614 429 614 q 604 564 557 614 q 652 430 652 515 q 589 213 652 321 q 433 44 527 104 q 247 -16 338 -16 q 37 60 144 -16 l 243 770 q 267 867 267 852 q 256 893 267 884 q 210 905 240 905 q 166 901 195 905 l 166 926 l 401 964 m 138 53 q 258 16 206 16 q 381 59 317 16 q 493 207 446 103 q 540 416 540 311 q 509 514 540 479 q 436 549 478 549 q 313 499 373 549 q 227 358 252 448 l 138 53 z "},"c":{"ha":616,"x_min":41,"x_max":594,"o":"m 539 148 q 397 23 469 63 q 245 -16 325 -16 q 95 38 149 -16 q 41 184 41 92 q 99 388 41 288 q 255 551 157 488 q 447 614 353 614 q 557 583 521 614 q 594 507 594 552 q 568 435 594 465 q 522 412 549 412 q 487 426 500 412 q 473 460 473 439 q 478 484 473 473 q 499 510 483 494 q 518 532 515 525 q 522 546 522 538 q 509 570 522 560 q 453 583 489 583 q 321 536 387 583 q 210 404 256 490 q 155 195 155 299 q 194 85 155 125 q 301 45 233 45 q 405 71 353 45 q 519 165 456 97 l 539 148 z "},"d":{"ha":694,"x_min":26,"x_max":751,"o":"m 751 964 l 518 164 q 499 79 499 99 q 505 66 499 72 q 517 60 511 60 q 538 68 526 60 q 615 150 561 85 l 638 136 q 539 26 589 68 q 446 -16 490 -16 q 408 0 423 -16 q 393 46 393 16 q 414 150 393 85 l 440 234 q 261 24 342 82 q 155 -16 205 -16 q 65 30 103 -16 q 26 154 26 75 q 91 370 26 255 q 261 556 155 484 q 414 614 345 614 q 477 599 451 614 q 530 549 504 584 l 596 785 q 608 825 604 810 q 616 870 616 852 q 606 894 616 884 q 570 905 592 905 q 518 901 554 905 l 518 926 l 751 964 m 500 483 q 475 553 500 526 q 411 579 450 579 q 233 438 326 579 q 140 168 140 297 q 163 91 140 117 q 216 64 185 64 q 393 216 287 64 q 500 483 500 369 z "},"e":{"ha":616,"x_min":43,"x_max":597,"o":"m 165 256 q 161 199 161 222 q 203 97 161 139 q 307 54 246 54 q 401 74 356 54 q 535 163 446 94 l 549 143 q 243 -16 389 -16 q 94 46 144 -16 q 43 184 43 109 q 106 391 43 285 q 262 555 168 496 q 456 614 357 614 q 563 585 528 614 q 597 515 597 555 q 553 408 597 459 q 379 299 494 340 q 165 256 303 271 m 170 289 q 334 328 271 300 q 459 417 417 366 q 500 516 500 469 q 483 562 500 545 q 431 580 465 580 q 284 506 362 580 q 170 289 207 433 z "},"f":{"ha":386,"x_min":-239,"x_max":657,"o":"m 414 597 l 402 553 l 303 553 l 229 256 q 129 -47 179 60 q -24 -256 58 -198 q -149 -300 -87 -300 q -218 -275 -190 -300 q -239 -231 -239 -258 q -222 -194 -239 -210 q -180 -178 -205 -178 q -149 -189 -161 -178 q -136 -216 -136 -201 q -151 -243 -136 -231 q -161 -258 -161 -253 q -157 -267 -161 -264 q -138 -272 -151 -272 q -76 -254 -109 -272 q -19 -199 -44 -235 q 28 -94 6 -163 q 79 94 38 -66 l 197 553 l 79 553 l 89 597 q 168 605 145 597 q 209 635 190 613 q 257 718 227 657 q 334 844 297 799 q 439 934 384 904 q 543 964 494 964 q 626 938 595 964 q 657 882 657 912 q 642 842 657 858 q 602 825 626 825 q 567 838 581 825 q 554 867 554 850 q 563 893 554 878 q 572 915 572 909 q 566 929 572 924 q 540 936 557 936 q 463 909 497 936 q 382 796 418 873 q 315 597 363 756 l 414 597 z "},"g":{"ha":694,"x_min":-37,"x_max":724,"o":"m 724 572 l 704 501 l 591 501 q 604 433 604 465 q 528 273 604 343 q 317 196 451 203 q 210 144 245 174 q 196 122 196 134 q 208 97 196 109 q 270 75 220 86 l 401 44 q 546 -17 511 18 q 581 -100 581 -53 q 539 -201 581 -155 q 419 -274 498 -248 q 245 -300 340 -300 q 92 -280 161 -300 q -7 -226 22 -260 q -37 -156 -37 -192 q -18 -95 -37 -127 q 31 -43 1 -64 q 134 18 49 -31 q 103 71 103 42 q 131 129 103 98 q 247 196 158 159 q 129 258 172 210 q 85 366 85 307 q 169 538 85 462 q 394 614 254 614 q 477 604 445 614 q 541 572 510 593 l 724 572 m 488 465 q 458 551 488 519 q 379 582 428 582 q 253 505 302 582 q 203 345 203 428 q 235 259 203 292 q 312 226 267 226 q 381 245 348 226 q 438 300 415 265 q 475 388 461 334 q 488 465 488 441 m 163 0 q 80 -64 109 -25 q 52 -142 52 -104 q 93 -216 52 -186 q 264 -258 151 -258 q 430 -225 361 -258 q 498 -140 498 -192 q 473 -90 498 -113 q 374 -51 448 -66 q 163 0 334 -43 z "},"h":{"ha":694,"x_min":28,"x_max":637,"o":"m 408 964 l 217 306 q 410 553 340 492 q 542 614 479 614 q 596 591 574 614 q 618 532 618 569 q 599 423 618 487 l 516 139 q 500 82 500 87 q 506 66 500 73 q 519 60 512 60 q 540 69 528 60 q 616 152 578 99 l 637 139 q 573 60 614 103 q 503 0 532 17 q 450 -16 473 -16 q 409 0 425 -16 q 393 41 393 16 q 417 152 393 71 l 495 423 q 510 503 510 474 q 502 525 510 517 q 479 533 493 533 q 435 518 460 533 q 328 412 389 490 q 220 243 312 391 q 173 139 191 195 l 130 0 l 28 0 l 251 776 l 275 860 q 260 891 275 878 q 224 905 245 905 q 187 901 212 905 l 173 899 l 173 925 l 408 964 z "},"i":{"ha":386,"x_min":60,"x_max":378,"o":"m 311 883 q 359 863 339 883 q 378 815 378 844 q 358 767 378 787 q 311 747 338 747 q 263 767 283 747 q 243 815 243 787 q 262 863 243 844 q 311 883 282 883 m 319 614 l 185 138 q 172 81 172 90 q 178 63 172 70 q 193 56 184 56 q 218 67 203 56 q 296 154 256 98 l 319 138 q 211 20 273 68 q 123 -16 165 -16 q 77 0 95 -16 q 60 42 60 17 q 77 125 60 67 l 165 429 q 186 523 186 504 q 176 547 186 538 q 147 557 165 557 q 85 549 132 557 l 85 576 l 319 614 z "},"j":{"ha":386,"x_min":-236,"x_max":389,"o":"m 321 882 q 369 862 349 882 q 389 814 389 842 q 369 765 389 785 q 321 745 349 745 q 272 765 292 745 q 252 814 252 785 q 272 862 252 842 q 321 882 292 882 m 332 614 l 156 7 q 27 -228 109 -156 q -149 -300 -54 -300 q -214 -280 -192 -300 q -236 -233 -236 -260 q -219 -196 -236 -212 q -181 -180 -203 -180 q -146 -193 -161 -180 q -134 -216 -134 -203 q -151 -247 -134 -234 q -161 -259 -161 -254 l -159 -262 q -153 -267 -157 -265 q -141 -268 -149 -268 q -47 -233 -86 -268 q 22 -94 -8 -198 l 174 427 q 197 512 197 504 q 182 541 197 528 q 145 554 168 554 q 125 552 136 554 q 99 548 116 551 l 99 572 l 332 614 z "},"k":{"ha":616,"x_min":14,"x_max":677,"o":"m 397 964 l 205 298 l 282 363 q 447 522 409 471 q 459 548 459 539 q 455 559 459 554 q 439 568 451 565 q 397 572 427 572 l 374 572 l 381 597 l 677 597 l 671 572 q 583 556 620 569 q 511 517 546 543 q 421 446 443 466 l 363 395 q 399 258 378 346 q 449 86 436 113 q 475 59 462 59 q 503 71 487 59 q 578 153 538 96 l 602 136 q 488 13 528 43 q 416 -16 449 -16 q 372 6 388 -16 q 282 321 345 46 l 189 241 l 119 0 l 14 0 l 239 774 l 258 840 q 261 869 261 857 q 249 897 261 886 q 212 907 236 907 q 163 901 197 907 l 163 924 l 397 964 z "},"l":{"ha":386,"x_min":54,"x_max":413,"o":"m 413 964 l 181 157 q 164 83 164 97 q 171 66 164 73 q 186 60 177 60 q 214 71 199 60 q 288 157 250 99 l 309 136 q 190 9 244 45 q 114 -16 150 -16 q 71 1 88 -16 q 54 42 54 19 q 75 142 54 66 l 259 779 q 281 868 281 857 q 269 895 281 884 q 229 905 256 905 q 181 901 213 905 l 181 926 l 413 964 z "},"m":{"ha":1003,"x_min":24,"x_max":943,"o":"m 301 614 l 213 308 q 313 470 272 416 q 439 592 378 554 q 514 614 475 614 q 570 592 548 614 q 593 536 593 570 q 577 450 593 503 l 529 277 q 739 568 640 484 q 847 614 793 614 q 898 592 878 614 q 918 526 918 571 q 906 443 918 487 l 831 179 q 807 83 807 93 q 813 67 807 74 q 824 62 817 62 q 848 75 831 62 q 920 154 886 105 l 943 140 q 883 65 926 113 q 809 1 840 18 q 753 -16 779 -16 q 713 0 729 -16 q 697 40 697 16 q 725 171 697 73 l 787 389 q 809 472 808 464 q 811 497 811 485 q 804 524 811 514 q 785 533 795 533 q 725 504 757 533 q 550 262 631 418 q 450 0 496 160 l 347 0 l 463 410 q 482 499 482 477 q 475 526 482 517 q 456 535 467 535 q 409 519 434 535 q 304 406 368 492 q 205 239 240 319 q 124 0 188 202 l 24 0 l 149 439 l 165 496 q 170 515 170 509 q 157 542 170 530 q 122 554 143 554 q 73 546 113 554 l 67 571 l 301 614 z "},"n":{"ha":694,"x_min":26,"x_max":638,"o":"m 307 614 l 216 305 q 411 554 343 494 q 541 614 478 614 q 596 591 574 614 q 618 533 618 569 q 599 425 618 492 l 516 139 q 502 79 502 90 q 507 63 502 69 q 519 56 513 56 q 538 65 527 56 q 617 152 574 94 l 638 139 q 519 10 575 49 q 448 -16 479 -16 q 408 -1 423 -16 q 393 40 393 14 q 416 152 393 73 l 495 425 q 510 504 510 475 q 501 526 510 517 q 479 534 492 534 q 434 518 460 534 q 330 417 384 488 q 215 238 275 347 q 162 112 183 180 l 128 0 l 26 0 l 150 425 q 172 517 172 501 q 160 543 172 532 q 130 554 148 554 q 102 551 122 554 l 76 547 l 72 572 l 307 614 z "},"o":{"ha":694,"x_min":41,"x_max":642,"o":"m 642 401 q 588 200 642 300 q 438 42 534 100 q 251 -16 342 -16 q 99 43 158 -16 q 41 197 41 102 q 98 397 41 296 q 251 555 155 497 q 437 614 347 614 q 584 555 526 614 q 642 401 642 496 m 530 448 q 499 545 530 511 q 419 578 468 578 q 236 436 319 578 q 152 152 152 293 q 184 53 152 87 q 267 18 217 18 q 446 160 362 18 q 530 448 530 302 z "},"p":{"ha":694,"x_min":-153,"x_max":656,"o":"m 307 614 l 260 458 q 392 579 334 545 q 511 614 450 614 q 614 566 571 614 q 656 441 656 518 q 535 138 656 292 q 252 -16 414 -16 q 192 -9 218 -16 q 134 18 166 -1 l 84 -157 q 69 -224 69 -209 q 77 -250 69 -239 q 102 -266 85 -260 q 172 -272 120 -272 l 166 -297 l -153 -297 l -146 -272 q -61 -250 -83 -269 q -15 -145 -39 -231 l 157 449 q 172 519 172 505 q 162 547 172 537 q 130 557 151 557 q 75 553 110 557 l 75 579 l 307 614 m 149 71 q 262 21 191 21 q 334 41 298 21 q 406 99 371 60 q 469 188 441 138 q 518 307 496 239 q 541 443 541 376 q 516 526 541 497 q 458 555 491 555 q 313 471 385 555 q 208 274 241 387 l 149 71 z "},"q":{"ha":694,"x_min":31,"x_max":659,"o":"m 659 614 l 437 -153 q 422 -220 422 -205 q 430 -247 422 -236 q 451 -264 437 -258 q 506 -272 472 -272 l 499 -297 l 174 -297 l 181 -272 q 264 -260 248 -267 q 306 -227 290 -250 q 343 -130 323 -204 l 437 204 q 270 20 347 73 q 168 -17 215 -17 q 65 38 100 -17 q 31 158 31 94 q 94 373 31 260 q 260 557 157 486 q 405 614 340 614 q 484 590 453 614 q 531 515 515 567 l 552 591 l 659 614 m 504 481 q 477 553 504 525 q 412 581 451 581 q 238 438 330 581 q 146 170 146 296 q 169 92 146 119 q 224 66 192 66 q 318 112 266 66 q 451 291 397 182 q 504 481 504 401 z "},"r":{"ha":541,"x_min":28,"x_max":562,"o":"m 73 576 l 307 614 l 209 284 q 425 568 328 487 q 514 614 479 614 q 549 601 536 614 q 562 562 562 587 q 539 477 562 517 q 492 446 523 446 q 466 456 477 446 q 452 488 454 467 q 446 505 450 500 q 433 510 440 510 q 411 505 421 510 q 357 452 393 495 q 235 279 301 385 q 186 178 207 235 q 154 85 158 101 l 132 0 l 28 0 l 154 421 q 176 526 176 494 q 165 546 176 538 q 130 557 152 557 q 77 551 115 557 l 73 576 z "},"s":{"ha":541,"x_min":-13,"x_max":504,"o":"m 504 614 l 463 406 l 437 406 q 399 538 434 496 q 311 579 363 579 q 244 556 269 579 q 220 500 220 533 q 230 458 220 478 q 273 401 239 437 q 387 256 361 304 q 412 163 412 207 q 354 38 412 93 q 205 -16 295 -16 q 93 7 157 -16 q 58 15 71 15 q 12 -16 28 15 l -13 -16 l 28 203 l 54 203 q 96 58 58 100 q 202 15 135 15 q 284 44 254 15 q 314 115 314 73 q 303 165 314 142 q 223 277 284 205 q 145 385 163 349 q 128 457 128 421 q 176 568 128 523 q 299 614 224 614 q 338 610 321 614 q 383 595 348 608 q 429 582 418 582 q 478 614 458 582 l 504 614 z "},"t":{"ha":386,"x_min":57,"x_max":414,"o":"m 361 782 l 308 597 l 414 597 l 403 555 l 297 555 l 180 155 q 161 71 161 90 q 167 54 161 60 q 180 47 172 47 q 224 71 197 47 q 297 155 241 85 l 319 138 q 201 9 257 47 q 125 -16 163 -16 q 76 2 95 -16 q 57 50 57 21 q 79 162 57 87 l 192 555 l 90 555 l 96 581 q 220 642 171 602 q 331 782 270 682 l 361 782 z "},"u":{"ha":694,"x_min":41,"x_max":654,"o":"m 654 597 l 536 193 q 509 79 509 103 q 514 61 509 67 q 526 56 518 56 q 551 66 537 56 q 621 150 565 77 l 642 134 q 532 9 588 50 q 460 -16 494 -16 q 418 -1 433 -16 q 404 37 404 14 q 412 98 404 60 q 474 317 423 149 q 281 56 359 127 q 137 -16 203 -16 q 84 5 106 -16 q 62 60 62 27 q 92 216 62 111 l 151 426 q 173 519 173 501 q 167 533 173 528 q 155 539 161 539 q 126 529 140 539 q 62 454 112 519 l 41 469 q 149 585 92 547 q 229 614 192 614 q 270 598 254 614 q 286 557 286 582 q 258 426 286 520 l 195 207 q 168 94 168 117 q 177 73 168 81 q 199 65 185 65 q 258 87 222 65 q 354 187 294 110 q 453 331 414 264 q 536 546 492 399 l 551 597 l 654 597 z "},"v":{"ha":616,"x_min":30,"x_max":614,"o":"m 30 572 l 226 614 q 260 511 247 564 q 290 330 278 435 q 304 106 295 277 q 406 222 389 199 q 509 364 495 343 q 540 427 531 400 q 547 466 547 448 q 516 507 547 484 q 484 558 484 530 q 502 597 484 580 q 543 614 519 614 q 593 590 571 614 q 614 532 614 567 q 604 466 614 498 q 538 340 586 414 q 382 141 490 266 q 232 -16 369 125 l 207 -16 q 139 519 191 413 q 83 554 122 554 q 35 548 66 554 l 30 572 z "},"w":{"ha":926,"x_min":24,"x_max":919,"o":"m 582 614 l 629 105 q 817 365 747 243 q 859 468 859 436 q 852 494 859 483 q 830 512 849 500 q 804 537 812 524 q 797 564 797 549 q 812 599 797 585 q 852 614 828 614 q 900 593 880 614 q 919 538 919 572 q 909 472 919 503 q 829 321 888 414 q 681 116 758 211 q 568 -16 605 22 l 543 -16 l 498 453 l 218 -16 l 189 -16 q 159 441 184 273 q 125 532 149 511 q 74 548 109 548 q 24 544 54 548 l 24 568 l 218 614 q 271 266 259 500 q 278 154 275 177 l 557 614 l 582 614 z "},"x":{"ha":616,"x_min":-46,"x_max":610,"o":"m 243 614 q 294 543 277 578 q 334 415 306 519 l 393 505 q 451 567 417 537 q 511 607 485 596 q 547 614 527 614 q 593 598 576 614 q 610 560 610 583 q 600 525 610 534 q 557 508 581 508 q 526 514 543 508 q 484 525 494 525 q 445 506 467 525 q 345 370 403 471 l 400 136 q 422 72 413 83 q 439 62 431 62 q 473 77 454 62 q 536 159 510 109 l 560 146 q 452 14 517 66 q 389 -16 414 -16 q 328 26 351 -16 q 269 254 314 53 q 100 18 163 71 q 20 -16 58 -16 q -30 3 -7 -16 q -46 43 -46 18 q -31 81 -46 66 q 5 96 -16 96 q 52 74 27 96 q 79 58 69 58 q 100 69 87 58 q 186 180 132 95 q 258 304 241 266 q 213 478 216 469 q 172 541 197 522 q 98 559 147 559 q 62 557 83 559 l 62 582 l 243 614 z "},"y":{"ha":616,"x_min":-109,"x_max":612,"o":"m 224 614 q 256 540 248 574 q 274 406 265 506 l 304 72 q 422 227 345 121 q 514 367 459 278 q 555 443 547 421 q 559 465 559 454 q 554 477 559 473 q 529 489 549 482 q 496 512 509 495 q 483 552 483 530 q 499 597 483 580 q 540 614 515 614 q 591 589 570 614 q 612 521 612 564 q 575 398 612 467 q 434 187 538 330 q 181 -123 330 45 q 29 -270 79 -239 q -56 -300 -20 -300 q -93 -284 -77 -300 q -109 -247 -109 -268 q -86 -199 -109 -220 q -39 -177 -64 -177 q -16 -183 -25 -177 q -4 -202 -11 -186 q 7 -224 2 -218 q 16 -227 11 -227 q 30 -220 20 -227 q 117 -147 67 -197 q 213 -39 182 -81 l 175 391 q 146 521 165 498 q 83 544 127 544 q 32 540 68 544 l 26 565 l 224 614 z "},"z":{"ha":541,"x_min":-39,"x_max":547,"o":"m 117 597 l 547 597 l 547 581 l 78 92 l 277 92 q 366 98 347 92 q 401 121 385 103 q 437 184 417 138 l 462 184 l 403 0 l -39 0 l -39 20 l 431 508 l 235 508 q 161 505 174 508 q 123 483 142 500 q 85 426 104 466 l 59 426 l 117 597 z "},"{":{"ha":555,"x_min":152,"x_max":715,"o":"m 360 -276 l 353 -300 q 214 -232 264 -287 q 164 -101 164 -177 q 217 67 164 -32 q 269 205 269 166 q 240 279 269 248 q 152 319 210 311 l 160 347 q 280 392 230 355 q 351 475 330 429 q 370 601 364 507 q 412 766 375 695 q 533 894 450 836 q 715 964 617 951 l 709 941 q 585 886 632 923 q 515 799 537 850 q 495 676 500 764 q 466 533 490 588 q 377 422 442 478 q 212 334 313 366 q 317 256 281 305 q 352 149 352 208 q 299 -9 352 90 q 246 -154 246 -109 q 272 -229 246 -198 q 360 -276 298 -259 z "},"|":{"ha":382,"x_min":109,"x_max":165,"o":"m 165 964 l 165 -300 l 109 -300 l 109 964 l 165 964 z "},"}":{"ha":555,"x_min":-47,"x_max":516,"o":"m 308 941 l 315 964 q 454 897 404 952 q 504 766 504 842 q 451 598 504 696 q 398 460 398 499 q 428 386 398 417 q 516 347 458 355 l 508 319 q 389 273 439 310 q 317 190 338 237 q 298 64 304 159 q 255 -101 293 -31 q 134 -229 218 -172 q -47 -300 51 -287 l -41 -276 q 83 -221 36 -258 q 153 -134 131 -185 q 173 -11 168 -98 q 199 125 178 77 q 290 242 225 186 q 456 331 355 298 q 351 409 387 359 q 316 516 316 458 q 369 674 316 575 q 422 819 422 774 q 396 894 422 863 q 308 941 370 924 z "},"~":{"ha":751,"x_min":30,"x_max":753,"o":"m 723 458 l 753 458 q 703 320 751 370 q 587 270 656 270 q 520 280 556 270 q 334 352 484 291 q 186 395 230 395 q 106 366 138 395 q 60 271 73 337 l 30 271 q 80 411 34 363 q 189 460 126 460 q 250 450 218 460 q 435 381 320 430 q 597 332 550 332 q 682 364 648 332 q 723 458 717 397 z "},"Ä":{"ha":848,"x_min":-68,"x_max":929,"o":"m 715 941 l 646 176 q 640 105 640 122 q 650 64 640 78 q 685 35 663 44 q 760 25 707 25 l 752 0 l 390 0 l 397 25 l 413 25 q 485 44 457 25 q 515 87 505 57 q 530 186 523 108 l 541 302 l 277 302 l 184 176 q 144 114 152 133 q 136 79 136 96 q 153 42 136 58 q 212 25 171 26 l 204 0 l -68 0 l -60 25 q 28 59 -10 27 q 142 193 66 90 l 692 941 l 715 941 m 581 715 l 315 352 l 546 352 l 581 715 m 857 1161 q 908 1140 887 1161 q 929 1088 929 1118 q 908 1037 929 1058 q 857 1015 887 1015 q 805 1037 827 1015 q 784 1088 784 1058 q 805 1140 784 1118 q 857 1161 826 1161 m 615 1161 q 667 1140 646 1161 q 688 1088 688 1118 q 667 1037 688 1058 q 615 1015 646 1015 q 564 1037 585 1015 q 543 1088 543 1058 q 564 1140 543 1118 q 615 1161 585 1161 z "},"Å":{"ha":848,"x_min":-68,"x_max":842,"o":"m 715 941 l 646 176 q 640 105 640 122 q 650 64 640 78 q 685 35 663 44 q 760 25 707 25 l 752 0 l 390 0 l 397 25 l 413 25 q 485 44 457 25 q 515 87 505 57 q 530 186 523 108 l 541 302 l 277 302 l 184 176 q 144 114 152 133 q 136 79 136 96 q 153 42 136 58 q 212 25 171 26 l 204 0 l -68 0 l -60 25 q 28 59 -10 27 q 142 193 66 90 l 692 941 l 715 941 m 581 715 l 315 352 l 546 352 l 581 715 m 713 1167 q 804 1130 767 1167 q 842 1039 842 1093 q 804 948 842 986 q 713 911 766 911 q 623 948 661 911 q 585 1039 585 986 q 623 1130 585 1093 q 713 1167 660 1167 m 714 1124 q 654 1099 679 1124 q 629 1039 629 1074 q 654 980 629 1004 q 714 955 679 955 q 773 980 749 955 q 798 1039 798 1004 q 774 1099 798 1074 q 714 1124 749 1124 z "},"Ç":{"ha":926,"x_min":94,"x_max":977,"o":"m 977 941 l 909 643 l 884 643 l 882 718 q 866 790 878 758 q 829 845 854 822 q 768 882 805 869 q 685 895 730 895 q 473 829 564 895 q 291 589 357 744 q 237 331 237 462 q 315 118 237 197 q 517 38 393 38 q 685 80 612 38 q 822 210 759 122 l 854 210 q 688 35 779 91 q 471 -21 597 -21 q 271 26 358 -21 q 139 159 184 73 q 94 342 94 244 q 174 635 94 493 q 396 859 255 778 q 680 941 536 941 q 830 909 747 941 q 883 895 867 895 q 911 902 899 895 q 952 941 924 909 l 977 941 m 500 20 l 470 -31 q 532 -66 510 -40 q 553 -130 553 -93 q 515 -208 553 -176 q 395 -251 464 -251 q 299 -236 357 -251 l 307 -214 q 366 -222 341 -222 q 433 -201 409 -222 q 457 -151 457 -180 q 443 -114 457 -126 q 386 -98 424 -98 l 460 20 l 500 20 z "},"É":{"ha":848,"x_min":-31,"x_max":878,"o":"m 450 870 l 345 507 l 431 507 q 564 535 523 507 q 635 639 606 563 l 661 639 l 566 305 l 539 305 q 551 377 551 347 q 539 424 551 406 q 507 450 528 441 q 420 458 486 458 l 332 458 l 243 154 q 231 87 231 110 q 248 56 231 69 q 305 46 259 46 l 387 46 q 598 93 519 46 q 741 256 678 140 l 766 256 l 680 0 l -31 0 l -22 25 q 49 35 31 26 q 88 66 76 47 q 132 182 106 94 l 293 737 q 312 840 312 804 q 294 880 312 865 q 224 895 276 895 l 210 895 l 218 920 l 878 920 l 821 698 l 796 698 q 801 750 801 729 q 783 810 801 786 q 716 858 760 842 q 566 870 684 870 l 450 870 m 695 1222 l 496 989 l 473 989 l 543 1222 l 695 1222 z "},"Ñ":{"ha":926,"x_min":-39,"x_max":1058,"o":"m 398 920 l 682 199 l 836 737 q 855 840 855 804 q 838 880 855 865 q 772 894 820 894 q 755 895 764 894 l 762 920 l 1058 920 l 1050 895 q 981 885 1004 895 q 934 848 949 871 q 890 737 912 817 l 673 -21 l 649 -21 l 343 755 l 180 182 q 161 82 161 117 q 178 43 161 56 q 257 25 195 30 l 250 0 l -39 0 l -29 25 q 43 35 25 26 q 85 66 71 47 q 129 182 104 96 l 311 821 q 255 877 285 862 q 161 895 224 892 l 168 920 l 398 920 m 851 1175 l 871 1175 q 836 1044 873 1090 q 747 998 798 998 q 632 1039 697 998 q 553 1087 568 1080 q 526 1093 541 1093 q 486 1075 501 1093 q 461 1000 471 1057 l 439 1000 q 480 1136 444 1095 q 567 1177 516 1177 q 688 1129 616 1177 q 786 1082 760 1082 q 825 1099 810 1082 q 851 1175 844 1122 z "},"Ö":{"ha":1003,"x_min":83,"x_max":997,"o":"m 684 941 q 846 901 776 941 q 957 784 917 861 q 997 623 997 706 q 911 312 997 475 q 687 64 825 150 q 401 -21 549 -21 q 223 26 294 -21 q 117 151 151 73 q 83 300 83 228 q 145 555 83 429 q 293 765 207 681 q 477 895 379 850 q 684 941 574 941 m 661 897 q 529 864 593 897 q 400 754 464 830 q 286 554 336 677 q 223 267 223 402 q 273 97 223 171 q 425 22 322 22 q 546 53 486 22 q 669 157 605 83 q 805 394 750 250 q 860 663 860 538 q 810 826 860 755 q 661 897 761 897 m 855 1161 q 907 1140 886 1161 q 928 1088 928 1118 q 907 1037 928 1058 q 855 1015 886 1015 q 804 1037 825 1015 q 783 1088 783 1058 q 804 1140 783 1118 q 855 1161 825 1161 m 614 1161 q 666 1140 644 1161 q 687 1088 687 1118 q 666 1037 687 1058 q 614 1015 644 1015 q 563 1037 584 1015 q 541 1088 541 1058 q 563 1140 541 1118 q 614 1161 584 1161 z "},"Ü":{"ha":1003,"x_min":148,"x_max":1131,"o":"m 182 920 l 570 920 l 563 895 q 478 883 503 893 q 434 848 452 873 q 397 755 416 823 l 302 430 q 273 316 277 343 q 264 235 264 273 q 326 97 264 153 q 489 40 387 40 q 609 65 556 40 q 700 137 662 91 q 768 261 737 182 q 823 419 800 339 l 905 700 q 935 837 935 805 q 915 875 935 859 q 831 895 894 891 l 838 920 l 1131 920 l 1123 895 q 1049 885 1072 895 q 1009 849 1026 875 q 971 751 992 824 l 871 410 q 781 164 823 243 q 657 32 738 85 q 456 -21 576 -21 q 233 57 317 -21 q 148 237 148 136 q 155 322 148 277 q 182 425 161 352 l 273 738 q 292 838 292 806 q 272 877 292 863 q 175 895 253 890 l 182 920 m 819 1161 q 870 1140 849 1161 q 891 1088 891 1118 q 870 1037 891 1058 q 819 1015 849 1015 q 767 1037 789 1015 q 746 1088 746 1058 q 767 1140 746 1118 q 819 1161 788 1161 m 577 1161 q 629 1140 608 1161 q 650 1088 650 1118 q 629 1037 650 1058 q 577 1015 608 1015 q 526 1037 547 1015 q 505 1088 505 1058 q 526 1140 505 1118 q 577 1161 547 1161 z "},"á":{"ha":694,"x_min":33,"x_max":652,"o":"m 652 614 l 519 154 l 505 92 q 503 77 503 83 q 509 58 503 66 q 523 52 515 52 q 546 63 532 52 q 616 144 572 83 l 640 128 q 543 21 593 58 q 452 -16 494 -16 q 408 -2 422 -16 q 393 41 393 13 q 408 128 393 74 l 422 179 q 259 17 334 63 q 154 -16 205 -16 q 68 25 104 -16 q 33 138 33 66 q 97 365 33 245 q 262 557 162 485 q 409 614 340 614 q 478 592 450 614 q 519 520 505 570 l 544 597 l 652 614 m 410 578 q 318 538 367 578 q 195 367 249 480 q 141 162 141 254 q 164 89 141 116 q 217 62 187 62 q 378 172 291 62 q 494 469 494 317 q 471 553 494 527 q 410 578 449 578 m 616 951 l 416 718 l 393 718 l 463 951 l 616 951 z "},"à":{"ha":694,"x_min":33,"x_max":652,"o":"m 652 614 l 519 154 l 505 92 q 503 77 503 83 q 509 58 503 66 q 523 52 515 52 q 546 63 532 52 q 616 144 572 83 l 640 128 q 543 21 593 58 q 452 -16 494 -16 q 408 -2 422 -16 q 393 41 393 13 q 408 128 393 74 l 422 179 q 259 17 334 63 q 154 -16 205 -16 q 68 25 104 -16 q 33 138 33 66 q 97 365 33 245 q 262 557 162 485 q 409 614 340 614 q 478 592 450 614 q 519 520 505 570 l 544 597 l 652 614 m 410 578 q 318 538 367 578 q 195 367 249 480 q 141 162 141 254 q 164 89 141 116 q 217 62 187 62 q 378 172 291 62 q 494 469 494 317 q 471 553 494 527 q 410 578 449 578 m 493 951 l 567 718 l 545 718 l 343 951 l 493 951 z "},"â":{"ha":694,"x_min":33,"x_max":652,"o":"m 652 614 l 519 154 l 505 92 q 503 77 503 83 q 509 58 503 66 q 523 52 515 52 q 546 63 532 52 q 616 144 572 83 l 640 128 q 543 21 593 58 q 452 -16 494 -16 q 408 -2 422 -16 q 393 41 393 13 q 408 128 393 74 l 422 179 q 259 17 334 63 q 154 -16 205 -16 q 68 25 104 -16 q 33 138 33 66 q 97 365 33 245 q 262 557 162 485 q 409 614 340 614 q 478 592 450 614 q 519 520 505 570 l 544 597 l 652 614 m 410 578 q 318 538 367 578 q 195 367 249 480 q 141 162 141 254 q 164 89 141 116 q 217 62 187 62 q 378 172 291 62 q 494 469 494 317 q 471 553 494 527 q 410 578 449 578 m 600 941 l 651 726 l 637 726 l 522 863 l 306 726 l 288 726 l 498 941 l 600 941 z "},"ä":{"ha":694,"x_min":33,"x_max":686,"o":"m 652 614 l 519 154 l 505 92 q 503 77 503 83 q 509 58 503 66 q 523 52 515 52 q 546 63 532 52 q 616 144 572 83 l 640 128 q 543 21 593 58 q 452 -16 494 -16 q 408 -2 422 -16 q 393 41 393 13 q 408 128 393 74 l 422 179 q 259 17 334 63 q 154 -16 205 -16 q 68 25 104 -16 q 33 138 33 66 q 97 365 33 245 q 262 557 162 485 q 409 614 340 614 q 478 592 450 614 q 519 520 505 570 l 544 597 l 652 614 m 410 578 q 318 538 367 578 q 195 367 249 480 q 141 162 141 254 q 164 89 141 116 q 217 62 187 62 q 378 172 291 62 q 494 469 494 317 q 471 553 494 527 q 410 578 449 578 m 614 909 q 665 887 644 909 q 686 836 686 866 q 665 784 686 806 q 614 763 644 763 q 563 784 584 763 q 541 836 541 806 q 562 887 541 866 q 614 909 583 909 m 372 909 q 424 887 403 909 q 446 836 446 866 q 424 784 446 806 q 372 763 403 763 q 321 784 342 763 q 300 836 300 806 q 321 887 300 866 q 372 909 342 909 z "},"ã":{"ha":694,"x_min":33,"x_max":684,"o":"m 652 614 l 519 154 l 505 92 q 503 77 503 83 q 509 58 503 66 q 523 52 515 52 q 546 63 532 52 q 616 144 572 83 l 640 128 q 543 21 593 58 q 452 -16 494 -16 q 408 -2 422 -16 q 393 41 393 13 q 408 128 393 74 l 422 179 q 259 17 334 63 q 154 -16 205 -16 q 68 25 104 -16 q 33 138 33 66 q 97 365 33 245 q 262 557 162 485 q 409 614 340 614 q 478 592 450 614 q 519 520 505 570 l 544 597 l 652 614 m 410 578 q 318 538 367 578 q 195 367 249 480 q 141 162 141 254 q 164 89 141 116 q 217 62 187 62 q 378 172 291 62 q 494 469 494 317 q 471 553 494 527 q 410 578 449 578 m 662 925 l 682 925 q 646 793 684 840 q 557 747 608 747 q 443 789 508 747 q 363 837 378 830 q 337 842 352 842 q 297 825 312 842 q 272 750 281 807 l 250 750 q 291 886 255 845 q 378 926 327 926 q 499 879 427 926 q 597 831 570 831 q 635 849 621 831 q 662 925 655 871 z "},"å":{"ha":694,"x_min":33,"x_max":652,"o":"m 652 614 l 519 154 l 505 92 q 503 77 503 83 q 509 58 503 66 q 523 52 515 52 q 546 63 532 52 q 616 144 572 83 l 640 128 q 543 21 593 58 q 452 -16 494 -16 q 408 -2 422 -16 q 393 41 393 13 q 408 128 393 74 l 422 179 q 259 17 334 63 q 154 -16 205 -16 q 68 25 104 -16 q 33 138 33 66 q 97 365 33 245 q 262 557 162 485 q 409 614 340 614 q 478 592 450 614 q 519 520 505 570 l 544 597 l 652 614 m 410 578 q 318 538 367 578 q 195 367 249 480 q 141 162 141 254 q 164 89 141 116 q 217 62 187 62 q 378 172 291 62 q 494 469 494 317 q 471 553 494 527 q 410 578 449 578 m 502 964 q 593 926 555 964 q 630 836 630 889 q 592 745 630 783 q 502 707 555 707 q 411 745 449 707 q 374 836 374 783 q 411 926 374 889 q 502 964 448 964 m 503 920 q 443 896 467 920 q 418 836 418 871 q 443 776 418 801 q 503 751 467 751 q 562 776 537 751 q 587 836 587 801 q 562 896 587 871 q 503 920 538 920 z "},"ç":{"ha":616,"x_min":41,"x_max":594,"o":"m 539 148 q 397 23 469 63 q 245 -16 325 -16 q 95 38 149 -16 q 41 184 41 92 q 99 388 41 288 q 255 551 157 488 q 447 614 353 614 q 557 583 521 614 q 594 507 594 552 q 568 435 594 465 q 522 412 549 412 q 487 426 500 412 q 473 460 473 439 q 478 484 473 473 q 499 510 483 494 q 518 532 515 525 q 522 546 522 538 q 509 570 522 560 q 453 583 489 583 q 321 536 387 583 q 210 404 256 490 q 155 195 155 299 q 194 85 155 125 q 301 45 233 45 q 405 71 353 45 q 519 165 456 97 l 539 148 m 307 20 l 276 -31 q 338 -66 316 -40 q 359 -130 359 -93 q 321 -208 359 -176 q 201 -251 270 -251 q 105 -236 163 -251 l 113 -214 q 172 -222 147 -222 q 239 -201 215 -222 q 263 -151 263 -180 q 249 -114 263 -126 q 192 -98 230 -98 l 267 20 l 307 20 z "},"é":{"ha":616,"x_min":43,"x_max":597,"o":"m 165 256 q 161 199 161 222 q 203 97 161 139 q 307 54 246 54 q 401 74 356 54 q 535 163 446 94 l 549 143 q 243 -16 389 -16 q 94 46 144 -16 q 43 184 43 109 q 106 391 43 285 q 262 555 168 496 q 456 614 357 614 q 563 585 528 614 q 597 515 597 555 q 553 408 597 459 q 379 299 494 340 q 165 256 303 271 m 170 289 q 334 328 271 300 q 459 417 417 366 q 500 516 500 469 q 483 562 500 545 q 431 580 465 580 q 284 506 362 580 q 170 289 207 433 m 579 951 l 380 718 l 357 718 l 427 951 l 579 951 z "},"è":{"ha":616,"x_min":43,"x_max":597,"o":"m 165 256 q 161 199 161 222 q 203 97 161 139 q 307 54 246 54 q 401 74 356 54 q 535 163 446 94 l 549 143 q 243 -16 389 -16 q 94 46 144 -16 q 43 184 43 109 q 106 391 43 285 q 262 555 168 496 q 456 614 357 614 q 563 585 528 614 q 597 515 597 555 q 553 408 597 459 q 379 299 494 340 q 165 256 303 271 m 170 289 q 334 328 271 300 q 459 417 417 366 q 500 516 500 469 q 483 562 500 545 q 431 580 465 580 q 284 506 362 580 q 170 289 207 433 m 459 951 l 533 718 l 511 718 l 309 951 l 459 951 z "},"ê":{"ha":616,"x_min":43,"x_max":615,"o":"m 165 256 q 161 199 161 222 q 203 97 161 139 q 307 54 246 54 q 401 74 356 54 q 535 163 446 94 l 549 143 q 243 -16 389 -16 q 94 46 144 -16 q 43 184 43 109 q 106 391 43 285 q 262 555 168 496 q 456 614 357 614 q 563 585 528 614 q 597 515 597 555 q 553 408 597 459 q 379 299 494 340 q 165 256 303 271 m 170 289 q 334 328 271 300 q 459 417 417 366 q 500 516 500 469 q 483 562 500 545 q 431 580 465 580 q 284 506 362 580 q 170 289 207 433 m 564 941 l 615 726 l 601 726 l 486 863 l 270 726 l 252 726 l 463 941 l 564 941 z "},"ë":{"ha":616,"x_min":43,"x_max":650,"o":"m 165 256 q 161 199 161 222 q 203 97 161 139 q 307 54 246 54 q 401 74 356 54 q 535 163 446 94 l 549 143 q 243 -16 389 -16 q 94 46 144 -16 q 43 184 43 109 q 106 391 43 285 q 262 555 168 496 q 456 614 357 614 q 563 585 528 614 q 597 515 597 555 q 553 408 597 459 q 379 299 494 340 q 165 256 303 271 m 170 289 q 334 328 271 300 q 459 417 417 366 q 500 516 500 469 q 483 562 500 545 q 431 580 465 580 q 284 506 362 580 q 170 289 207 433 m 577 909 q 629 887 608 909 q 650 836 650 866 q 629 784 650 806 q 577 763 608 763 q 526 784 547 763 q 505 836 505 806 q 526 887 505 866 q 577 909 547 909 m 336 909 q 388 887 366 909 q 409 836 409 866 q 388 784 409 806 q 336 763 366 763 q 284 784 306 763 q 263 836 263 806 q 284 887 263 866 q 336 909 306 909 z "},"í":{"ha":386,"x_min":60,"x_max":464,"o":"m 319 614 l 185 138 q 172 81 172 90 q 178 63 172 70 q 193 56 184 56 q 218 67 203 56 q 296 154 256 98 l 319 138 q 211 20 273 68 q 123 -16 165 -16 q 77 0 95 -16 q 60 42 60 17 q 77 125 60 67 l 165 429 q 186 523 186 504 q 176 547 186 538 q 147 557 165 557 q 85 549 132 557 l 85 576 l 319 614 m 464 951 l 264 718 l 241 718 l 311 951 l 464 951 z "},"ì":{"ha":386,"x_min":60,"x_max":383,"o":"m 319 614 l 185 138 q 172 81 172 90 q 178 63 172 70 q 193 56 184 56 q 218 67 203 56 q 296 154 256 98 l 319 138 q 211 20 273 68 q 123 -16 165 -16 q 77 0 95 -16 q 60 42 60 17 q 77 125 60 67 l 165 429 q 186 523 186 504 q 176 547 186 538 q 147 557 165 557 q 85 549 132 557 l 85 576 l 319 614 m 309 951 l 383 718 l 361 718 l 159 951 l 309 951 z "},"î":{"ha":386,"x_min":60,"x_max":475,"o":"m 319 614 l 185 138 q 172 81 172 90 q 178 63 172 70 q 193 56 184 56 q 218 67 203 56 q 296 154 256 98 l 319 138 q 211 20 273 68 q 123 -16 165 -16 q 77 0 95 -16 q 60 42 60 17 q 77 125 60 67 l 165 429 q 186 523 186 504 q 176 547 186 538 q 147 557 165 557 q 85 549 132 557 l 85 576 l 319 614 m 424 941 l 475 726 l 460 726 l 346 863 l 130 726 l 111 726 l 322 941 l 424 941 z "},"ï":{"ha":386,"x_min":60,"x_max":510,"o":"m 319 614 l 185 138 q 172 81 172 90 q 178 63 172 70 q 193 56 184 56 q 218 67 203 56 q 296 154 256 98 l 319 138 q 211 20 273 68 q 123 -16 165 -16 q 77 0 95 -16 q 60 42 60 17 q 77 125 60 67 l 165 429 q 186 523 186 504 q 176 547 186 538 q 147 557 165 557 q 85 549 132 557 l 85 576 l 319 614 m 437 909 q 489 887 468 909 q 510 836 510 866 q 489 784 510 806 q 437 763 468 763 q 386 784 408 763 q 365 836 365 806 q 386 887 365 866 q 437 909 407 909 m 196 909 q 248 887 227 909 q 269 836 269 866 q 248 784 269 806 q 196 763 227 763 q 145 784 166 763 q 123 836 123 806 q 145 887 123 866 q 196 909 166 909 z "},"ñ":{"ha":694,"x_min":26,"x_max":684,"o":"m 307 614 l 216 305 q 411 554 343 494 q 541 614 478 614 q 596 591 574 614 q 618 533 618 569 q 599 425 618 492 l 516 139 q 502 79 502 90 q 507 63 502 69 q 519 56 513 56 q 538 65 527 56 q 617 152 574 94 l 638 139 q 519 10 575 49 q 448 -16 479 -16 q 408 -1 423 -16 q 393 40 393 14 q 416 152 393 73 l 495 425 q 510 504 510 475 q 501 526 510 517 q 479 534 492 534 q 434 518 460 534 q 330 417 384 488 q 215 238 275 347 q 162 112 183 180 l 128 0 l 26 0 l 150 425 q 172 517 172 501 q 160 543 172 532 q 130 554 148 554 q 102 551 122 554 l 76 547 l 72 572 l 307 614 m 662 925 l 682 925 q 646 793 684 840 q 557 747 608 747 q 443 789 508 747 q 363 837 378 830 q 337 842 352 842 q 297 825 312 842 q 272 750 281 807 l 250 750 q 291 886 255 845 q 378 926 327 926 q 499 879 427 926 q 597 831 570 831 q 635 849 621 831 q 662 925 655 871 z "},"ó":{"ha":694,"x_min":41,"x_max":642,"o":"m 642 401 q 588 200 642 300 q 438 42 534 100 q 251 -16 342 -16 q 99 43 158 -16 q 41 197 41 102 q 98 397 41 296 q 251 555 155 497 q 437 614 347 614 q 584 555 526 614 q 642 401 642 496 m 530 448 q 499 545 530 511 q 419 578 468 578 q 236 436 319 578 q 152 152 152 293 q 184 53 152 87 q 267 18 217 18 q 446 160 362 18 q 530 448 530 302 m 616 951 l 416 718 l 393 718 l 463 951 l 616 951 z "},"ò":{"ha":694,"x_min":41,"x_max":642,"o":"m 642 401 q 588 200 642 300 q 438 42 534 100 q 251 -16 342 -16 q 99 43 158 -16 q 41 197 41 102 q 98 397 41 296 q 251 555 155 497 q 437 614 347 614 q 584 555 526 614 q 642 401 642 496 m 530 448 q 499 545 530 511 q 419 578 468 578 q 236 436 319 578 q 152 152 152 293 q 184 53 152 87 q 267 18 217 18 q 446 160 362 18 q 530 448 530 302 m 526 951 l 600 718 l 578 718 l 376 951 l 526 951 z "},"ô":{"ha":694,"x_min":41,"x_max":651,"o":"m 642 401 q 588 200 642 300 q 438 42 534 100 q 251 -16 342 -16 q 99 43 158 -16 q 41 197 41 102 q 98 397 41 296 q 251 555 155 497 q 437 614 347 614 q 584 555 526 614 q 642 401 642 496 m 530 448 q 499 545 530 511 q 419 578 468 578 q 236 436 319 578 q 152 152 152 293 q 184 53 152 87 q 267 18 217 18 q 446 160 362 18 q 530 448 530 302 m 600 941 l 651 726 l 637 726 l 522 863 l 306 726 l 288 726 l 498 941 l 600 941 z "},"ö":{"ha":694,"x_min":41,"x_max":686,"o":"m 642 401 q 588 200 642 300 q 438 42 534 100 q 251 -16 342 -16 q 99 43 158 -16 q 41 197 41 102 q 98 397 41 296 q 251 555 155 497 q 437 614 347 614 q 584 555 526 614 q 642 401 642 496 m 530 448 q 499 545 530 511 q 419 578 468 578 q 236 436 319 578 q 152 152 152 293 q 184 53 152 87 q 267 18 217 18 q 446 160 362 18 q 530 448 530 302 m 614 909 q 665 887 644 909 q 686 836 686 866 q 665 784 686 806 q 614 763 644 763 q 563 784 584 763 q 541 836 541 806 q 562 887 541 866 q 614 909 583 909 m 372 909 q 424 887 403 909 q 446 836 446 866 q 424 784 446 806 q 372 763 403 763 q 321 784 342 763 q 300 836 300 806 q 321 887 300 866 q 372 909 342 909 z "},"õ":{"ha":694,"x_min":41,"x_max":684,"o":"m 642 401 q 588 200 642 300 q 438 42 534 100 q 251 -16 342 -16 q 99 43 158 -16 q 41 197 41 102 q 98 397 41 296 q 251 555 155 497 q 437 614 347 614 q 584 555 526 614 q 642 401 642 496 m 530 448 q 499 545 530 511 q 419 578 468 578 q 236 436 319 578 q 152 152 152 293 q 184 53 152 87 q 267 18 217 18 q 446 160 362 18 q 530 448 530 302 m 662 925 l 682 925 q 646 793 684 840 q 557 747 608 747 q 443 789 508 747 q 363 837 378 830 q 337 842 352 842 q 297 825 312 842 q 272 750 281 807 l 250 750 q 291 886 255 845 q 378 926 327 926 q 499 879 427 926 q 597 831 570 831 q 635 849 621 831 q 662 925 655 871 z "},"ú":{"ha":694,"x_min":41,"x_max":654,"o":"m 654 597 l 536 193 q 509 79 509 103 q 514 61 509 67 q 526 56 518 56 q 551 66 537 56 q 621 150 565 77 l 642 134 q 532 9 588 50 q 460 -16 494 -16 q 418 -1 433 -16 q 404 37 404 14 q 412 98 404 60 q 474 317 423 149 q 281 56 359 127 q 137 -16 203 -16 q 84 5 106 -16 q 62 60 62 27 q 92 216 62 111 l 151 426 q 173 519 173 501 q 167 533 173 528 q 155 539 161 539 q 126 529 140 539 q 62 454 112 519 l 41 469 q 149 585 92 547 q 229 614 192 614 q 270 598 254 614 q 286 557 286 582 q 258 426 286 520 l 195 207 q 168 94 168 117 q 177 73 168 81 q 199 65 185 65 q 258 87 222 65 q 354 187 294 110 q 453 331 414 264 q 536 546 492 399 l 551 597 l 654 597 m 616 951 l 416 718 l 393 718 l 463 951 l 616 951 z "},"ù":{"ha":694,"x_min":41,"x_max":654,"o":"m 654 597 l 536 193 q 509 79 509 103 q 514 61 509 67 q 526 56 518 56 q 551 66 537 56 q 621 150 565 77 l 642 134 q 532 9 588 50 q 460 -16 494 -16 q 418 -1 433 -16 q 404 37 404 14 q 412 98 404 60 q 474 317 423 149 q 281 56 359 127 q 137 -16 203 -16 q 84 5 106 -16 q 62 60 62 27 q 92 216 62 111 l 151 426 q 173 519 173 501 q 167 533 173 528 q 155 539 161 539 q 126 529 140 539 q 62 454 112 519 l 41 469 q 149 585 92 547 q 229 614 192 614 q 270 598 254 614 q 286 557 286 582 q 258 426 286 520 l 195 207 q 168 94 168 117 q 177 73 168 81 q 199 65 185 65 q 258 87 222 65 q 354 187 294 110 q 453 331 414 264 q 536 546 492 399 l 551 597 l 654 597 m 435 951 l 509 718 l 487 718 l 285 951 l 435 951 z "},"û":{"ha":694,"x_min":41,"x_max":654,"o":"m 654 597 l 536 193 q 509 79 509 103 q 514 61 509 67 q 526 56 518 56 q 551 66 537 56 q 621 150 565 77 l 642 134 q 532 9 588 50 q 460 -16 494 -16 q 418 -1 433 -16 q 404 37 404 14 q 412 98 404 60 q 474 317 423 149 q 281 56 359 127 q 137 -16 203 -16 q 84 5 106 -16 q 62 60 62 27 q 92 216 62 111 l 151 426 q 173 519 173 501 q 167 533 173 528 q 155 539 161 539 q 126 529 140 539 q 62 454 112 519 l 41 469 q 149 585 92 547 q 229 614 192 614 q 270 598 254 614 q 286 557 286 582 q 258 426 286 520 l 195 207 q 168 94 168 117 q 177 73 168 81 q 199 65 185 65 q 258 87 222 65 q 354 187 294 110 q 453 331 414 264 q 536 546 492 399 l 551 597 l 654 597 m 559 941 l 610 726 l 596 726 l 481 863 l 265 726 l 247 726 l 458 941 l 559 941 z "},"ü":{"ha":694,"x_min":41,"x_max":670,"o":"m 654 597 l 536 193 q 509 79 509 103 q 514 61 509 67 q 526 56 518 56 q 551 66 537 56 q 621 150 565 77 l 642 134 q 532 9 588 50 q 460 -16 494 -16 q 418 -1 433 -16 q 404 37 404 14 q 412 98 404 60 q 474 317 423 149 q 281 56 359 127 q 137 -16 203 -16 q 84 5 106 -16 q 62 60 62 27 q 92 216 62 111 l 151 426 q 173 519 173 501 q 167 533 173 528 q 155 539 161 539 q 126 529 140 539 q 62 454 112 519 l 41 469 q 149 585 92 547 q 229 614 192 614 q 270 598 254 614 q 286 557 286 582 q 258 426 286 520 l 195 207 q 168 94 168 117 q 177 73 168 81 q 199 65 185 65 q 258 87 222 65 q 354 187 294 110 q 453 331 414 264 q 536 546 492 399 l 551 597 l 654 597 m 597 909 q 649 887 628 909 q 670 836 670 866 q 649 784 670 806 q 597 763 628 763 q 546 784 568 763 q 525 836 525 806 q 546 887 525 866 q 597 909 567 909 m 356 909 q 408 887 387 909 q 429 836 429 866 q 408 784 429 806 q 356 763 387 763 q 305 784 326 763 q 283 836 283 806 q 305 887 283 866 q 356 909 326 909 z "},"†":{"ha":694,"x_min":150,"x_max":724,"o":"m 465 456 q 355 220 405 348 q 185 -281 304 93 l 159 -281 q 319 433 319 216 l 318 456 q 380 527 356 490 q 421 614 404 564 q 308 582 371 608 q 220 555 245 555 q 167 574 189 555 q 150 613 150 589 q 170 655 150 637 q 223 672 189 672 q 311 652 255 672 q 367 635 350 639 q 428 630 384 632 q 441 741 441 675 l 438 832 q 467 916 438 880 q 521 941 488 941 q 564 923 547 941 q 581 876 581 905 q 572 828 581 850 q 522 747 560 798 q 473 678 484 696 q 454 630 463 659 q 510 635 495 633 q 557 649 524 638 q 656 671 623 671 q 705 654 686 671 q 724 613 724 637 q 705 571 724 589 q 656 553 686 553 q 620 558 637 553 q 553 585 603 563 q 447 614 503 607 q 439 545 439 570 q 465 456 439 501 z "},"°":{"ha":555,"x_min":66,"x_max":484,"o":"m 275 940 q 423 879 362 940 q 484 731 484 818 q 422 584 484 645 q 275 523 361 523 q 127 584 189 523 q 66 731 66 645 q 127 879 66 818 q 275 940 188 940 m 275 883 q 168 839 212 883 q 123 732 123 795 q 168 625 123 669 q 275 581 212 581 q 381 625 337 581 q 426 732 426 669 q 382 839 426 795 q 275 883 338 883 z "},"¢":{"ha":694,"x_min":77,"x_max":629,"o":"m 576 150 q 450 30 517 68 q 293 -16 383 -9 l 220 -256 l 180 -256 l 253 -16 q 124 45 171 -7 q 77 181 77 98 q 185 460 77 332 q 439 614 292 588 l 521 884 l 559 884 l 480 614 q 594 584 559 614 q 629 504 629 553 q 608 438 629 463 q 559 413 587 413 q 524 426 537 413 q 511 458 511 438 q 516 484 511 473 q 541 515 522 494 q 559 549 559 535 q 553 563 559 556 q 529 578 545 574 q 471 583 514 583 l 311 47 l 339 45 q 559 167 453 45 l 576 150 m 275 56 l 430 575 q 330 513 369 549 q 228 367 264 450 q 193 197 193 283 q 216 104 193 141 q 275 56 233 77 z "},"£":{"ha":694,"x_min":33,"x_max":728,"o":"m 391 503 l 574 503 l 557 446 l 377 446 q 285 153 340 280 q 350 125 311 142 q 446 88 412 98 q 509 79 481 79 q 564 92 538 79 q 612 133 590 106 l 642 133 q 550 18 603 56 q 430 -21 497 -21 q 349 -4 387 -21 q 240 68 311 13 q 179 1 210 24 q 117 -21 149 -21 q 57 2 81 -21 q 33 60 33 24 q 72 140 33 106 q 167 175 110 175 q 190 174 177 175 q 219 172 203 174 q 254 446 233 243 l 97 446 l 114 503 l 262 503 q 414 859 319 761 q 597 939 491 939 q 692 906 656 939 q 728 831 728 873 q 711 786 728 803 q 670 768 694 768 q 624 789 643 768 q 605 838 614 801 q 589 883 595 875 q 554 900 574 900 q 507 878 528 900 q 447 753 475 846 q 391 503 435 711 m 197 98 q 162 115 178 109 q 134 120 146 120 q 88 102 107 120 q 69 60 69 84 q 82 25 69 39 q 113 11 95 11 q 157 30 135 11 q 197 98 179 50 z "},"§":{"ha":694,"x_min":-3,"x_max":708,"o":"m 369 519 q 310 620 326 578 q 294 710 294 662 q 361 881 294 812 q 523 949 428 949 q 654 902 601 949 q 708 806 708 855 q 691 766 708 785 q 660 753 680 753 q 627 767 640 753 q 607 828 615 781 q 577 893 600 876 q 500 920 543 920 q 398 876 442 920 q 354 770 354 831 q 374 675 354 717 q 467 552 393 634 q 568 407 541 471 q 587 312 587 363 q 538 185 587 235 q 420 136 490 136 q 354 151 391 136 q 419 41 402 83 q 435 -47 435 -2 q 367 -214 435 -145 q 199 -282 299 -282 q 54 -232 110 -282 q -3 -123 -3 -182 q 12 -82 -3 -98 q 43 -66 26 -66 q 78 -83 62 -66 q 101 -143 94 -99 q 142 -229 111 -202 q 220 -255 172 -255 q 329 -212 283 -255 q 375 -106 375 -168 q 357 -18 375 -60 q 288 85 338 25 q 166 247 189 199 q 142 354 142 296 q 190 480 142 432 q 313 528 237 528 q 369 519 337 528 m 307 504 q 234 474 264 504 q 203 406 203 445 q 276 238 203 317 q 422 160 349 160 q 489 190 460 160 q 518 260 518 219 q 484 380 518 319 q 401 472 450 440 q 307 504 351 504 z "},"•":{"ha":486,"x_min":77,"x_max":417,"o":"m 247 629 q 367 579 317 629 q 417 459 417 530 q 367 339 417 389 q 247 289 317 289 q 126 339 176 289 q 77 459 77 389 q 126 579 77 530 q 247 629 176 629 z "},"¶":{"ha":726,"x_min":-9,"x_max":631,"o":"m 541 882 l 541 -300 l 492 -300 l 492 882 l 366 882 l 366 -300 l 316 -300 l 316 408 q 122 442 186 413 q 24 531 58 471 q -9 665 -9 591 q 20 787 -9 740 q 124 886 59 852 q 296 920 190 920 l 631 920 l 631 882 l 541 882 z "},"ß":{"ha":694,"x_min":-223,"x_max":692,"o":"m 356 562 q 531 642 467 562 q 594 817 594 722 q 564 897 594 865 q 492 929 534 929 q 420 906 452 929 q 358 825 389 884 q 300 652 338 785 l 170 205 l 86 -54 q 47 -153 64 -121 q -13 -232 22 -195 q -82 -284 -48 -268 q -147 -300 -117 -300 q -205 -277 -180 -300 q -223 -233 -223 -261 q -209 -197 -223 -212 q -174 -183 -195 -183 q -148 -194 -159 -183 q -137 -217 -137 -204 q -146 -242 -137 -227 q -153 -258 -153 -253 q -149 -267 -153 -264 q -132 -271 -143 -271 q -81 -245 -106 -271 q -9 -82 -46 -210 l 90 280 l 186 614 q 267 832 232 774 q 362 928 302 891 q 495 964 422 964 q 638 912 585 964 q 692 782 692 861 q 656 663 692 715 q 556 579 620 612 q 430 543 511 557 q 536 498 500 524 q 594 427 572 473 q 617 329 617 381 q 574 162 617 243 q 463 33 532 82 q 337 -16 393 -16 q 259 16 290 -16 q 228 103 228 49 q 244 159 228 141 q 283 178 260 178 q 316 164 303 178 q 330 132 330 151 q 314 79 330 111 q 302 45 302 56 q 312 23 302 32 q 336 14 322 14 q 381 31 361 14 q 461 157 431 75 q 501 356 501 262 q 451 486 501 434 q 349 534 415 524 l 356 562 z "},"®":{"ha":1055,"x_min":47,"x_max":1009,"o":"m 528 941 q 764 879 649 941 q 944 701 880 817 q 1009 460 1009 585 q 945 220 1009 335 q 767 42 882 106 q 528 -21 652 -21 q 289 42 403 -21 q 111 220 174 106 q 47 460 47 335 q 112 701 47 585 q 292 879 176 817 q 528 941 407 941 m 528 899 q 312 842 417 899 q 148 680 207 785 q 89 460 89 574 q 147 241 89 346 q 309 79 205 137 q 528 20 414 20 q 746 79 642 20 q 909 241 851 137 q 967 460 967 346 q 908 680 967 574 q 744 842 849 785 q 528 899 639 899 m 262 755 l 524 755 q 673 711 622 755 q 725 604 725 667 q 690 513 725 552 q 574 453 655 474 l 716 251 q 762 201 742 215 q 798 191 775 193 l 798 169 l 673 169 l 474 444 l 422 444 l 422 234 q 442 201 427 212 q 503 191 457 191 l 503 169 l 254 169 l 254 191 q 300 199 286 191 q 319 222 313 207 q 324 285 324 233 l 324 640 q 322 699 324 690 q 305 723 317 714 q 262 731 292 731 l 262 755 m 422 473 q 539 488 503 473 q 596 532 576 504 q 616 596 616 560 q 577 688 616 651 q 479 726 539 726 q 422 715 454 726 l 422 473 z "},"©":{"ha":1055,"x_min":47,"x_max":1009,"o":"m 528 941 q 764 879 649 941 q 944 701 880 817 q 1009 460 1009 585 q 945 220 1009 335 q 767 42 882 106 q 528 -21 652 -21 q 289 42 403 -21 q 111 220 174 106 q 47 460 47 335 q 112 701 47 585 q 292 879 176 817 q 528 941 407 941 m 528 899 q 312 842 417 899 q 148 680 207 785 q 89 460 89 574 q 147 241 89 346 q 309 79 205 137 q 528 20 414 20 q 746 79 642 20 q 909 241 851 137 q 967 460 967 346 q 908 680 967 574 q 744 842 849 785 q 528 899 639 899 m 766 769 l 779 579 l 753 579 q 675 700 728 660 q 547 739 622 739 q 448 716 492 739 q 377 654 405 693 q 343 577 357 625 q 330 475 330 529 q 391 263 330 332 q 554 195 453 195 q 766 305 686 195 l 791 292 q 531 155 696 155 q 306 242 395 155 q 217 456 217 330 q 312 678 217 586 q 555 770 407 770 q 607 766 586 770 q 680 744 627 762 q 705 739 697 739 q 724 744 716 739 q 739 769 731 750 l 766 769 z "},"™":{"ha":1361,"x_min":20,"x_max":1338,"o":"m 35 920 l 528 920 l 543 783 l 520 783 q 485 856 513 832 q 389 879 456 879 l 338 879 l 338 486 q 351 414 338 429 q 410 397 365 399 l 410 372 l 156 372 l 156 397 q 212 415 200 401 q 224 486 224 430 l 224 879 l 172 879 q 81 858 108 879 q 43 783 54 836 l 20 783 l 35 920 m 784 920 l 969 532 l 1149 920 l 1338 920 l 1338 895 q 1288 887 1300 894 q 1269 865 1275 880 q 1263 803 1263 850 l 1263 486 q 1276 414 1263 428 q 1338 397 1289 399 l 1338 372 l 1068 372 l 1068 397 q 1122 405 1108 397 q 1142 427 1136 412 q 1149 485 1149 441 l 1149 819 l 941 372 l 919 372 l 710 812 l 710 486 q 716 426 710 439 q 734 404 722 412 q 773 397 747 397 l 798 397 l 798 372 l 590 372 l 590 397 q 641 404 628 397 q 661 425 654 410 q 667 486 667 439 l 667 802 q 661 867 667 853 q 642 887 655 880 q 590 895 628 895 l 590 920 l 784 920 z "},"´":{"ha":463,"x_min":277,"x_max":500,"o":"m 500 951 l 300 718 l 277 718 l 347 951 l 500 951 z "},"¨":{"ha":463,"x_min":182,"x_max":568,"o":"m 496 909 q 547 887 526 909 q 568 836 568 866 q 547 784 568 806 q 496 763 526 763 q 445 784 466 763 q 423 836 423 806 q 444 887 423 866 q 496 909 465 909 m 254 909 q 306 887 285 909 q 328 836 328 866 q 306 784 328 806 q 254 763 285 763 q 203 784 224 763 q 182 836 182 806 q 203 887 182 866 q 254 909 224 909 z "},"≠":{"ha":762,"x_min":17,"x_max":745,"o":"m 17 555 l 425 555 l 568 916 l 622 916 l 482 555 l 745 555 l 745 491 l 457 491 l 359 240 l 745 240 l 745 177 l 335 177 l 192 -183 l 138 -183 l 279 177 l 17 177 l 17 240 l 304 240 l 402 491 l 17 491 l 17 555 z "},"Æ":{"ha":1235,"x_min":-73,"x_max":1263,"o":"m 745 460 l 654 148 q 642 88 642 104 q 656 61 642 74 q 701 48 671 48 l 783 48 q 1120 256 1017 48 l 1146 256 l 1057 0 l 380 0 l 387 25 q 474 45 446 25 q 536 152 513 72 l 588 328 l 305 328 l 207 206 q 139 112 154 140 q 130 75 130 94 q 146 40 130 54 q 207 25 163 26 l 199 0 l -73 0 l -66 25 q 10 51 -24 28 q 122 169 45 73 l 604 769 q 648 829 640 812 q 656 859 656 845 q 650 877 656 869 q 631 890 644 885 q 584 895 618 895 l 593 920 l 1263 920 l 1206 701 l 1178 701 q 1184 756 1184 734 q 1167 812 1184 789 q 1099 861 1144 844 q 960 874 1065 874 l 864 874 l 758 509 l 825 509 q 948 533 909 509 q 1027 640 1002 566 l 1057 640 l 960 306 l 932 306 q 944 381 944 353 q 909 447 944 425 q 809 460 887 460 l 745 460 m 604 379 l 745 874 l 345 379 l 604 379 z "},"Ø":{"ha":1003,"x_min":49,"x_max":1024,"o":"m 897 863 l 987 957 l 1024 920 l 932 826 q 998 623 998 727 q 910 315 998 475 q 682 66 823 154 q 402 -21 540 -21 q 189 56 282 -21 l 86 -49 l 49 -16 l 155 94 q 100 195 117 147 q 84 300 84 243 q 174 611 84 454 q 402 854 264 768 q 679 941 541 941 q 813 917 752 941 q 897 863 854 901 m 831 793 q 772 865 806 843 q 661 896 724 896 q 540 868 594 896 q 399 751 466 829 q 278 538 332 673 q 224 267 224 402 q 237 178 224 229 l 831 793 m 850 741 l 256 124 q 425 25 311 25 q 547 55 488 25 q 675 166 605 85 q 803 390 745 247 q 861 664 861 532 q 850 741 861 696 z "},"∞":{"ha":990,"x_min":33,"x_max":951,"o":"m 440 452 q 541 599 486 558 q 691 640 596 640 q 876 562 800 640 q 951 357 951 483 q 878 153 951 233 q 714 73 804 73 q 589 122 647 73 q 486 267 551 155 q 391 145 442 182 q 266 109 339 109 q 101 178 168 109 q 33 359 33 248 q 96 539 33 471 q 241 608 158 608 q 345 577 300 608 q 440 452 389 547 m 505 315 q 606 173 556 209 q 717 136 655 136 q 856 196 800 136 q 912 357 912 256 q 853 522 912 457 q 721 587 794 587 q 639 564 674 587 q 576 488 604 540 q 505 315 559 457 m 420 400 q 345 510 387 475 q 239 545 302 545 q 119 495 168 545 q 71 359 71 444 q 118 215 71 269 q 227 161 166 161 q 340 219 291 161 q 420 400 372 257 z "},"±":{"ha":762,"x_min":16,"x_max":747,"o":"m 16 96 l 16 151 l 353 151 l 353 434 l 16 434 l 16 490 l 353 490 l 353 827 l 408 827 l 408 490 l 747 490 l 747 434 l 408 434 l 408 151 l 747 151 l 747 96 l 16 96 z "},"≤":{"ha":762,"x_min":16,"x_max":746,"o":"m 745 167 l 17 476 l 17 532 l 745 840 l 745 771 l 100 505 l 745 236 l 745 167 m 16 -47 l 746 -47 l 746 -111 l 16 -111 l 16 -47 z "},"≥":{"ha":762,"x_min":16,"x_max":746,"o":"m 17 840 l 745 531 l 745 475 l 17 167 l 17 236 l 661 503 l 17 771 l 17 840 m 16 -47 l 746 -47 l 746 -111 l 16 -111 l 16 -47 z "},"¥":{"ha":694,"x_min":-9,"x_max":865,"o":"m 412 300 l 718 300 l 704 256 l 398 256 l 378 188 q 356 79 356 115 q 372 43 356 56 q 460 25 393 28 l 450 0 l 101 0 l 108 25 q 180 36 165 28 q 222 74 206 49 q 259 175 234 91 l 283 256 l -9 256 l 4 300 l 298 300 l 340 442 l 33 442 l 46 488 l 328 488 l 245 761 q 200 864 220 840 q 142 894 180 887 l 149 920 l 450 920 l 444 894 q 363 878 384 894 q 343 836 343 862 q 360 750 343 808 l 437 488 l 624 745 q 685 859 685 830 q 671 880 685 870 q 597 894 652 892 l 603 920 l 865 920 l 857 894 q 785 866 818 890 q 696 766 751 842 l 492 488 l 760 488 l 747 442 l 459 442 l 450 430 l 412 300 z "},"µ":{"ha":800,"x_min":-31,"x_max":720,"o":"m 248 597 l 351 597 l 251 252 q 225 159 229 174 q 222 128 222 144 q 241 67 222 87 q 289 47 259 47 q 368 84 318 47 q 485 231 417 121 q 522 340 500 264 l 597 597 l 700 597 l 587 205 l 568 141 q 564 103 564 121 q 575 63 564 76 q 604 50 587 50 q 641 64 623 50 q 696 146 665 85 l 720 146 q 641 35 701 87 q 549 -16 580 -16 q 486 11 512 -16 q 460 83 460 37 q 463 137 460 104 q 351 22 410 60 q 245 -16 292 -16 q 174 4 203 -16 q 135 57 155 18 q 109 -44 116 -6 q 93 -185 102 -83 q 67 -275 87 -251 q 19 -299 47 -299 q -15 -286 -3 -299 q -31 -246 -31 -269 q -25 -212 -31 -230 q 21 -119 -18 -195 q 63 -22 43 -75 q 116 146 83 31 l 248 597 z "},"∂":{"ha":686,"x_min":41,"x_max":672,"o":"m 627 486 q 635 612 635 563 q 571 801 635 734 q 401 868 507 868 q 281 841 329 868 q 197 760 234 814 l 165 760 q 278 916 218 867 q 424 964 338 964 q 543 931 485 964 q 636 824 601 898 q 672 624 672 750 q 568 193 672 384 q 271 -21 450 -21 q 103 40 165 -21 q 41 206 41 101 q 72 362 41 286 q 152 491 104 438 q 259 575 200 544 q 415 616 336 616 q 516 594 471 616 q 590 543 561 573 q 627 486 608 524 m 616 426 q 537 540 589 501 q 421 578 484 578 q 301 536 360 578 q 199 389 242 494 q 155 178 155 283 q 193 59 155 101 q 288 18 230 18 q 458 106 371 18 q 616 426 568 218 z "},"∑":{"ha":990,"x_min":29,"x_max":963,"o":"m 920 -300 l 29 -300 l 29 -275 l 483 336 l 29 938 l 29 963 l 896 963 l 914 734 l 887 734 q 834 868 876 828 q 718 908 793 908 l 216 908 l 597 395 l 171 -180 l 726 -180 q 829 -161 773 -180 q 893 -116 868 -149 q 936 -13 919 -83 l 963 -18 l 920 -300 z "},"∏":{"ha":1143,"x_min":31,"x_max":1112,"o":"m 841 910 l 302 910 l 302 -169 q 327 -250 302 -225 q 412 -274 352 -274 l 436 -274 l 436 -300 l 31 -300 l 31 -274 l 55 -274 q 140 -250 115 -274 q 165 -169 165 -226 l 165 833 q 140 913 165 889 q 55 938 115 938 l 31 938 l 31 963 l 1112 963 l 1112 938 l 1088 938 q 1004 913 1029 938 q 979 833 979 889 l 979 -169 q 1004 -250 979 -225 q 1088 -274 1029 -274 l 1112 -274 l 1112 -300 l 707 -300 l 707 -274 l 731 -274 q 816 -250 791 -274 q 841 -169 841 -226 l 841 910 z "},"∫":{"ha":380,"x_min":-2,"x_max":378,"o":"m 134 607 l 146 1001 q 180 1174 151 1105 q 230 1241 198 1219 q 293 1263 262 1263 q 352 1241 327 1263 q 378 1191 378 1218 q 360 1140 378 1159 q 315 1120 342 1120 q 264 1145 292 1120 q 237 1158 248 1158 q 217 1148 225 1158 q 210 1115 210 1139 q 216 1017 210 1087 q 241 567 241 738 q 230 167 241 519 q 169 -104 224 -33 q 78 -149 132 -149 q 20 -126 43 -149 q -2 -67 -2 -103 q 15 -18 -2 -37 q 59 0 33 0 q 106 -22 86 0 q 139 -43 125 -43 q 158 -34 151 -43 q 165 -2 165 -24 q 159 79 165 26 q 142 309 148 176 q 134 607 134 477 z "},"ª":{"ha":383,"x_min":121,"x_max":523,"o":"m 523 941 l 437 665 q 427 616 427 630 q 430 608 427 612 q 438 604 433 604 q 455 611 445 604 q 500 659 471 623 l 515 650 q 393 563 453 563 q 365 572 374 563 q 355 596 355 581 q 365 650 355 617 l 374 680 q 269 583 316 610 q 201 563 233 563 q 144 588 167 563 q 121 656 121 613 q 161 789 121 718 q 260 900 201 860 q 363 941 319 941 q 409 928 392 941 q 437 885 427 916 l 453 931 l 523 941 m 369 922 q 267 857 319 922 q 191 671 191 762 q 206 626 191 643 q 241 610 220 610 q 356 689 290 610 q 422 857 422 769 q 408 906 422 890 q 369 922 393 922 z "},"º":{"ha":431,"x_min":155,"x_max":546,"o":"m 546 816 q 468 640 546 716 q 291 563 390 563 q 192 599 229 563 q 155 690 155 635 q 234 862 155 784 q 411 941 314 941 q 509 905 471 941 q 546 816 546 869 m 473 842 q 453 899 473 879 q 400 920 433 920 q 281 833 335 920 q 227 664 227 747 q 248 605 227 626 q 302 583 269 583 q 418 668 363 583 q 473 842 473 753 z "},"Ω":{"ha":1067,"x_min":48,"x_max":1019,"o":"m 437 197 l 458 0 l 48 0 l 48 227 l 71 227 q 103 158 85 173 q 170 143 121 143 l 376 143 l 376 163 q 208 243 269 195 q 111 373 146 291 q 75 538 75 454 q 130 738 75 642 q 290 885 184 833 q 534 937 395 937 q 777 886 672 937 q 937 738 882 834 q 992 538 992 642 q 956 372 992 454 q 860 243 920 291 q 691 163 799 195 l 691 143 l 897 143 q 964 158 946 143 q 996 227 983 173 l 1019 227 l 1019 0 l 609 0 l 630 197 q 755 286 713 227 q 826 541 826 384 q 748 802 826 714 q 537 890 669 890 q 330 813 398 890 q 241 541 241 714 q 269 367 241 442 q 345 248 296 292 q 437 197 378 218 z "},"æ":{"ha":926,"x_min":31,"x_max":906,"o":"m 622 603 l 606 537 q 779 614 693 614 q 871 584 837 614 q 906 515 906 555 q 880 433 906 475 q 811 359 854 391 q 692 298 767 327 q 534 257 617 269 q 526 179 526 210 q 557 85 526 119 q 642 52 588 52 q 734 77 688 52 q 842 165 781 101 l 859 145 q 727 26 800 68 q 591 -16 655 -16 q 468 32 516 -16 q 420 155 420 80 q 423 203 420 174 q 290 37 330 69 q 153 -16 224 -16 q 66 25 102 -16 q 31 140 31 66 q 98 367 31 245 q 264 559 165 488 q 405 614 339 614 q 477 587 450 614 q 511 494 504 559 l 534 589 l 622 603 m 210 63 q 301 106 248 63 q 427 280 373 163 q 480 488 480 396 q 461 559 480 537 q 407 582 441 582 q 230 426 321 582 q 138 157 138 271 q 165 85 138 118 q 210 63 183 63 m 541 290 q 753 389 686 321 q 820 515 820 456 q 801 559 820 540 q 758 578 782 578 q 681 550 725 578 q 604 465 636 522 q 541 290 571 409 z "},"ø":{"ha":694,"x_min":3,"x_max":679,"o":"m 652 654 l 679 627 l 596 540 q 643 401 643 473 q 585 196 643 298 q 433 39 527 94 q 247 -16 339 -16 q 177 -5 208 -16 q 113 35 147 7 l 30 -50 l 3 -21 l 86 63 q 39 195 39 130 q 98 395 39 292 q 255 555 157 497 q 444 614 353 614 q 506 604 478 614 q 570 568 534 594 l 652 654 m 519 515 q 474 565 495 552 q 420 578 454 578 q 312 532 363 578 q 192 343 241 469 q 153 158 153 242 q 153 134 153 150 l 519 515 m 531 470 l 164 87 q 211 31 189 45 q 269 17 233 17 q 338 36 304 17 q 413 107 372 55 q 493 260 454 160 q 532 446 532 361 q 531 470 532 452 z "},"¿":{"ha":694,"x_min":50,"x_max":552,"o":"m 483 663 q 532 643 512 663 q 552 593 552 623 q 532 545 552 565 q 483 525 511 525 q 434 545 454 525 q 414 593 414 565 q 434 643 414 623 q 483 663 454 663 m 442 416 l 468 416 q 427 267 458 330 q 294 97 395 205 q 179 -53 209 7 q 158 -141 158 -96 q 196 -232 158 -195 q 294 -269 234 -269 q 387 -244 351 -269 q 408 -212 408 -231 q 396 -174 408 -198 q 385 -134 385 -150 q 401 -96 385 -111 q 441 -81 418 -81 q 482 -98 465 -81 q 498 -142 498 -115 q 474 -215 498 -178 q 398 -276 449 -252 q 282 -300 348 -300 q 114 -241 178 -300 q 50 -106 50 -182 q 79 -1 50 -46 q 229 133 119 57 q 380 266 338 208 q 442 416 421 323 z "},"¡":{"ha":541,"x_min":98,"x_max":434,"o":"m 365 664 q 414 644 393 664 q 434 594 434 623 q 414 545 434 566 q 365 525 393 525 q 315 545 336 525 q 295 594 295 566 q 315 644 295 623 q 365 664 336 664 m 319 417 l 345 417 q 298 230 312 294 q 268 61 285 165 q 227 -191 234 -155 q 182 -284 213 -252 q 142 -300 168 -300 q 111 -285 124 -300 q 98 -245 98 -270 q 111 -173 98 -216 q 220 134 139 -77 q 263 245 259 234 q 319 417 276 281 z "},"¬":{"ha":937,"x_min":24,"x_max":757,"o":"m 24 595 l 757 595 l 757 320 l 703 320 l 703 541 l 24 541 l 24 595 z "},"√":{"ha":762,"x_min":59,"x_max":764,"o":"m 714 1267 l 764 1267 l 553 -53 l 216 640 l 82 578 l 59 621 l 263 724 l 538 165 l 714 1267 z "},"ƒ":{"ha":694,"x_min":1,"x_max":677,"o":"m 466 593 l 587 593 l 575 549 l 457 549 q 340 68 422 366 q 201 -236 277 -163 q 84 -292 144 -292 q 24 -272 46 -292 q 1 -221 1 -251 q 17 -178 1 -195 q 54 -161 33 -161 q 84 -173 71 -161 q 98 -199 98 -185 q 88 -224 98 -214 q 81 -237 81 -233 q 86 -247 81 -243 q 98 -252 91 -252 q 123 -245 112 -252 q 163 -201 144 -233 q 204 -81 183 -170 q 262 200 208 -66 q 346 549 267 224 l 226 549 l 236 593 q 320 604 303 598 q 349 625 338 610 q 390 716 367 648 q 485 901 439 860 q 585 941 530 941 q 652 918 627 941 q 677 865 677 896 q 664 827 677 841 q 631 812 650 812 q 601 824 614 812 q 589 850 589 836 q 596 874 589 861 q 604 892 604 886 q 597 905 604 899 q 580 909 591 909 q 541 893 558 909 q 509 836 517 871 q 466 593 491 754 z "},"≈":{"ha":762,"x_min":20,"x_max":743,"o":"m 713 704 l 743 704 q 693 569 741 618 q 578 519 646 519 q 512 529 547 519 q 326 601 477 539 q 176 644 220 644 q 95 615 128 644 q 50 520 62 585 l 20 520 q 43 620 23 581 q 101 683 63 660 q 178 705 140 705 q 238 696 207 705 q 435 622 309 676 q 541 583 501 593 q 587 577 562 577 q 672 610 637 577 q 713 704 707 642 m 713 371 l 743 371 q 693 235 741 285 q 578 185 646 185 q 477 206 547 185 l 326 268 q 176 311 220 311 q 95 281 128 311 q 50 186 62 252 l 20 186 q 43 287 23 247 q 101 349 62 326 q 177 372 139 372 q 237 363 206 372 q 435 288 309 342 l 502 260 l 541 250 q 587 244 562 244 q 672 276 637 244 q 713 371 707 309 z "},"∆":{"ha":850,"x_min":20,"x_max":833,"o":"m 833 0 l 20 0 l 446 941 l 833 0 m 673 56 l 403 711 l 104 56 l 673 56 z "},"«":{"ha":694,"x_min":57,"x_max":670,"o":"m 411 624 l 180 300 l 254 -21 l 224 -21 l 57 300 l 375 624 l 411 624 m 670 624 l 439 300 l 515 -21 l 485 -21 l 317 300 l 633 624 l 670 624 z "},"»":{"ha":694,"x_min":25,"x_max":638,"o":"m 283 -21 l 515 302 l 440 624 l 470 624 l 638 302 l 320 -21 l 283 -21 m 25 -21 l 255 302 l 180 624 l 210 624 l 378 302 l 61 -21 l 25 -21 z "},"…":{"ha":1235,"x_min":180,"x_max":1048,"o":"m 256 132 q 309 110 288 132 q 331 56 331 87 q 309 3 331 25 q 256 -19 287 -19 q 202 3 224 -19 q 180 56 180 25 q 202 110 180 88 q 256 132 224 132 m 614 132 q 668 110 646 132 q 690 56 690 87 q 668 3 690 25 q 614 -19 646 -19 q 561 3 583 -19 q 539 56 539 25 q 561 110 539 88 q 614 132 583 132 m 973 132 q 1027 110 1005 132 q 1048 56 1048 87 q 1026 3 1048 25 q 973 -19 1004 -19 q 920 3 942 -19 q 898 56 898 25 q 920 110 898 88 q 973 132 942 132 z "},"À":{"ha":848,"x_min":-68,"x_max":810,"o":"m 715 941 l 646 176 q 640 105 640 122 q 650 64 640 78 q 685 35 663 44 q 760 25 707 25 l 752 0 l 390 0 l 397 25 l 413 25 q 485 44 457 25 q 515 87 505 57 q 530 186 523 108 l 541 302 l 277 302 l 184 176 q 144 114 152 133 q 136 79 136 96 q 153 42 136 58 q 212 25 171 26 l 204 0 l -68 0 l -60 25 q 28 59 -10 27 q 142 193 66 90 l 692 941 l 715 941 m 581 715 l 315 352 l 546 352 l 581 715 m 736 1222 l 810 989 l 789 989 l 587 1222 l 736 1222 z "},"Ã":{"ha":848,"x_min":-68,"x_max":928,"o":"m 715 941 l 646 176 q 640 105 640 122 q 650 64 640 78 q 685 35 663 44 q 760 25 707 25 l 752 0 l 390 0 l 397 25 l 413 25 q 485 44 457 25 q 515 87 505 57 q 530 186 523 108 l 541 302 l 277 302 l 184 176 q 144 114 152 133 q 136 79 136 96 q 153 42 136 58 q 212 25 171 26 l 204 0 l -68 0 l -60 25 q 28 59 -10 27 q 142 193 66 90 l 692 941 l 715 941 m 581 715 l 315 352 l 546 352 l 581 715 m 905 1175 l 926 1175 q 890 1044 928 1090 q 801 998 852 998 q 687 1039 751 998 q 607 1087 622 1080 q 581 1093 595 1093 q 540 1075 555 1093 q 515 1000 525 1057 l 494 1000 q 534 1136 498 1095 q 621 1177 570 1177 q 742 1129 671 1177 q 840 1082 814 1082 q 879 1099 864 1082 q 905 1175 899 1122 z "},"Õ":{"ha":1003,"x_min":83,"x_max":997,"o":"m 684 941 q 846 901 776 941 q 957 784 917 861 q 997 623 997 706 q 911 312 997 475 q 687 64 825 150 q 401 -21 549 -21 q 223 26 294 -21 q 117 151 151 73 q 83 300 83 228 q 145 555 83 429 q 293 765 207 681 q 477 895 379 850 q 684 941 574 941 m 661 897 q 529 864 593 897 q 400 754 464 830 q 286 554 336 677 q 223 267 223 402 q 273 97 223 171 q 425 22 322 22 q 546 53 486 22 q 669 157 605 83 q 805 394 750 250 q 860 663 860 538 q 810 826 860 755 q 661 897 761 897 m 908 1175 l 928 1175 q 892 1044 930 1090 q 804 998 854 998 q 689 1039 754 998 q 610 1087 625 1080 q 583 1093 598 1093 q 543 1075 558 1093 q 518 1000 528 1057 l 496 1000 q 537 1136 501 1095 q 624 1177 573 1177 q 745 1129 673 1177 q 843 1082 817 1082 q 882 1099 867 1082 q 908 1175 901 1122 z "},"Œ":{"ha":1311,"x_min":31,"x_max":1346,"o":"m 1227 254 l 1141 0 l 689 0 q 509 -3 584 0 l 349 -9 q 181 33 256 -9 q 69 153 107 75 q 31 309 31 230 q 90 548 31 433 q 234 747 149 664 q 424 879 319 829 q 608 928 528 928 q 677 924 616 928 q 871 920 772 920 l 1346 920 l 1287 696 l 1261 696 q 1266 748 1266 728 q 1245 812 1266 782 q 1192 855 1225 842 q 1060 868 1159 868 l 922 868 l 817 505 l 871 505 q 988 516 950 505 q 1052 553 1026 528 q 1101 636 1077 579 l 1126 636 l 1029 302 l 1004 302 q 1017 378 1017 356 q 993 435 1017 413 q 928 458 969 458 l 890 457 l 803 457 l 718 169 q 701 92 701 109 q 708 66 701 78 q 728 51 716 55 q 789 47 739 47 l 863 47 q 990 63 943 47 q 1113 133 1060 85 q 1201 254 1165 182 l 1227 254 m 747 671 q 770 788 770 751 q 738 849 770 823 q 640 876 705 876 q 433 814 521 876 q 247 577 321 734 q 174 270 174 419 q 232 102 174 162 q 396 41 290 41 q 539 80 492 41 q 625 254 586 119 l 747 671 z "},"œ":{"ha":926,"x_min":37,"x_max":901,"o":"m 834 163 l 852 143 q 707 23 781 63 q 580 -16 633 -16 q 495 14 530 -16 q 448 103 460 43 q 224 -17 349 -17 q 90 41 143 -17 q 37 191 37 98 q 76 355 37 275 q 170 492 115 434 q 288 582 225 549 q 405 614 351 614 q 511 580 468 614 q 566 492 555 547 q 790 614 673 614 q 872 587 843 614 q 901 519 901 561 q 880 444 901 480 q 799 355 851 393 q 670 288 746 316 q 539 254 595 260 q 534 193 534 214 q 567 95 534 132 q 645 58 600 58 q 712 75 681 58 q 834 163 757 97 m 232 14 q 394 165 321 14 q 485 471 485 351 q 458 549 485 520 q 392 578 431 578 q 315 547 353 578 q 210 389 264 505 q 143 118 143 245 q 168 41 143 68 q 232 14 193 14 m 545 286 q 743 383 675 313 q 811 518 811 452 q 797 562 811 545 q 760 578 782 578 q 645 506 700 578 q 545 286 591 433 z "},"–":{"ha":694,"x_min":-12,"x_max":706,"o":"m 706 307 l -12 307 l -12 357 l 706 357 l 706 307 z "},"—":{"ha":1235,"x_min":-13,"x_max":1248,"o":"m 1248 307 l -13 307 l -13 357 l 1248 357 l 1248 307 z "},"“":{"ha":772,"x_min":267,"x_max":777,"o":"m 465 920 q 377 857 414 899 q 359 807 359 836 q 363 785 359 793 q 380 762 365 780 q 399 735 395 744 q 404 712 404 724 q 384 662 404 684 q 335 641 363 641 q 287 663 307 641 q 267 721 267 685 q 288 803 267 761 q 351 880 309 845 q 450 941 379 903 l 465 920 m 777 920 q 689 857 708 882 q 670 809 670 832 q 675 785 670 795 q 692 762 677 779 q 711 737 707 744 q 715 713 715 726 q 695 662 715 684 q 646 641 675 641 q 598 662 618 641 q 578 720 578 684 q 620 834 578 779 q 763 936 662 890 l 777 920 z "},"”":{"ha":772,"x_min":253,"x_max":762,"o":"m 564 667 q 652 729 615 687 q 670 777 670 749 q 666 800 670 791 q 649 822 665 804 q 630 848 634 840 q 625 871 625 859 q 645 920 625 899 q 694 941 666 941 q 742 919 722 941 q 762 861 762 897 q 741 779 762 821 q 679 703 720 736 q 579 641 650 679 l 564 667 m 253 666 q 340 728 321 703 q 359 775 359 752 q 355 799 359 789 q 337 822 353 804 q 319 846 322 840 q 314 869 314 857 q 334 920 314 899 q 382 941 355 941 q 432 919 412 941 q 452 861 452 898 q 267 642 452 727 l 253 666 z "},"‘":{"ha":463,"x_min":294,"x_max":493,"o":"m 493 920 q 414 866 441 897 q 386 810 386 834 q 390 787 386 797 q 408 765 392 781 q 427 743 425 749 q 432 716 432 731 q 412 665 432 686 q 365 644 391 644 q 316 667 337 644 q 294 723 294 689 q 342 845 294 783 q 479 941 389 907 l 493 920 z "},"’":{"ha":463,"x_min":272,"x_max":471,"o":"m 272 666 q 355 724 323 688 q 379 776 379 751 q 375 799 379 789 q 356 821 372 804 q 338 843 340 837 q 333 869 333 854 q 353 920 333 899 q 400 941 373 941 q 449 918 428 941 q 471 862 471 896 q 423 740 471 802 q 286 644 376 678 l 272 666 z "},"÷":{"ha":762,"x_min":16,"x_max":747,"o":"m 381 729 q 423 712 406 729 q 440 670 440 694 q 423 628 440 646 q 380 611 406 611 q 339 628 356 611 q 321 670 321 646 q 339 712 321 694 q 381 729 356 729 m 747 434 l 16 434 l 16 490 l 747 490 l 747 434 m 381 309 q 424 291 406 309 q 441 249 441 273 q 423 207 441 224 q 381 189 406 189 q 339 207 357 189 q 321 249 321 224 q 339 291 321 273 q 381 309 356 309 z "},"◊":{"ha":686,"x_min":32,"x_max":656,"o":"m 372 964 l 656 481 l 372 0 l 297 0 l 32 481 l 297 964 l 372 964 m 336 899 l 105 481 l 336 64 l 579 481 l 336 899 z "},"ÿ":{"ha":616,"x_min":-109,"x_max":625,"o":"m 224 614 q 256 540 248 574 q 274 406 265 506 l 304 72 q 422 227 345 121 q 514 367 459 278 q 555 443 547 421 q 559 465 559 454 q 554 477 559 473 q 529 489 549 482 q 496 512 509 495 q 483 552 483 530 q 499 597 483 580 q 540 614 515 614 q 591 589 570 614 q 612 521 612 564 q 575 398 612 467 q 434 187 538 330 q 181 -123 330 45 q 29 -270 79 -239 q -56 -300 -20 -300 q -93 -284 -77 -300 q -109 -247 -109 -268 q -86 -199 -109 -220 q -39 -177 -64 -177 q -16 -183 -25 -177 q -4 -202 -11 -186 q 7 -224 2 -218 q 16 -227 11 -227 q 30 -220 20 -227 q 117 -147 67 -197 q 213 -39 182 -81 l 175 391 q 146 521 165 498 q 83 544 127 544 q 32 540 68 544 l 26 565 l 224 614 m 553 909 q 604 887 583 909 q 625 836 625 866 q 604 784 625 806 q 553 763 583 763 q 502 784 523 763 q 480 836 480 806 q 501 887 480 866 q 553 909 522 909 m 311 909 q 363 887 342 909 q 385 836 385 866 q 363 784 385 806 q 311 763 342 763 q 260 784 281 763 q 239 836 239 806 q 260 887 239 866 q 311 909 281 909 z "},"Ÿ":{"ha":772,"x_min":125,"x_max":926,"o":"m 486 489 l 661 734 q 728 856 728 829 q 714 881 728 871 q 631 895 699 890 l 637 920 l 926 920 l 921 895 q 863 883 879 889 q 815 851 839 873 q 723 739 783 823 l 498 429 l 430 201 q 405 83 405 116 q 413 52 405 62 q 440 34 420 41 q 519 25 466 26 l 512 0 l 125 0 l 133 25 q 210 35 191 26 q 255 67 240 47 q 302 179 278 98 l 383 448 l 285 765 q 236 869 258 849 q 159 895 214 890 l 166 920 l 506 920 l 498 895 q 425 886 434 890 q 401 867 410 882 q 391 834 391 853 q 411 739 391 806 l 486 489 m 703 1161 q 754 1140 733 1161 q 775 1088 775 1118 q 754 1037 775 1058 q 703 1015 733 1015 q 651 1037 673 1015 q 630 1088 630 1058 q 651 1140 630 1118 q 703 1161 672 1161 m 461 1161 q 513 1140 492 1161 q 534 1088 534 1118 q 513 1037 534 1058 q 461 1015 492 1015 q 410 1037 431 1015 q 389 1088 389 1058 q 410 1140 389 1118 q 461 1161 431 1161 z "},"⁄":{"ha":232,"x_min":-231,"x_max":463,"o":"m 463 939 l -171 -37 l -231 -37 l 403 939 l 463 939 z "},"∕":{"ha":232,"x_min":-231,"x_max":463,"o":"m 463 939 l -171 -37 l -231 -37 l 403 939 l 463 939 z "},"€":{"ha":694,"x_min":12,"x_max":814,"o":"m 604 500 l 239 500 q 220 444 229 471 l 588 444 l 573 391 l 207 391 q 186 236 186 308 q 326 41 186 41 q 492 87 417 41 q 615 193 536 115 l 632 180 q 488 48 547 87 q 283 -16 392 -16 q 58 242 58 -16 q 75 391 58 311 l 12 391 l 26 444 l 87 444 l 91 454 q 105 500 96 475 l 43 500 l 58 553 l 126 553 q 312 818 195 713 q 602 939 446 939 q 814 879 718 939 l 757 676 l 730 676 q 738 747 738 715 q 589 894 738 894 q 387 781 481 894 q 258 553 313 692 l 618 553 l 604 500 z "},"‹":{"ha":463,"x_min":79,"x_max":433,"o":"m 433 624 l 201 300 l 277 -21 l 248 -21 l 79 300 l 395 624 l 433 624 z "},"›":{"ha":463,"x_min":31,"x_max":385,"o":"m 31 -21 l 262 303 l 187 624 l 216 624 l 385 303 l 68 -21 l 31 -21 z "},"ﬁ":{"ha":694,"x_min":-262,"x_max":694,"o":"m 277 554 l 203 255 q 120 -7 165 106 q 19 -185 75 -121 q -92 -281 -36 -250 q -167 -300 -128 -300 q -240 -275 -210 -300 q -262 -233 -262 -257 q -244 -195 -262 -212 q -201 -178 -227 -178 q -172 -190 -184 -178 q -159 -215 -159 -201 q -171 -240 -159 -229 q -186 -258 -183 -252 l -184 -262 q -175 -269 -182 -266 q -161 -271 -168 -271 q -84 -241 -117 -271 q 5 -96 -28 -191 q 100 267 11 -79 l 173 554 l 52 554 l 64 597 l 90 597 q 165 615 135 597 q 200 660 183 627 q 308 850 273 804 q 408 930 343 897 q 549 964 473 964 q 659 937 624 964 q 694 869 694 909 q 679 825 694 842 q 640 809 663 809 q 600 824 617 809 q 587 854 587 836 q 599 884 587 869 q 611 905 611 900 q 600 922 611 914 q 555 933 584 933 q 448 899 501 933 q 362 808 395 865 q 289 597 330 751 l 467 597 q 568 601 541 597 q 631 614 596 604 l 650 614 l 514 135 q 502 77 502 94 q 508 65 502 71 q 519 59 513 59 q 547 70 532 59 q 625 154 577 91 l 650 135 q 529 10 589 50 q 454 -16 488 -16 q 407 0 425 -16 q 389 40 389 16 q 406 120 389 63 l 503 458 q 517 524 517 508 q 513 537 517 532 q 492 551 505 547 q 441 554 483 554 l 277 554 z "},"ﬂ":{"ha":694,"x_min":-262,"x_max":764,"o":"m 540 554 l 283 554 l 207 254 q 30 -178 127 -57 q -170 -300 -67 -300 q -238 -280 -214 -300 q -262 -235 -262 -260 q -245 -193 -262 -210 q -202 -176 -227 -176 q -169 -188 -182 -176 q -156 -214 -156 -200 q -171 -240 -156 -227 q -180 -251 -178 -248 l -182 -255 q -176 -264 -182 -260 q -158 -270 -169 -270 q -85 -243 -116 -270 q 5 -96 -30 -193 q 105 269 32 -24 l 177 554 l 56 554 l 69 597 l 97 597 q 170 609 149 597 q 208 657 190 621 q 372 900 292 836 q 555 964 451 964 q 604 959 583 964 q 659 937 625 954 q 702 944 688 939 q 736 964 716 949 l 764 964 l 520 136 q 509 81 509 98 q 515 67 509 73 q 528 61 520 61 q 557 73 541 61 q 633 154 593 98 l 659 136 q 537 10 595 48 q 462 -16 496 -16 q 415 0 433 -16 q 398 43 398 17 q 413 121 398 70 l 540 554 m 553 597 l 616 817 q 600 851 600 834 q 613 882 600 865 q 627 905 627 899 q 616 920 627 913 q 565 930 600 930 q 456 899 509 930 q 372 811 404 867 q 295 597 340 755 l 553 597 z "},"‡":{"ha":694,"x_min":-20,"x_max":700,"o":"m 469 515 q 372 383 410 467 q 334 222 334 300 q 348 149 334 193 q 250 0 281 93 q 359 20 311 3 q 432 37 407 37 q 469 22 453 37 q 484 -14 484 7 q 469 -49 484 -35 q 434 -64 454 -64 q 351 -41 410 -64 q 241 -21 307 -24 q 225 -153 227 -85 q 202 -271 223 -242 q 153 -300 180 -300 q 121 -284 136 -300 q 106 -248 106 -268 q 149 -141 106 -206 q 213 -21 192 -75 q 99 -47 155 -27 q 31 -62 58 -62 q -4 -47 11 -62 q -20 -14 -20 -33 q -4 22 -20 6 q 31 38 12 38 q 109 20 57 38 q 223 0 161 1 q 233 64 233 40 q 206 149 233 107 q 306 279 268 196 q 344 444 344 363 q 330 515 344 474 q 384 570 363 541 q 429 665 404 600 q 323 644 374 661 q 244 627 272 627 q 209 643 224 627 q 193 679 193 659 q 209 714 193 699 q 247 729 225 729 q 325 709 273 729 q 437 688 378 690 q 454 827 454 749 q 476 935 454 906 q 526 964 498 964 q 558 949 543 964 q 572 916 572 935 q 529 806 572 869 q 463 688 486 742 q 569 710 519 692 q 646 727 618 727 q 683 711 667 727 q 700 676 700 695 q 684 642 700 657 q 646 627 668 627 q 566 645 619 627 q 456 665 512 663 q 445 591 445 619 q 469 515 445 556 z "},"·":{"ha":347,"x_min":142,"x_max":293,"o":"m 218 535 q 271 513 250 535 q 293 460 293 491 q 271 407 293 429 q 218 385 249 385 q 164 407 186 385 q 142 460 142 429 q 164 513 142 491 q 218 535 186 535 z "},"∙":{"ha":347,"x_min":142,"x_max":293,"o":"m 218 535 q 271 513 250 535 q 293 460 293 491 q 271 407 293 429 q 218 385 249 385 q 164 407 186 385 q 142 460 142 429 q 164 513 142 491 q 218 535 186 535 z "},"‚":{"ha":463,"x_min":44,"x_max":243,"o":"m 44 -153 q 127 -94 95 -130 q 151 -42 151 -67 q 147 -20 151 -30 q 128 2 144 -14 q 110 24 112 18 q 105 51 105 36 q 125 101 105 80 q 172 122 145 122 q 221 100 200 122 q 243 43 243 77 q 195 -79 243 -17 q 58 -174 148 -140 l 44 -153 z "},"„":{"ha":772,"x_min":20,"x_max":530,"o":"m 332 -152 q 419 -90 382 -132 q 437 -41 437 -69 q 433 -19 437 -28 q 417 3 432 -14 q 397 29 401 21 q 392 53 392 41 q 413 102 392 81 q 462 123 433 123 q 510 101 490 123 q 530 43 530 79 q 509 -40 530 2 q 447 -116 488 -81 q 347 -178 418 -140 l 332 -152 m 20 -153 q 108 -91 89 -115 q 127 -43 127 -66 q 122 -19 127 -30 q 105 3 120 -14 q 86 28 90 21 q 81 51 81 39 q 102 101 81 80 q 150 123 122 123 q 199 101 179 123 q 219 42 219 79 q 34 -177 219 -92 l 20 -153 z "},"‰":{"ha":1389,"x_min":86,"x_max":1370,"o":"m 899 941 l 145 -37 l 86 -37 l 842 941 l 899 941 m 354 941 q 464 888 416 941 q 512 755 512 836 q 430 539 512 630 q 252 448 347 448 q 136 498 181 448 q 90 629 90 548 q 131 784 90 709 q 236 900 171 859 q 354 941 300 941 m 358 912 q 302 888 327 912 q 214 742 252 841 q 176 555 176 642 q 196 496 176 518 q 242 473 216 473 q 297 494 275 473 q 384 639 344 536 q 425 831 425 742 q 404 889 425 867 q 358 912 383 912 m 734 454 q 849 404 802 454 q 897 271 897 353 q 814 54 897 145 q 639 -37 731 -37 q 522 14 570 -37 q 474 143 474 64 q 558 361 474 269 q 734 454 642 454 m 743 427 q 683 401 710 427 q 599 255 636 357 q 562 73 562 153 q 581 12 562 34 q 627 -9 600 -9 q 684 12 661 -9 q 771 155 731 55 q 810 338 810 255 q 790 403 810 380 q 743 427 770 427 m 1211 454 q 1324 404 1278 454 q 1370 268 1370 353 q 1330 115 1370 188 q 1230 3 1290 42 q 1112 -37 1170 -37 q 997 14 1044 -37 q 949 145 949 65 q 1034 361 949 269 q 1211 454 1118 454 m 1219 426 q 1160 404 1185 426 q 1076 261 1116 363 q 1036 70 1036 159 q 1057 13 1036 35 q 1105 -9 1077 -9 q 1156 8 1136 -9 q 1242 151 1199 48 q 1286 339 1286 254 q 1263 406 1286 378 q 1219 426 1246 426 z "},"Â":{"ha":848,"x_min":-68,"x_max":862,"o":"m 715 941 l 646 176 q 640 105 640 122 q 650 64 640 78 q 685 35 663 44 q 760 25 707 25 l 752 0 l 390 0 l 397 25 l 413 25 q 485 44 457 25 q 515 87 505 57 q 530 186 523 108 l 541 302 l 277 302 l 184 176 q 144 114 152 133 q 136 79 136 96 q 153 42 136 58 q 212 25 171 26 l 204 0 l -68 0 l -60 25 q 28 59 -10 27 q 142 193 66 90 l 692 941 l 715 941 m 581 715 l 315 352 l 546 352 l 581 715 m 811 1199 l 862 985 l 848 985 l 733 1122 l 517 985 l 498 985 l 709 1199 l 811 1199 z "},"Ê":{"ha":848,"x_min":-31,"x_max":878,"o":"m 450 870 l 345 507 l 431 507 q 564 535 523 507 q 635 639 606 563 l 661 639 l 566 305 l 539 305 q 551 377 551 347 q 539 424 551 406 q 507 450 528 441 q 420 458 486 458 l 332 458 l 243 154 q 231 87 231 110 q 248 56 231 69 q 305 46 259 46 l 387 46 q 598 93 519 46 q 741 256 678 140 l 766 256 l 680 0 l -31 0 l -22 25 q 49 35 31 26 q 88 66 76 47 q 132 182 106 94 l 293 737 q 312 840 312 804 q 294 880 312 865 q 224 895 276 895 l 210 895 l 218 920 l 878 920 l 821 698 l 796 698 q 801 750 801 729 q 783 810 801 786 q 716 858 760 842 q 566 870 684 870 l 450 870 m 713 1199 l 764 985 l 749 985 l 635 1122 l 418 985 l 400 985 l 611 1199 l 713 1199 z "},"Á":{"ha":848,"x_min":-68,"x_max":859,"o":"m 715 941 l 646 176 q 640 105 640 122 q 650 64 640 78 q 685 35 663 44 q 760 25 707 25 l 752 0 l 390 0 l 397 25 l 413 25 q 485 44 457 25 q 515 87 505 57 q 530 186 523 108 l 541 302 l 277 302 l 184 176 q 144 114 152 133 q 136 79 136 96 q 153 42 136 58 q 212 25 171 26 l 204 0 l -68 0 l -60 25 q 28 59 -10 27 q 142 193 66 90 l 692 941 l 715 941 m 581 715 l 315 352 l 546 352 l 581 715 m 859 1222 l 659 989 l 636 989 l 706 1222 l 859 1222 z "},"Ë":{"ha":848,"x_min":-31,"x_max":878,"o":"m 450 870 l 345 507 l 431 507 q 564 535 523 507 q 635 639 606 563 l 661 639 l 566 305 l 539 305 q 551 377 551 347 q 539 424 551 406 q 507 450 528 441 q 420 458 486 458 l 332 458 l 243 154 q 231 87 231 110 q 248 56 231 69 q 305 46 259 46 l 387 46 q 598 93 519 46 q 741 256 678 140 l 766 256 l 680 0 l -31 0 l -22 25 q 49 35 31 26 q 88 66 76 47 q 132 182 106 94 l 293 737 q 312 840 312 804 q 294 880 312 865 q 224 895 276 895 l 210 895 l 218 920 l 878 920 l 821 698 l 796 698 q 801 750 801 729 q 783 810 801 786 q 716 858 760 842 q 566 870 684 870 l 450 870 m 724 1161 q 775 1140 754 1161 q 796 1088 796 1118 q 775 1037 796 1058 q 724 1015 754 1015 q 672 1037 694 1015 q 651 1088 651 1058 q 672 1140 651 1118 q 724 1161 693 1161 m 482 1161 q 534 1140 513 1161 q 555 1088 555 1118 q 534 1037 555 1058 q 482 1015 513 1015 q 431 1037 452 1015 q 410 1088 410 1058 q 431 1140 410 1118 q 482 1161 452 1161 z "},"È":{"ha":848,"x_min":-31,"x_max":878,"o":"m 450 870 l 345 507 l 431 507 q 564 535 523 507 q 635 639 606 563 l 661 639 l 566 305 l 539 305 q 551 377 551 347 q 539 424 551 406 q 507 450 528 441 q 420 458 486 458 l 332 458 l 243 154 q 231 87 231 110 q 248 56 231 69 q 305 46 259 46 l 387 46 q 598 93 519 46 q 741 256 678 140 l 766 256 l 680 0 l -31 0 l -22 25 q 49 35 31 26 q 88 66 76 47 q 132 182 106 94 l 293 737 q 312 840 312 804 q 294 880 312 865 q 224 895 276 895 l 210 895 l 218 920 l 878 920 l 821 698 l 796 698 q 801 750 801 729 q 783 810 801 786 q 716 858 760 842 q 566 870 684 870 l 450 870 m 606 1222 l 680 989 l 658 989 l 456 1222 l 606 1222 z "},"Í":{"ha":463,"x_min":-43,"x_max":570,"o":"m 342 25 l 335 0 l -43 0 l -34 25 q 41 35 23 26 q 85 66 71 46 q 132 180 108 98 l 292 735 q 312 840 312 804 q 303 869 312 857 q 276 888 294 882 q 206 895 258 895 l 214 920 l 570 920 l 562 895 q 498 885 519 895 q 451 846 467 871 q 410 735 435 821 l 251 180 q 229 83 229 104 q 238 54 229 66 q 265 36 246 42 q 342 25 283 29 m 565 1222 l 366 989 l 342 989 l 412 1222 l 565 1222 z "},"Î":{"ha":463,"x_min":-43,"x_max":585,"o":"m 342 25 l 335 0 l -43 0 l -34 25 q 41 35 23 26 q 85 66 71 46 q 132 180 108 98 l 292 735 q 312 840 312 804 q 303 869 312 857 q 276 888 294 882 q 206 895 258 895 l 214 920 l 570 920 l 562 895 q 498 885 519 895 q 451 846 467 871 q 410 735 435 821 l 251 180 q 229 83 229 104 q 238 54 229 66 q 265 36 246 42 q 342 25 283 29 m 534 1199 l 585 985 l 570 985 l 456 1122 l 239 985 l 221 985 l 432 1199 l 534 1199 z "},"Ï":{"ha":463,"x_min":-43,"x_max":620,"o":"m 342 25 l 335 0 l -43 0 l -34 25 q 41 35 23 26 q 85 66 71 46 q 132 180 108 98 l 292 735 q 312 840 312 804 q 303 869 312 857 q 276 888 294 882 q 206 895 258 895 l 214 920 l 570 920 l 562 895 q 498 885 519 895 q 451 846 467 871 q 410 735 435 821 l 251 180 q 229 83 229 104 q 238 54 229 66 q 265 36 246 42 q 342 25 283 29 m 547 1161 q 599 1140 578 1161 q 620 1088 620 1118 q 599 1037 620 1058 q 547 1015 578 1015 q 496 1037 517 1015 q 475 1088 475 1058 q 496 1140 475 1118 q 547 1161 517 1161 m 306 1161 q 358 1140 336 1161 q 379 1088 379 1118 q 358 1037 379 1058 q 306 1015 336 1015 q 255 1037 276 1015 q 233 1088 233 1058 q 255 1140 233 1118 q 306 1161 276 1161 z "},"Ì":{"ha":463,"x_min":-43,"x_max":570,"o":"m 342 25 l 335 0 l -43 0 l -34 25 q 41 35 23 26 q 85 66 71 46 q 132 180 108 98 l 292 735 q 312 840 312 804 q 303 869 312 857 q 276 888 294 882 q 206 895 258 895 l 214 920 l 570 920 l 562 895 q 498 885 519 895 q 451 846 467 871 q 410 735 435 821 l 251 180 q 229 83 229 104 q 238 54 229 66 q 265 36 246 42 q 342 25 283 29 m 451 1222 l 525 989 l 503 989 l 301 1222 l 451 1222 z "},"Ó":{"ha":1003,"x_min":83,"x_max":997,"o":"m 684 941 q 846 901 776 941 q 957 784 917 861 q 997 623 997 706 q 911 312 997 475 q 687 64 825 150 q 401 -21 549 -21 q 223 26 294 -21 q 117 151 151 73 q 83 300 83 228 q 145 555 83 429 q 293 765 207 681 q 477 895 379 850 q 684 941 574 941 m 661 897 q 529 864 593 897 q 400 754 464 830 q 286 554 336 677 q 223 267 223 402 q 273 97 223 171 q 425 22 322 22 q 546 53 486 22 q 669 157 605 83 q 805 394 750 250 q 860 663 860 538 q 810 826 860 755 q 661 897 761 897 m 882 1222 l 682 989 l 659 989 l 729 1222 l 882 1222 z "},"Ô":{"ha":1003,"x_min":83,"x_max":997,"o":"m 684 941 q 846 901 776 941 q 957 784 917 861 q 997 623 997 706 q 911 312 997 475 q 687 64 825 150 q 401 -21 549 -21 q 223 26 294 -21 q 117 151 151 73 q 83 300 83 228 q 145 555 83 429 q 293 765 207 681 q 477 895 379 850 q 684 941 574 941 m 661 897 q 529 864 593 897 q 400 754 464 830 q 286 554 336 677 q 223 267 223 402 q 273 97 223 171 q 425 22 322 22 q 546 53 486 22 q 669 157 605 83 q 805 394 750 250 q 860 663 860 538 q 810 826 860 755 q 661 897 761 897 m 826 1199 l 877 985 l 863 985 l 748 1122 l 532 985 l 513 985 l 724 1199 l 826 1199 z "},"Ò":{"ha":1003,"x_min":83,"x_max":997,"o":"m 684 941 q 846 901 776 941 q 957 784 917 861 q 997 623 997 706 q 911 312 997 475 q 687 64 825 150 q 401 -21 549 -21 q 223 26 294 -21 q 117 151 151 73 q 83 300 83 228 q 145 555 83 429 q 293 765 207 681 q 477 895 379 850 q 684 941 574 941 m 661 897 q 529 864 593 897 q 400 754 464 830 q 286 554 336 677 q 223 267 223 402 q 273 97 223 171 q 425 22 322 22 q 546 53 486 22 q 669 157 605 83 q 805 394 750 250 q 860 663 860 538 q 810 826 860 755 q 661 897 761 897 m 751 1222 l 825 989 l 804 989 l 602 1222 l 751 1222 z "},"Ú":{"ha":1003,"x_min":148,"x_max":1131,"o":"m 182 920 l 570 920 l 563 895 q 478 883 503 893 q 434 848 452 873 q 397 755 416 823 l 302 430 q 273 316 277 343 q 264 235 264 273 q 326 97 264 153 q 489 40 387 40 q 609 65 556 40 q 700 137 662 91 q 768 261 737 182 q 823 419 800 339 l 905 700 q 935 837 935 805 q 915 875 935 859 q 831 895 894 891 l 838 920 l 1131 920 l 1123 895 q 1049 885 1072 895 q 1009 849 1026 875 q 971 751 992 824 l 871 410 q 781 164 823 243 q 657 32 738 85 q 456 -21 576 -21 q 233 57 317 -21 q 148 237 148 136 q 155 322 148 277 q 182 425 161 352 l 273 738 q 292 838 292 806 q 272 877 292 863 q 175 895 253 890 l 182 920 m 837 1222 l 637 989 l 614 989 l 684 1222 l 837 1222 z "},"Û":{"ha":1003,"x_min":148,"x_max":1131,"o":"m 182 920 l 570 920 l 563 895 q 478 883 503 893 q 434 848 452 873 q 397 755 416 823 l 302 430 q 273 316 277 343 q 264 235 264 273 q 326 97 264 153 q 489 40 387 40 q 609 65 556 40 q 700 137 662 91 q 768 261 737 182 q 823 419 800 339 l 905 700 q 935 837 935 805 q 915 875 935 859 q 831 895 894 891 l 838 920 l 1131 920 l 1123 895 q 1049 885 1072 895 q 1009 849 1026 875 q 971 751 992 824 l 871 410 q 781 164 823 243 q 657 32 738 85 q 456 -21 576 -21 q 233 57 317 -21 q 148 237 148 136 q 155 322 148 277 q 182 425 161 352 l 273 738 q 292 838 292 806 q 272 877 292 863 q 175 895 253 890 l 182 920 m 805 1199 l 856 985 l 842 985 l 727 1122 l 511 985 l 492 985 l 703 1199 l 805 1199 z "},"Ù":{"ha":1003,"x_min":148,"x_max":1131,"o":"m 182 920 l 570 920 l 563 895 q 478 883 503 893 q 434 848 452 873 q 397 755 416 823 l 302 430 q 273 316 277 343 q 264 235 264 273 q 326 97 264 153 q 489 40 387 40 q 609 65 556 40 q 700 137 662 91 q 768 261 737 182 q 823 419 800 339 l 905 700 q 935 837 935 805 q 915 875 935 859 q 831 895 894 891 l 838 920 l 1131 920 l 1123 895 q 1049 885 1072 895 q 1009 849 1026 875 q 971 751 992 824 l 871 410 q 781 164 823 243 q 657 32 738 85 q 456 -21 576 -21 q 233 57 317 -21 q 148 237 148 136 q 155 322 148 277 q 182 425 161 352 l 273 738 q 292 838 292 806 q 272 877 292 863 q 175 895 253 890 l 182 920 m 751 1222 l 825 989 l 803 989 l 601 1222 l 751 1222 z "},"ı":{"ha":386,"x_min":60,"x_max":319,"o":"m 319 614 l 185 138 q 172 81 172 90 q 178 63 172 70 q 193 56 184 56 q 218 67 203 56 q 296 154 256 98 l 319 138 q 211 20 273 68 q 123 -16 165 -16 q 77 0 95 -16 q 60 42 60 17 q 77 125 60 67 l 165 429 q 186 523 186 504 q 176 547 186 538 q 147 557 165 557 q 85 549 132 557 l 85 576 l 319 614 z "},"ˆ":{"ha":463,"x_min":172,"x_max":536,"o":"m 485 941 l 536 726 l 522 726 l 407 863 l 191 726 l 172 726 l 383 941 l 485 941 z "},"˜":{"ha":463,"x_min":134,"x_max":568,"o":"m 546 925 l 566 925 q 530 793 568 840 q 441 747 492 747 q 327 789 392 747 q 248 837 262 830 q 221 842 236 842 q 181 825 196 842 q 156 750 165 807 l 134 750 q 175 886 139 845 q 262 926 211 926 q 383 879 311 926 q 481 831 454 831 q 519 849 505 831 q 546 925 539 871 z "},"ˉ":{"ha":463,"x_min":167,"x_max":598,"o":"m 191 914 l 598 914 l 574 827 l 167 827 l 191 914 z "},"˘":{"ha":463,"x_min":199,"x_max":585,"o":"m 565 954 l 585 954 q 474 804 540 853 q 349 754 409 754 q 243 803 286 754 q 199 954 201 851 l 221 954 q 265 878 231 904 q 355 852 298 852 q 565 954 469 852 z "},"˙":{"ha":463,"x_min":304,"x_max":450,"o":"m 377 909 q 428 887 407 909 q 450 836 450 866 q 428 785 450 806 q 377 764 407 764 q 326 785 347 764 q 304 836 304 806 q 326 887 304 866 q 377 909 347 909 z "},"˚":{"ha":463,"x_min":258,"x_max":515,"o":"m 387 964 q 477 926 440 964 q 515 836 515 889 q 477 745 515 783 q 387 707 439 707 q 296 745 334 707 q 258 836 258 783 q 296 926 258 889 q 387 964 333 964 m 387 920 q 327 896 352 920 q 302 836 302 871 q 327 776 302 801 q 387 751 352 751 q 447 776 422 751 q 471 836 471 801 q 447 896 471 871 q 387 920 422 920 z "},"¸":{"ha":463,"x_min":-25,"x_max":229,"o":"m 176 20 l 146 -31 q 208 -66 186 -40 q 229 -130 229 -93 q 191 -208 229 -176 q 71 -251 140 -251 q -25 -236 33 -251 l -17 -214 q 41 -222 17 -222 q 109 -201 85 -222 q 133 -151 133 -180 q 119 -114 133 -126 q 62 -98 100 -98 l 136 20 l 176 20 z "},"˝":{"ha":463,"x_min":205,"x_max":626,"o":"m 430 951 l 228 718 l 205 718 l 277 951 l 430 951 m 626 951 l 421 718 l 399 718 l 473 951 l 626 951 z "},"˛":{"ha":463,"x_min":12,"x_max":283,"o":"m 283 41 l 232 -1 q 142 -93 174 -49 q 111 -176 111 -136 q 163 -228 111 -228 q 227 -210 193 -228 l 232 -230 q 94 -291 153 -291 q 23 -259 43 -291 q 12 -224 13 -243 l 12 -217 q 47 -127 12 -175 q 96 -75 69 -98 q 202 4 138 -37 l 259 41 l 283 41 z "},"ˇ":{"ha":463,"x_min":229,"x_max":593,"o":"m 280 726 l 229 941 l 243 941 l 358 804 l 574 941 l 593 941 l 382 726 l 280 726 z "},"Ł":{"ha":772,"x_min":-39,"x_max":727,"o":"m 636 0 l -39 0 l -31 25 q 40 35 26 28 q 80 67 66 47 q 124 180 99 95 l 178 363 l 14 247 l 37 323 l 201 441 l 288 739 q 307 835 307 805 q 286 877 307 862 q 201 895 266 892 l 210 920 l 582 920 l 574 895 q 486 881 511 892 q 444 842 460 869 q 404 731 431 823 l 352 550 l 543 686 l 522 608 l 328 470 l 245 180 q 226 93 226 111 q 244 63 226 78 q 298 52 257 52 l 385 52 q 567 91 504 52 q 685 233 630 130 l 701 263 l 727 263 l 636 0 z "},"ł":{"ha":386,"x_min":35,"x_max":417,"o":"m 417 964 l 290 537 l 402 608 l 387 552 l 277 482 l 182 156 q 163 85 163 91 q 169 67 163 74 q 184 60 176 60 q 216 75 195 60 q 290 156 250 99 l 311 141 q 196 14 256 54 q 113 -16 151 -16 q 70 1 87 -16 q 52 45 52 19 q 73 141 52 68 l 151 405 l 35 332 l 52 387 l 167 460 l 257 778 l 277 846 q 281 873 281 863 q 269 898 281 887 q 236 908 258 908 q 182 902 220 908 l 182 928 l 417 964 z "},"Š":{"ha":694,"x_min":9,"x_max":758,"o":"m 9 -21 l 85 320 l 109 320 q 104 238 104 271 q 163 87 104 145 q 318 28 222 28 q 453 83 407 28 q 499 209 499 138 q 478 293 499 255 q 308 491 446 349 q 222 592 241 559 q 191 707 191 647 q 262 872 191 804 q 447 941 334 941 q 519 933 485 941 q 595 906 540 929 q 639 889 635 890 q 660 887 648 887 q 694 897 680 887 q 727 941 708 907 l 753 941 l 682 635 l 659 635 q 662 701 662 676 q 608 836 662 783 q 465 888 553 888 q 350 846 394 888 q 306 751 306 805 q 334 660 306 703 q 464 520 362 617 q 595 368 565 422 q 625 252 625 313 q 588 116 625 182 q 481 15 551 51 q 330 -21 412 -21 q 254 -14 290 -21 q 142 23 219 -6 q 98 33 115 33 q 35 -21 58 33 l 9 -21 m 446 985 l 395 1199 l 409 1199 l 524 1062 l 740 1199 l 758 1199 l 547 985 l 446 985 z "},"š":{"ha":541,"x_min":-13,"x_max":572,"o":"m 504 614 l 463 406 l 437 406 q 399 538 434 496 q 311 579 363 579 q 244 556 269 579 q 220 500 220 533 q 230 458 220 478 q 273 401 239 437 q 387 256 361 304 q 412 163 412 207 q 354 38 412 93 q 205 -16 295 -16 q 93 7 157 -16 q 58 15 71 15 q 12 -16 28 15 l -13 -16 l 28 203 l 54 203 q 96 58 58 100 q 202 15 135 15 q 284 44 254 15 q 314 115 314 73 q 303 165 314 142 q 223 277 284 205 q 145 385 163 349 q 128 457 128 421 q 176 568 128 523 q 299 614 224 614 q 338 610 321 614 q 383 595 348 608 q 429 582 418 582 q 478 614 458 582 l 504 614 m 259 726 l 208 941 l 222 941 l 337 804 l 553 941 l 572 941 l 361 726 l 259 726 z "},"Ž":{"ha":772,"x_min":-3,"x_max":848,"o":"m 210 920 l 848 920 l 848 895 l 165 44 l 272 44 q 515 61 444 44 q 633 120 586 78 q 712 239 680 162 l 738 239 l 659 0 l -3 0 l -3 20 l 680 870 l 490 870 q 314 859 365 870 q 227 813 263 848 q 165 710 191 779 l 142 710 l 210 920 m 452 985 l 401 1199 l 416 1199 l 530 1062 l 747 1199 l 765 1199 l 554 985 l 452 985 z "},"ž":{"ha":541,"x_min":-39,"x_max":572,"o":"m 117 597 l 547 597 l 547 581 l 78 92 l 277 92 q 366 98 347 92 q 401 121 385 103 q 437 184 417 138 l 462 184 l 403 0 l -39 0 l -39 20 l 431 508 l 235 508 q 161 505 174 508 q 123 483 142 500 q 85 426 104 466 l 59 426 l 117 597 m 259 726 l 208 941 l 222 941 l 337 804 l 553 941 l 572 941 l 361 726 l 259 726 z "},"¦":{"ha":382,"x_min":109,"x_max":165,"o":"m 165 964 l 165 461 l 109 461 l 109 964 l 165 964 m 165 203 l 165 -300 l 109 -300 l 109 203 l 165 203 z "},"Ð":{"ha":1003,"x_min":-33,"x_max":988,"o":"m -33 0 l -26 22 q 30 28 22 26 q 68 47 49 33 q 92 76 82 58 q 129 180 106 102 l 211 459 l 90 459 l 105 509 l 225 509 l 292 738 q 312 832 312 806 q 291 876 312 859 q 207 893 271 892 l 214 920 l 512 920 q 790 877 701 920 q 933 741 879 834 q 988 545 988 648 q 957 371 988 456 q 887 234 925 285 q 781 132 848 184 q 594 31 690 61 q 354 0 498 0 l -33 0 m 451 870 l 346 509 l 597 509 l 583 459 l 332 459 l 251 180 q 228 83 228 100 q 235 64 228 74 q 254 50 242 54 q 311 45 271 45 q 510 66 418 45 q 661 132 602 88 q 793 304 743 195 q 843 550 843 413 q 765 792 843 711 q 538 872 687 872 q 451 870 503 872 z "},"ð":{"ha":694,"x_min":37,"x_max":669,"o":"m 472 800 l 323 720 l 304 753 l 455 834 q 391 941 425 896 l 410 962 q 501 859 463 910 l 650 941 l 669 906 l 525 829 q 616 635 587 726 q 645 448 645 545 q 586 207 645 318 q 433 40 527 96 q 247 -16 339 -16 q 98 45 159 -16 q 37 203 37 107 q 95 394 37 294 q 249 554 153 494 q 418 614 345 614 q 475 603 452 614 q 525 562 498 591 q 511 682 522 633 q 472 800 500 730 m 416 578 q 317 537 367 578 q 200 372 251 483 q 150 152 150 262 q 183 52 150 87 q 264 17 216 17 q 366 62 315 17 q 481 242 435 122 q 528 449 528 361 q 496 543 528 509 q 416 578 463 578 z "},"Ý":{"ha":772,"x_min":125,"x_max":926,"o":"m 486 489 l 661 734 q 728 856 728 829 q 714 881 728 871 q 631 895 699 890 l 637 920 l 926 920 l 921 895 q 863 883 879 889 q 815 851 839 873 q 723 739 783 823 l 498 429 l 430 201 q 405 83 405 116 q 413 52 405 62 q 440 34 420 41 q 519 25 466 26 l 512 0 l 125 0 l 133 25 q 210 35 191 26 q 255 67 240 47 q 302 179 278 98 l 383 448 l 285 765 q 236 869 258 849 q 159 895 214 890 l 166 920 l 506 920 l 498 895 q 425 886 434 890 q 401 867 410 882 q 391 834 391 853 q 411 739 391 806 l 486 489 m 749 1222 l 550 989 l 527 989 l 597 1222 l 749 1222 z "},"ý":{"ha":616,"x_min":-109,"x_max":612,"o":"m 224 614 q 256 540 248 574 q 274 406 265 506 l 304 72 q 422 227 345 121 q 514 367 459 278 q 555 443 547 421 q 559 465 559 454 q 554 477 559 473 q 529 489 549 482 q 496 512 509 495 q 483 552 483 530 q 499 597 483 580 q 540 614 515 614 q 591 589 570 614 q 612 521 612 564 q 575 398 612 467 q 434 187 538 330 q 181 -123 330 45 q 29 -270 79 -239 q -56 -300 -20 -300 q -93 -284 -77 -300 q -109 -247 -109 -268 q -86 -199 -109 -220 q -39 -177 -64 -177 q -16 -183 -25 -177 q -4 -202 -11 -186 q 7 -224 2 -218 q 16 -227 11 -227 q 30 -220 20 -227 q 117 -147 67 -197 q 213 -39 182 -81 l 175 391 q 146 521 165 498 q 83 544 127 544 q 32 540 68 544 l 26 565 l 224 614 m 587 951 l 388 718 l 365 718 l 435 951 l 587 951 z "},"Þ":{"ha":848,"x_min":-33,"x_max":841,"o":"m 260 207 l 253 180 q 231 83 231 103 q 240 53 231 66 q 270 33 250 41 q 336 25 290 25 l 330 0 l -33 0 l -27 25 q 45 34 26 26 q 87 66 74 47 q 130 178 106 94 l 292 737 q 313 833 313 808 q 304 863 313 850 q 273 885 294 877 q 210 892 252 892 l 218 920 l 577 920 l 571 892 q 491 879 517 892 q 448 835 465 865 q 406 711 434 812 l 555 711 q 680 700 641 711 q 797 625 752 679 q 841 495 841 571 q 773 325 841 401 q 627 228 705 250 q 355 207 548 207 l 260 207 m 273 252 l 370 252 q 624 318 550 252 q 697 503 697 384 q 642 637 697 596 q 524 665 605 665 l 391 665 l 273 252 z "},"þ":{"ha":694,"x_min":-153,"x_max":656,"o":"m 409 964 l 260 458 q 392 579 334 545 q 511 614 450 614 q 614 566 571 614 q 656 441 656 518 q 535 138 656 292 q 252 -16 414 -16 q 134 18 192 -16 l 84 -157 q 69 -225 69 -209 q 77 -251 69 -241 q 102 -267 85 -261 q 172 -273 120 -273 l 166 -300 l -153 -300 l -146 -273 q -62 -251 -84 -271 q -15 -145 -40 -232 l 258 800 q 274 870 274 856 q 263 899 274 888 q 231 909 252 909 q 176 903 212 909 l 176 930 l 409 964 m 149 71 q 262 21 191 21 q 374 69 313 21 q 488 227 435 117 q 541 443 541 336 q 516 526 541 497 q 458 555 491 555 q 336 495 399 555 q 208 274 249 412 l 149 71 z "},"−":{"ha":937,"x_min":25,"x_max":756,"o":"m 756 434 l 25 434 l 25 490 l 756 490 l 756 434 z "},"×":{"ha":937,"x_min":112,"x_max":669,"o":"m 112 222 l 351 462 l 113 701 l 152 740 l 391 501 l 629 740 l 667 701 l 429 463 l 669 222 l 630 183 l 390 423 l 151 184 l 112 222 z "},"¹":{"ha":416,"x_min":111,"x_max":422,"o":"m 422 939 l 292 541 q 281 495 281 509 q 288 478 281 483 q 321 471 296 471 q 340 470 328 471 l 334 449 l 111 449 l 120 470 q 179 480 168 471 q 214 547 197 494 l 307 826 q 317 868 317 856 q 312 882 317 878 q 296 887 307 887 q 258 882 287 887 l 250 903 l 422 939 z "},"²":{"ha":416,"x_min":75,"x_max":463,"o":"m 360 449 l 75 449 l 75 467 q 350 715 286 626 q 379 797 379 754 q 357 853 379 831 q 297 876 334 876 q 205 826 243 876 l 179 837 q 241 911 200 884 q 333 939 283 939 q 427 905 391 939 q 463 825 463 871 q 452 776 463 802 q 403 705 441 749 q 301 608 364 661 l 178 508 l 298 508 q 376 551 358 508 l 409 551 l 360 449 z "},"³":{"ha":416,"x_min":90,"x_max":450,"o":"m 188 706 l 188 724 q 336 774 290 736 q 366 831 366 798 q 349 874 366 858 q 306 891 332 891 q 231 842 266 891 l 202 849 q 336 939 248 939 q 420 911 389 939 q 450 847 450 884 q 428 791 450 817 q 337 734 399 757 q 413 623 413 697 q 350 497 413 553 q 191 440 288 440 q 107 458 136 440 q 90 484 90 470 q 101 508 90 498 q 134 518 113 518 q 184 503 153 518 q 255 481 229 481 q 300 508 279 481 q 328 591 328 543 q 293 671 328 640 q 188 706 258 703 z "},"½":{"ha":1042,"x_min":109,"x_max":956,"o":"m 868 939 l 234 -37 l 174 -37 l 808 939 l 868 939 m 421 939 l 290 541 q 279 495 279 509 q 286 478 279 483 q 320 471 295 471 q 339 470 327 471 l 332 449 l 109 449 l 119 470 q 178 480 166 471 q 213 547 195 494 l 306 826 q 316 868 316 856 q 311 882 316 878 q 295 887 305 887 q 257 882 286 887 l 248 903 l 421 939 m 852 -29 l 568 -29 l 568 -11 q 843 237 778 148 q 871 319 871 276 q 849 375 871 353 q 789 397 827 397 q 739 386 760 397 q 698 348 718 374 l 672 359 q 734 433 693 406 q 825 460 775 460 q 919 427 883 460 q 956 347 956 393 q 945 298 956 324 q 895 227 934 271 q 794 130 857 182 l 671 30 l 791 30 q 869 73 851 30 l 901 73 l 852 -29 z "},"¼":{"ha":1042,"x_min":109,"x_max":972,"o":"m 901 939 l 267 -37 l 206 -37 l 841 939 l 901 939 m 421 939 l 290 541 q 279 495 279 509 q 286 478 279 483 q 320 471 295 471 q 339 470 327 471 l 332 449 l 109 449 l 119 470 q 178 480 166 471 q 213 547 195 494 l 306 826 q 316 868 316 856 q 311 882 316 878 q 295 887 305 887 q 257 882 286 887 l 248 903 l 421 939 m 972 450 l 863 138 l 933 138 l 916 88 l 850 88 l 808 -37 l 737 -37 l 779 88 l 579 88 l 598 142 l 927 450 l 972 450 m 863 340 l 651 138 l 795 138 l 863 340 z "},"¾":{"ha":1042,"x_min":88,"x_max":972,"o":"m 186 706 l 186 724 q 335 774 288 736 q 365 831 365 798 q 348 874 365 858 q 304 891 331 891 q 229 842 264 891 l 201 849 q 335 939 246 939 q 418 911 388 939 q 449 847 449 884 q 427 791 449 817 q 336 734 397 757 q 412 623 412 697 q 349 497 412 553 q 189 440 286 440 q 106 458 134 440 q 88 484 88 470 q 100 508 88 498 q 132 518 112 518 q 183 503 152 518 q 254 481 228 481 q 298 508 278 481 q 326 591 326 543 q 292 671 326 640 q 186 706 257 703 m 892 939 l 259 -37 l 198 -37 l 833 939 l 892 939 m 972 450 l 863 138 l 933 138 l 916 88 l 850 88 l 808 -37 l 737 -37 l 779 88 l 579 88 l 598 142 l 927 450 l 972 450 m 863 340 l 651 138 l 795 138 l 863 340 z "},"₣":{"ha":694,"x_min":-34,"x_max":769,"o":"m 264 231 l 432 231 l 418 182 l 250 182 q 228 83 228 104 q 247 43 228 57 q 338 25 265 30 l 330 0 l -34 0 l -25 25 q 52 36 29 26 q 86 66 74 46 q 130 182 105 98 l 15 182 l 28 231 l 144 231 l 291 734 q 311 840 311 802 q 302 870 311 857 q 276 888 293 882 q 207 895 258 895 l 215 920 l 769 920 l 702 687 l 675 687 q 683 756 683 729 q 664 821 683 795 q 606 861 645 846 q 452 871 576 871 l 343 507 l 382 507 q 504 532 463 507 q 587 639 545 557 l 613 639 l 517 304 l 490 304 q 500 371 500 345 q 472 435 500 412 q 370 458 445 458 l 330 458 l 264 231 z "},"Ğ":{"ha":1003,"x_min":96,"x_max":1006,"o":"m 1000 941 l 931 651 l 905 651 q 911 726 911 702 q 853 844 911 793 q 691 895 794 895 q 347 697 480 895 q 240 347 240 541 q 306 124 240 218 q 509 31 372 31 q 573 37 543 31 q 664 64 603 43 l 731 300 q 745 378 745 349 q 728 416 745 403 q 635 435 699 435 l 616 435 l 624 462 l 1006 462 l 1000 435 q 924 423 947 435 q 883 384 900 412 q 846 277 871 366 l 778 45 q 628 -8 685 5 q 508 -22 571 -22 q 273 33 363 -22 q 139 177 182 87 q 96 356 96 267 q 146 583 96 475 q 272 765 197 690 q 435 882 347 839 q 690 941 556 941 q 867 908 788 941 q 914 895 899 895 q 943 903 931 895 q 974 941 955 911 l 1000 941 m 939 1199 l 959 1199 q 848 1049 913 1099 q 723 1000 783 1000 q 617 1048 659 1000 q 573 1199 575 1097 l 595 1199 q 638 1123 605 1149 q 728 1097 672 1097 q 939 1199 843 1097 z "},"ğ":{"ha":694,"x_min":-37,"x_max":724,"o":"m 724 572 l 704 501 l 591 501 q 604 433 604 465 q 528 273 604 343 q 317 196 451 203 q 210 144 245 174 q 196 122 196 134 q 208 97 196 109 q 270 75 220 86 l 401 44 q 546 -17 511 18 q 581 -100 581 -53 q 539 -201 581 -155 q 419 -274 498 -248 q 245 -300 340 -300 q 92 -280 161 -300 q -7 -226 22 -260 q -37 -156 -37 -192 q -18 -95 -37 -127 q 31 -43 1 -64 q 134 18 49 -31 q 103 71 103 42 q 131 129 103 98 q 247 196 158 159 q 129 258 172 210 q 85 366 85 307 q 169 538 85 462 q 394 614 254 614 q 477 604 445 614 q 541 572 510 593 l 724 572 m 488 465 q 458 551 488 519 q 379 582 428 582 q 253 505 302 582 q 203 345 203 428 q 235 259 203 292 q 312 226 267 226 q 381 245 348 226 q 438 300 415 265 q 475 388 461 334 q 488 465 488 441 m 163 0 q 80 -64 109 -25 q 52 -142 52 -104 q 93 -216 52 -186 q 264 -258 151 -258 q 430 -225 361 -258 q 498 -140 498 -192 q 473 -90 498 -113 q 374 -51 448 -66 q 163 0 334 -43 m 648 954 l 669 954 q 558 804 623 853 q 433 754 492 754 q 327 803 369 754 q 283 954 285 851 l 304 954 q 348 878 315 904 q 438 852 382 852 q 648 954 553 852 z "},"İ":{"ha":463,"x_min":-43,"x_max":570,"o":"m 342 25 l 335 0 l -43 0 l -34 25 q 41 35 23 26 q 85 66 71 46 q 132 180 108 98 l 292 735 q 312 840 312 804 q 303 869 312 857 q 276 888 294 882 q 206 895 258 895 l 214 920 l 570 920 l 562 895 q 498 885 519 895 q 451 846 467 871 q 410 735 435 821 l 251 180 q 229 83 229 104 q 238 54 229 66 q 265 36 246 42 q 342 25 283 29 m 465 1167 q 516 1146 494 1167 q 537 1095 537 1124 q 516 1043 537 1065 q 465 1022 494 1022 q 413 1043 435 1022 q 392 1095 392 1065 q 413 1146 392 1124 q 465 1167 434 1167 z "},"Ş":{"ha":694,"x_min":9,"x_max":753,"o":"m 9 -21 l 85 320 l 109 320 q 104 238 104 271 q 163 87 104 145 q 318 28 222 28 q 453 83 407 28 q 499 209 499 138 q 478 293 499 255 q 308 491 446 349 q 222 592 241 559 q 191 707 191 647 q 262 872 191 804 q 447 941 334 941 q 519 933 485 941 q 595 906 540 929 q 639 889 635 890 q 660 887 648 887 q 694 897 680 887 q 727 941 708 907 l 753 941 l 682 635 l 659 635 q 662 701 662 676 q 608 836 662 783 q 465 888 553 888 q 350 846 394 888 q 306 751 306 805 q 334 660 306 703 q 464 520 362 617 q 595 368 565 422 q 625 252 625 313 q 588 116 625 182 q 481 15 551 51 q 330 -21 412 -21 q 254 -14 290 -21 q 142 23 219 -6 q 98 33 115 33 q 35 -21 58 33 l 9 -21 m 355 20 l 324 -31 q 386 -66 364 -40 q 408 -130 408 -93 q 370 -208 408 -176 q 249 -251 318 -251 q 153 -236 212 -251 l 161 -214 q 220 -222 195 -222 q 287 -201 263 -222 q 311 -151 311 -180 q 297 -114 311 -126 q 240 -98 278 -98 l 315 20 l 355 20 z "},"ş":{"ha":541,"x_min":-13,"x_max":504,"o":"m 504 614 l 463 406 l 437 406 q 399 538 434 496 q 311 579 363 579 q 244 556 269 579 q 220 500 220 533 q 230 458 220 478 q 273 401 239 437 q 387 256 361 304 q 412 163 412 207 q 354 38 412 93 q 205 -16 295 -16 q 93 7 157 -16 q 58 15 71 15 q 12 -16 28 15 l -13 -16 l 28 203 l 54 203 q 96 58 58 100 q 202 15 135 15 q 284 44 254 15 q 314 115 314 73 q 303 165 314 142 q 223 277 284 205 q 145 385 163 349 q 128 457 128 421 q 176 568 128 523 q 299 614 224 614 q 338 610 321 614 q 383 595 348 608 q 429 582 418 582 q 478 614 458 582 l 504 614 m 220 20 l 189 -31 q 251 -66 229 -40 q 273 -130 273 -93 q 235 -208 273 -176 q 114 -251 183 -251 q 18 -236 77 -251 l 26 -214 q 85 -222 60 -222 q 152 -201 128 -222 q 176 -151 176 -180 q 162 -114 176 -126 q 105 -98 143 -98 l 180 20 l 220 20 z "},"Ć":{"ha":926,"x_min":94,"x_max":977,"o":"m 977 941 l 909 643 l 884 643 l 882 718 q 866 790 878 758 q 829 845 854 822 q 768 882 805 869 q 685 895 730 895 q 473 829 564 895 q 291 589 357 744 q 237 331 237 462 q 315 118 237 197 q 517 38 393 38 q 685 80 612 38 q 822 210 759 122 l 854 210 q 688 35 779 91 q 471 -21 597 -21 q 271 26 358 -21 q 139 159 184 73 q 94 342 94 244 q 174 635 94 493 q 396 859 255 778 q 680 941 536 941 q 830 909 747 941 q 883 895 867 895 q 911 902 899 895 q 952 941 924 909 l 977 941 m 854 1222 l 655 989 l 632 989 l 702 1222 l 854 1222 z "},"ć":{"ha":616,"x_min":41,"x_max":595,"o":"m 539 148 q 397 23 469 63 q 245 -16 325 -16 q 95 38 149 -16 q 41 184 41 92 q 99 388 41 288 q 255 551 157 488 q 447 614 353 614 q 557 583 521 614 q 594 507 594 552 q 568 435 594 465 q 522 412 549 412 q 487 426 500 412 q 473 460 473 439 q 478 484 473 473 q 499 510 483 494 q 518 532 515 525 q 522 546 522 538 q 509 570 522 560 q 453 583 489 583 q 321 536 387 583 q 210 404 256 490 q 155 195 155 299 q 194 85 155 125 q 301 45 233 45 q 405 71 353 45 q 519 165 456 97 l 539 148 m 595 951 l 396 718 l 373 718 l 443 951 l 595 951 z "},"Č":{"ha":926,"x_min":94,"x_max":977,"o":"m 977 941 l 909 643 l 884 643 l 882 718 q 866 790 878 758 q 829 845 854 822 q 768 882 805 869 q 685 895 730 895 q 473 829 564 895 q 291 589 357 744 q 237 331 237 462 q 315 118 237 197 q 517 38 393 38 q 685 80 612 38 q 822 210 759 122 l 854 210 q 688 35 779 91 q 471 -21 597 -21 q 271 26 358 -21 q 139 159 184 73 q 94 342 94 244 q 174 635 94 493 q 396 859 255 778 q 680 941 536 941 q 830 909 747 941 q 883 895 867 895 q 911 902 899 895 q 952 941 924 909 l 977 941 m 632 985 l 581 1199 l 595 1199 l 710 1062 l 926 1199 l 945 1199 l 734 985 l 632 985 z "},"č":{"ha":616,"x_min":41,"x_max":713,"o":"m 539 148 q 397 23 469 63 q 245 -16 325 -16 q 95 38 149 -16 q 41 184 41 92 q 99 388 41 288 q 255 551 157 488 q 447 614 353 614 q 557 583 521 614 q 594 507 594 552 q 568 435 594 465 q 522 412 549 412 q 487 426 500 412 q 473 460 473 439 q 478 484 473 473 q 499 510 483 494 q 518 532 515 525 q 522 546 522 538 q 509 570 522 560 q 453 583 489 583 q 321 536 387 583 q 210 404 256 490 q 155 195 155 299 q 194 85 155 125 q 301 45 233 45 q 405 71 353 45 q 519 165 456 97 l 539 148 m 400 726 l 349 941 l 363 941 l 478 804 l 694 941 l 713 941 l 502 726 l 400 726 z "},"đ":{"ha":694,"x_min":26,"x_max":816,"o":"m 699 784 l 816 784 l 804 728 l 683 728 l 518 164 q 499 79 499 99 q 505 66 499 72 q 517 60 511 60 q 538 68 526 60 q 615 150 561 85 l 638 136 q 539 26 589 68 q 446 -16 490 -16 q 408 0 423 -16 q 393 46 393 16 q 414 150 393 85 l 440 234 q 261 24 342 82 q 155 -16 205 -16 q 65 30 103 -16 q 26 154 26 75 q 91 370 26 255 q 261 556 155 484 q 414 614 345 614 q 477 599 451 614 q 530 549 504 584 l 581 728 l 334 728 l 347 784 l 596 784 q 618 870 618 859 q 606 892 618 884 q 570 905 591 905 q 518 901 555 905 l 518 926 l 751 964 l 699 784 m 500 483 q 475 553 500 526 q 411 579 450 579 q 233 438 326 579 q 140 168 140 297 q 163 91 140 117 q 216 64 185 64 q 393 216 287 64 q 500 483 500 369 z "},"¯":{"ha":694,"x_min":-12,"x_max":707,"o":"m 707 991 l -12 991 l -12 1048 l 707 1048 l 707 991 z "},"Ă":{"ha":848,"x_min":-68,"x_max":958,"o":"m 715 941 l 646 176 q 640 105 640 122 q 650 64 640 78 q 685 35 663 44 q 760 25 707 25 l 752 0 l 390 0 l 397 25 l 413 25 q 485 44 457 25 q 515 87 505 57 q 530 186 523 108 l 541 302 l 277 302 l 184 176 q 144 114 152 133 q 136 79 136 96 q 153 42 136 58 q 212 25 171 26 l 204 0 l -68 0 l -60 25 q 28 59 -10 27 q 142 193 66 90 l 692 941 l 715 941 m 581 715 l 315 352 l 546 352 l 581 715 m 937 1200 l 958 1200 q 847 1050 912 1099 q 722 1000 781 1000 q 616 1049 658 1000 q 572 1200 574 1097 l 593 1200 q 637 1124 604 1150 q 727 1098 671 1098 q 937 1200 842 1098 z "},"ă":{"ha":694,"x_min":33,"x_max":667,"o":"m 652 614 l 519 154 l 505 92 q 503 77 503 83 q 509 58 503 66 q 523 52 515 52 q 546 63 532 52 q 616 144 572 83 l 640 128 q 543 21 593 58 q 452 -16 494 -16 q 408 -2 422 -16 q 393 41 393 13 q 408 128 393 74 l 422 179 q 259 17 334 63 q 154 -16 205 -16 q 68 25 104 -16 q 33 138 33 66 q 97 365 33 245 q 262 557 162 485 q 409 614 340 614 q 478 592 450 614 q 519 520 505 570 l 544 597 l 652 614 m 410 578 q 318 538 367 578 q 195 367 249 480 q 141 162 141 254 q 164 89 141 116 q 217 62 187 62 q 378 172 291 62 q 494 469 494 317 q 471 553 494 527 q 410 578 449 578 m 647 954 l 667 954 q 556 804 622 853 q 431 754 491 754 q 326 803 368 754 q 281 954 283 851 l 303 954 q 347 878 313 904 q 437 852 380 852 q 647 954 551 852 z "},"Ą":{"ha":848,"x_min":-68,"x_max":760,"o":"m 715 941 l 646 176 q 640 105 640 122 q 650 64 640 78 q 685 35 663 44 q 760 25 707 25 l 752 0 l 390 0 l 397 25 l 413 25 q 485 44 457 25 q 515 87 505 57 q 530 186 523 108 l 541 302 l 277 302 l 184 176 q 144 114 152 133 q 136 79 136 96 q 153 42 136 58 q 212 25 171 26 l 204 0 l -68 0 l -60 25 q 28 59 -10 27 q 142 193 66 90 l 692 941 l 715 941 m 581 715 l 315 352 l 546 352 l 581 715 m 656 41 l 605 -1 q 515 -93 547 -49 q 484 -176 484 -136 q 536 -228 484 -228 q 600 -210 566 -228 l 605 -230 q 467 -291 526 -291 q 396 -259 416 -291 q 385 -224 386 -243 l 385 -217 q 420 -127 385 -175 q 469 -75 442 -98 q 575 4 511 -37 l 632 41 l 656 41 z "},"ą":{"ha":694,"x_min":33,"x_max":652,"o":"m 652 614 l 519 154 l 505 92 q 503 77 503 83 q 509 58 503 66 q 523 52 515 52 q 546 63 532 52 q 616 144 572 83 l 640 128 q 543 21 593 58 q 452 -16 494 -16 q 408 -2 422 -16 q 393 41 393 13 q 408 128 393 74 l 422 179 q 259 17 334 63 q 154 -16 205 -16 q 68 25 104 -16 q 33 138 33 66 q 97 365 33 245 q 262 557 162 485 q 409 614 340 614 q 478 592 450 614 q 519 520 505 570 l 544 597 l 652 614 m 410 578 q 318 538 367 578 q 195 367 249 480 q 141 162 141 254 q 164 89 141 116 q 217 62 187 62 q 378 172 291 62 q 494 469 494 317 q 471 553 494 527 q 410 578 449 578 m 561 41 l 510 -1 q 420 -93 452 -49 q 389 -176 389 -136 q 441 -228 389 -228 q 505 -210 471 -228 l 510 -230 q 372 -291 431 -291 q 301 -259 321 -291 q 290 -224 291 -243 l 290 -217 q 326 -127 290 -175 q 374 -75 347 -98 q 480 4 416 -37 l 537 41 l 561 41 z "},"Ď":{"ha":1003,"x_min":-41,"x_max":979,"o":"m 203 895 l 212 920 l 505 920 q 782 877 692 920 q 925 742 871 834 q 979 545 979 650 q 948 370 979 455 q 878 234 917 285 q 758 121 839 182 q 583 30 677 59 q 348 0 489 0 l -41 0 l -33 25 q 39 35 21 26 q 79 66 66 46 q 123 180 99 94 l 286 736 q 305 840 305 802 q 288 880 305 866 q 218 895 270 895 l 203 895 m 444 869 l 245 180 q 222 85 222 103 q 230 64 222 74 q 249 50 237 54 q 306 44 267 44 q 504 66 412 44 q 653 132 595 88 q 785 305 736 195 q 835 557 835 416 q 759 794 835 716 q 537 871 683 871 q 444 869 501 871 m 508 985 l 457 1199 l 471 1199 l 586 1062 l 802 1199 l 821 1199 l 610 985 l 508 985 z "},"ď":{"ha":845,"x_min":26,"x_max":967,"o":"m 768 690 q 852 748 820 712 q 876 800 876 775 q 871 823 876 812 q 853 844 869 828 q 834 867 837 861 q 829 893 829 878 q 850 943 829 922 q 897 964 870 964 q 946 942 924 964 q 967 886 967 920 q 920 764 967 825 q 782 668 872 702 l 768 690 m 751 964 l 518 164 q 499 79 499 99 q 505 66 499 72 q 517 60 511 60 q 538 68 526 60 q 615 150 561 85 l 638 136 q 539 26 589 68 q 446 -16 490 -16 q 408 0 423 -16 q 393 46 393 16 q 414 150 393 85 l 440 234 q 261 24 342 82 q 155 -16 205 -16 q 65 30 103 -16 q 26 154 26 75 q 91 370 26 255 q 261 556 155 484 q 414 614 345 614 q 477 599 451 614 q 530 549 504 584 l 596 785 q 616 870 616 857 q 606 894 616 884 q 570 905 592 905 q 518 901 554 905 l 518 926 l 751 964 m 500 483 q 475 553 500 526 q 411 579 450 579 q 233 438 326 579 q 140 168 140 297 q 163 91 140 117 q 216 64 185 64 q 393 216 287 64 q 500 483 500 369 z "},"Đ":{"ha":1003,"x_min":-33,"x_max":988,"o":"m -33 0 l -26 22 q 30 28 22 26 q 68 47 49 33 q 92 76 82 58 q 129 180 106 102 l 211 459 l 90 459 l 105 509 l 225 509 l 292 738 q 312 832 312 806 q 291 876 312 859 q 207 893 271 892 l 214 920 l 512 920 q 790 877 701 920 q 933 741 879 834 q 988 545 988 648 q 957 371 988 456 q 887 234 925 285 q 781 132 848 184 q 594 31 690 61 q 354 0 498 0 l -33 0 m 451 870 l 346 509 l 597 509 l 583 459 l 332 459 l 251 180 q 228 83 228 100 q 235 64 228 74 q 254 50 242 54 q 311 45 271 45 q 510 66 418 45 q 661 132 602 88 q 793 304 743 195 q 843 550 843 413 q 765 792 843 711 q 538 872 687 872 q 451 870 503 872 z "},"Ę":{"ha":848,"x_min":-31,"x_max":878,"o":"m 450 870 l 345 507 l 431 507 q 564 535 523 507 q 635 639 606 563 l 661 639 l 566 305 l 539 305 q 551 377 551 347 q 539 424 551 406 q 507 450 528 441 q 420 458 486 458 l 332 458 l 243 154 q 231 87 231 110 q 248 56 231 69 q 305 46 259 46 l 387 46 q 598 93 519 46 q 741 256 678 140 l 766 256 l 680 0 l -31 0 l -22 25 q 49 35 31 26 q 88 66 76 47 q 132 182 106 94 l 293 737 q 312 840 312 804 q 294 880 312 865 q 224 895 276 895 l 210 895 l 218 920 l 878 920 l 821 698 l 796 698 q 801 750 801 729 q 783 810 801 786 q 716 858 760 842 q 566 870 684 870 l 450 870 m 655 41 l 604 -1 q 515 -93 547 -49 q 483 -176 483 -136 q 536 -228 483 -228 q 600 -210 565 -228 l 604 -230 q 466 -291 526 -291 q 395 -259 416 -291 q 384 -224 385 -243 l 384 -217 q 420 -127 384 -175 q 468 -75 441 -98 q 574 4 511 -37 l 631 41 l 655 41 z "},"ę":{"ha":616,"x_min":43,"x_max":597,"o":"m 165 256 q 161 199 161 222 q 203 97 161 139 q 307 54 246 54 q 401 74 356 54 q 535 163 446 94 l 549 143 q 243 -16 389 -16 q 94 46 144 -16 q 43 184 43 109 q 106 391 43 285 q 262 555 168 496 q 456 614 357 614 q 563 585 528 614 q 597 515 597 555 q 553 408 597 459 q 379 299 494 340 q 165 256 303 271 m 170 289 q 334 328 271 300 q 459 417 417 366 q 500 516 500 469 q 483 562 500 545 q 431 580 465 580 q 284 506 362 580 q 170 289 207 433 m 391 41 l 340 -1 q 251 -93 283 -49 q 219 -176 219 -136 q 272 -228 219 -228 q 336 -210 301 -228 l 340 -230 q 202 -291 262 -291 q 132 -259 152 -291 q 120 -224 121 -243 l 120 -217 q 156 -127 120 -175 q 204 -75 178 -98 q 311 4 247 -37 l 368 41 l 391 41 z "},"Ě":{"ha":848,"x_min":-31,"x_max":878,"o":"m 450 870 l 345 507 l 431 507 q 564 535 523 507 q 635 639 606 563 l 661 639 l 566 305 l 539 305 q 551 377 551 347 q 539 424 551 406 q 507 450 528 441 q 420 458 486 458 l 332 458 l 243 154 q 231 87 231 110 q 248 56 231 69 q 305 46 259 46 l 387 46 q 598 93 519 46 q 741 256 678 140 l 766 256 l 680 0 l -31 0 l -22 25 q 49 35 31 26 q 88 66 76 47 q 132 182 106 94 l 293 737 q 312 840 312 804 q 294 880 312 865 q 224 895 276 895 l 210 895 l 218 920 l 878 920 l 821 698 l 796 698 q 801 750 801 729 q 783 810 801 786 q 716 858 760 842 q 566 870 684 870 l 450 870 m 504 985 l 453 1199 l 467 1199 l 582 1062 l 798 1199 l 817 1199 l 606 985 l 504 985 z "},"ě":{"ha":616,"x_min":43,"x_max":705,"o":"m 165 256 q 161 199 161 222 q 203 97 161 139 q 307 54 246 54 q 401 74 356 54 q 535 163 446 94 l 549 143 q 243 -16 389 -16 q 94 46 144 -16 q 43 184 43 109 q 106 391 43 285 q 262 555 168 496 q 456 614 357 614 q 563 585 528 614 q 597 515 597 555 q 553 408 597 459 q 379 299 494 340 q 165 256 303 271 m 170 289 q 334 328 271 300 q 459 417 417 366 q 500 516 500 469 q 483 562 500 545 q 431 580 465 580 q 284 506 362 580 q 170 289 207 433 m 393 726 l 342 941 l 356 941 l 471 804 l 687 941 l 705 941 l 494 726 l 393 726 z "},"Ĺ":{"ha":772,"x_min":-45,"x_max":726,"o":"m 637 0 l -45 0 l -35 25 q 37 34 19 26 q 79 66 66 46 q 124 178 100 97 l 286 738 q 307 840 307 807 q 288 880 307 865 q 218 894 269 894 q 199 895 206 894 l 208 920 l 583 920 l 577 895 q 488 882 514 895 q 444 842 461 870 q 404 728 431 824 l 244 178 q 226 92 226 116 q 244 60 226 75 q 296 50 256 50 l 385 50 q 539 75 482 50 q 616 130 581 93 q 684 231 635 150 l 701 261 l 726 261 l 637 0 m 668 1222 l 469 989 l 446 989 l 515 1222 l 668 1222 z "},"ĺ":{"ha":386,"x_min":54,"x_max":511,"o":"m 413 964 l 181 157 q 164 83 164 97 q 171 66 164 73 q 186 60 177 60 q 214 71 199 60 q 288 157 250 99 l 309 136 q 190 9 244 45 q 114 -16 150 -16 q 71 1 88 -16 q 54 42 54 19 q 75 142 54 66 l 259 779 q 281 868 281 857 q 269 895 281 884 q 229 905 256 905 q 181 901 213 905 l 181 926 l 413 964 m 511 1222 l 311 989 l 288 989 l 358 1222 l 511 1222 z "},"Ľ":{"ha":772,"x_min":-45,"x_max":835,"o":"m 636 666 q 720 724 688 688 q 743 776 743 751 q 739 799 743 789 q 721 821 737 804 q 702 843 705 837 q 697 869 697 854 q 718 920 697 899 q 764 941 738 941 q 813 918 792 941 q 835 862 835 896 q 787 740 835 802 q 650 644 740 678 l 636 666 m 637 0 l -45 0 l -35 25 q 37 34 19 26 q 79 66 66 46 q 124 178 100 97 l 286 738 q 307 840 307 807 q 288 880 307 865 q 218 894 269 894 q 199 895 206 894 l 208 920 l 583 920 l 577 895 q 488 882 514 895 q 444 842 461 870 q 404 728 431 824 l 244 178 q 226 92 226 116 q 244 60 226 75 q 296 50 256 50 l 385 50 q 539 75 482 50 q 616 130 581 93 q 684 231 635 150 l 701 261 l 726 261 l 637 0 z "},"ľ":{"ha":505,"x_min":53,"x_max":628,"o":"m 429 690 q 512 748 480 712 q 536 800 536 775 q 532 823 536 812 q 513 844 530 828 q 495 867 497 861 q 490 893 490 878 q 510 943 490 922 q 557 964 530 964 q 607 942 585 964 q 628 886 628 920 q 581 764 628 825 q 442 668 533 702 l 429 690 m 412 964 l 180 157 q 163 83 163 97 q 170 66 163 73 q 186 60 176 60 q 214 71 199 60 q 288 157 249 99 l 308 136 q 189 9 243 45 q 113 -16 149 -16 q 70 1 87 -16 q 53 42 53 19 q 75 142 53 66 l 258 779 q 281 868 281 857 q 268 895 281 884 q 228 905 255 905 q 180 901 212 905 l 180 926 l 412 964 z "},"Ŀ":{"ha":772,"x_min":-45,"x_max":726,"o":"m 637 0 l -45 0 l -35 25 q 37 34 19 26 q 79 66 66 46 q 124 178 100 97 l 286 738 q 307 840 307 807 q 288 880 307 865 q 218 894 269 894 q 199 895 206 894 l 208 920 l 583 920 l 577 895 q 488 882 514 895 q 444 842 461 870 q 404 728 431 824 l 244 178 q 226 92 226 116 q 244 60 226 75 q 296 50 256 50 l 385 50 q 539 75 482 50 q 616 130 581 93 q 684 231 635 150 l 701 261 l 726 261 l 637 0 m 557 547 q 608 526 587 547 q 629 475 629 505 q 608 426 629 446 q 557 405 587 405 q 507 426 528 405 q 486 475 486 446 q 507 526 486 505 q 557 547 528 547 z "},"ŀ":{"ha":448,"x_min":54,"x_max":526,"o":"m 413 964 l 181 157 q 164 83 164 97 q 171 66 164 73 q 186 60 177 60 q 214 71 199 60 q 288 157 250 99 l 309 136 q 190 9 244 45 q 114 -16 150 -16 q 71 1 88 -16 q 54 42 54 19 q 75 142 54 66 l 259 779 q 281 868 281 857 q 269 895 281 884 q 229 905 256 905 q 181 901 213 905 l 181 926 l 413 964 m 455 546 q 505 525 484 546 q 526 475 526 505 q 505 425 526 446 q 455 404 484 404 q 405 425 425 404 q 384 475 384 446 q 405 525 384 505 q 455 546 425 546 z "},"Ń":{"ha":926,"x_min":-39,"x_max":1058,"o":"m 398 920 l 682 199 l 836 737 q 855 840 855 804 q 838 880 855 865 q 772 894 820 894 q 755 895 764 894 l 762 920 l 1058 920 l 1050 895 q 981 885 1004 895 q 934 848 949 871 q 890 737 912 817 l 673 -21 l 649 -21 l 343 755 l 180 182 q 161 82 161 117 q 178 43 161 56 q 257 25 195 30 l 250 0 l -39 0 l -29 25 q 43 35 25 26 q 85 66 71 47 q 129 182 104 96 l 311 821 q 255 877 285 862 q 161 895 224 892 l 168 920 l 398 920 m 816 1222 l 616 989 l 593 989 l 663 1222 l 816 1222 z "},"ń":{"ha":694,"x_min":26,"x_max":638,"o":"m 307 614 l 216 305 q 411 554 343 494 q 541 614 478 614 q 596 591 574 614 q 618 533 618 569 q 599 425 618 492 l 516 139 q 502 79 502 90 q 507 63 502 69 q 519 56 513 56 q 538 65 527 56 q 617 152 574 94 l 638 139 q 519 10 575 49 q 448 -16 479 -16 q 408 -1 423 -16 q 393 40 393 14 q 416 152 393 73 l 495 425 q 510 504 510 475 q 501 526 510 517 q 479 534 492 534 q 434 518 460 534 q 330 417 384 488 q 215 238 275 347 q 162 112 183 180 l 128 0 l 26 0 l 150 425 q 172 517 172 501 q 160 543 172 532 q 130 554 148 554 q 102 551 122 554 l 76 547 l 72 572 l 307 614 m 610 951 l 411 718 l 388 718 l 458 951 l 610 951 z "},"Ň":{"ha":926,"x_min":-39,"x_max":1058,"o":"m 398 920 l 682 199 l 836 737 q 855 840 855 804 q 838 880 855 865 q 772 894 820 894 q 755 895 764 894 l 762 920 l 1058 920 l 1050 895 q 981 885 1004 895 q 934 848 949 871 q 890 737 912 817 l 673 -21 l 649 -21 l 343 755 l 180 182 q 161 82 161 117 q 178 43 161 56 q 257 25 195 30 l 250 0 l -39 0 l -29 25 q 43 35 25 26 q 85 66 71 47 q 129 182 104 96 l 311 821 q 255 877 285 862 q 161 895 224 892 l 168 920 l 398 920 m 566 985 l 515 1199 l 529 1199 l 644 1062 l 860 1199 l 878 1199 l 667 985 l 566 985 z "},"ň":{"ha":694,"x_min":26,"x_max":638,"o":"m 307 614 l 216 305 q 411 554 343 494 q 541 614 478 614 q 596 591 574 614 q 618 533 618 569 q 599 425 618 492 l 516 139 q 502 79 502 90 q 507 63 502 69 q 519 56 513 56 q 538 65 527 56 q 617 152 574 94 l 638 139 q 519 10 575 49 q 448 -16 479 -16 q 408 -1 423 -16 q 393 40 393 14 q 416 152 393 73 l 495 425 q 510 504 510 475 q 501 526 510 517 q 479 534 492 534 q 434 518 460 534 q 330 417 384 488 q 215 238 275 347 q 162 112 183 180 l 128 0 l 26 0 l 150 425 q 172 517 172 501 q 160 543 172 532 q 130 554 148 554 q 102 551 122 554 l 76 547 l 72 572 l 307 614 m 323 726 l 272 941 l 286 941 l 401 804 l 617 941 l 635 941 l 425 726 l 323 726 z "},"Ő":{"ha":1003,"x_min":83,"x_max":1000,"o":"m 684 941 q 846 901 776 941 q 957 784 917 861 q 997 623 997 706 q 911 312 997 475 q 687 64 825 150 q 401 -21 549 -21 q 223 26 294 -21 q 117 151 151 73 q 83 300 83 228 q 145 555 83 429 q 293 765 207 681 q 477 895 379 850 q 684 941 574 941 m 661 897 q 529 864 593 897 q 400 754 464 830 q 286 554 336 677 q 223 267 223 402 q 273 97 223 171 q 425 22 322 22 q 546 53 486 22 q 669 157 605 83 q 805 394 750 250 q 860 663 860 538 q 810 826 860 755 q 661 897 761 897 m 804 1222 l 604 989 l 581 989 l 651 1222 l 804 1222 m 1000 1222 l 800 989 l 777 989 l 847 1222 l 1000 1222 z "},"ő":{"ha":694,"x_min":41,"x_max":753,"o":"m 642 401 q 588 200 642 300 q 438 42 534 100 q 251 -16 342 -16 q 99 43 158 -16 q 41 197 41 102 q 98 397 41 296 q 251 555 155 497 q 437 614 347 614 q 584 555 526 614 q 642 401 642 496 m 530 448 q 499 545 530 511 q 419 578 468 578 q 236 436 319 578 q 152 152 152 293 q 184 53 152 87 q 267 18 217 18 q 446 160 362 18 q 530 448 530 302 m 557 951 l 357 718 l 334 718 l 404 951 l 557 951 m 753 951 l 553 718 l 530 718 l 600 951 l 753 951 z "},"Ŕ":{"ha":848,"x_min":-32,"x_max":804,"o":"m 577 0 l 430 447 q 324 457 378 446 l 245 179 q 229 87 229 125 q 249 43 229 59 q 330 25 264 31 l 324 0 l -32 0 l -24 25 q 43 35 26 27 q 84 66 71 47 q 130 179 106 98 l 290 734 q 307 821 307 790 q 281 873 307 852 q 208 895 256 895 l 216 920 l 516 920 q 733 863 667 920 q 800 713 800 806 q 731 550 800 624 q 545 457 663 477 l 634 188 q 699 59 667 89 q 804 25 732 29 l 797 0 l 577 0 m 336 496 q 413 490 379 490 q 597 554 530 490 q 665 715 665 619 q 623 831 665 791 q 496 871 581 871 q 444 865 474 871 l 336 496 m 713 1222 l 514 989 l 491 989 l 561 1222 l 713 1222 z "},"ŕ":{"ha":541,"x_min":28,"x_max":562,"o":"m 73 576 l 307 614 l 209 284 q 425 568 328 487 q 514 614 479 614 q 549 601 536 614 q 562 562 562 587 q 539 477 562 517 q 492 446 523 446 q 466 456 477 446 q 452 488 454 467 q 446 505 450 500 q 433 510 440 510 q 411 505 421 510 q 357 452 393 495 q 235 279 301 385 q 186 178 207 235 q 154 85 158 101 l 132 0 l 28 0 l 154 421 q 176 526 176 494 q 165 546 176 538 q 130 557 152 557 q 77 551 115 557 l 73 576 m 546 951 l 347 718 l 323 718 l 393 951 l 546 951 z "},"Ř":{"ha":848,"x_min":-32,"x_max":804,"o":"m 577 0 l 430 447 q 324 457 378 446 l 245 179 q 229 87 229 125 q 249 43 229 59 q 330 25 264 31 l 324 0 l -32 0 l -24 25 q 43 35 26 27 q 84 66 71 47 q 130 179 106 98 l 290 734 q 307 821 307 790 q 281 873 307 852 q 208 895 256 895 l 216 920 l 516 920 q 733 863 667 920 q 800 713 800 806 q 731 550 800 624 q 545 457 663 477 l 634 188 q 699 59 667 89 q 804 25 732 29 l 797 0 l 577 0 m 336 496 q 413 490 379 490 q 597 554 530 490 q 665 715 665 619 q 623 831 665 791 q 496 871 581 871 q 444 865 474 871 l 336 496 m 450 985 l 399 1199 l 414 1199 l 528 1062 l 745 1199 l 763 1199 l 552 985 l 450 985 z "},"ř":{"ha":541,"x_min":28,"x_max":595,"o":"m 73 576 l 307 614 l 209 284 q 425 568 328 487 q 514 614 479 614 q 549 601 536 614 q 562 562 562 587 q 539 477 562 517 q 492 446 523 446 q 466 456 477 446 q 452 488 454 467 q 446 505 450 500 q 433 510 440 510 q 411 505 421 510 q 357 452 393 495 q 235 279 301 385 q 186 178 207 235 q 154 85 158 101 l 132 0 l 28 0 l 154 421 q 176 526 176 494 q 165 546 176 538 q 130 557 152 557 q 77 551 115 557 l 73 576 m 283 726 l 232 941 l 246 941 l 361 804 l 577 941 l 595 941 l 385 726 l 283 726 z "},"Ś":{"ha":694,"x_min":9,"x_max":753,"o":"m 9 -21 l 85 320 l 109 320 q 104 238 104 271 q 163 87 104 145 q 318 28 222 28 q 453 83 407 28 q 499 209 499 138 q 478 293 499 255 q 308 491 446 349 q 222 592 241 559 q 191 707 191 647 q 262 872 191 804 q 447 941 334 941 q 519 933 485 941 q 595 906 540 929 q 639 889 635 890 q 660 887 648 887 q 694 897 680 887 q 727 941 708 907 l 753 941 l 682 635 l 659 635 q 662 701 662 676 q 608 836 662 783 q 465 888 553 888 q 350 846 394 888 q 306 751 306 805 q 334 660 306 703 q 464 520 362 617 q 595 368 565 422 q 625 252 625 313 q 588 116 625 182 q 481 15 551 51 q 330 -21 412 -21 q 254 -14 290 -21 q 142 23 219 -6 q 98 33 115 33 q 35 -21 58 33 l 9 -21 m 659 1222 l 460 989 l 437 989 l 507 1222 l 659 1222 z "},"ś":{"ha":541,"x_min":-13,"x_max":524,"o":"m 504 614 l 463 406 l 437 406 q 399 538 434 496 q 311 579 363 579 q 244 556 269 579 q 220 500 220 533 q 230 458 220 478 q 273 401 239 437 q 387 256 361 304 q 412 163 412 207 q 354 38 412 93 q 205 -16 295 -16 q 93 7 157 -16 q 58 15 71 15 q 12 -16 28 15 l -13 -16 l 28 203 l 54 203 q 96 58 58 100 q 202 15 135 15 q 284 44 254 15 q 314 115 314 73 q 303 165 314 142 q 223 277 284 205 q 145 385 163 349 q 128 457 128 421 q 176 568 128 523 q 299 614 224 614 q 338 610 321 614 q 383 595 348 608 q 429 582 418 582 q 478 614 458 582 l 504 614 m 524 951 l 324 718 l 301 718 l 371 951 l 524 951 z "},"Ţ":{"ha":772,"x_min":97,"x_max":902,"o":"m 203 920 l 902 920 l 827 675 l 801 675 q 814 771 814 729 q 783 846 814 821 q 665 865 760 865 l 592 865 l 410 231 q 376 84 376 112 q 397 42 376 58 q 474 25 419 25 l 505 25 l 497 0 l 97 0 l 104 25 l 122 25 q 203 42 175 25 q 239 84 223 54 q 283 212 255 114 l 474 865 l 419 865 q 291 844 340 865 q 213 785 243 824 q 164 675 183 747 l 139 675 l 203 920 m 326 20 l 295 -31 q 357 -66 335 -40 q 378 -130 378 -93 q 340 -208 378 -176 q 220 -251 289 -251 q 124 -236 182 -251 l 132 -214 q 191 -222 166 -222 q 258 -201 234 -222 q 282 -151 282 -180 q 268 -114 282 -126 q 211 -98 249 -98 l 286 20 l 326 20 z "},"ţ":{"ha":386,"x_min":-45,"x_max":414,"o":"m 361 782 l 308 597 l 414 597 l 403 555 l 297 555 l 180 155 q 161 71 161 90 q 167 54 161 60 q 180 47 172 47 q 224 71 197 47 q 297 155 241 85 l 319 138 q 201 9 257 47 q 125 -16 163 -16 q 76 2 95 -16 q 57 50 57 21 q 79 162 57 87 l 192 555 l 90 555 l 96 581 q 220 642 171 602 q 331 782 270 682 l 361 782 m 156 20 l 125 -31 q 187 -66 165 -40 q 209 -130 209 -93 q 171 -208 209 -176 q 50 -251 119 -251 q -45 -236 13 -251 l -37 -214 q 21 -222 -3 -222 q 89 -201 64 -222 q 113 -151 113 -180 q 98 -114 113 -126 q 41 -98 79 -98 l 116 20 l 156 20 z "},"Ť":{"ha":772,"x_min":97,"x_max":902,"o":"m 203 920 l 902 920 l 827 675 l 801 675 q 814 771 814 729 q 783 846 814 821 q 665 865 760 865 l 592 865 l 410 231 q 376 84 376 112 q 397 42 376 58 q 474 25 419 25 l 505 25 l 497 0 l 97 0 l 104 25 l 122 25 q 203 42 175 25 q 239 84 223 54 q 283 212 255 114 l 474 865 l 419 865 q 291 844 340 865 q 213 785 243 824 q 164 675 183 747 l 139 675 l 203 920 m 514 985 l 463 1199 l 477 1199 l 592 1062 l 808 1199 l 827 1199 l 616 985 l 514 985 z "},"ť":{"ha":505,"x_min":58,"x_max":628,"o":"m 429 690 q 512 748 480 712 q 536 800 536 775 q 532 823 536 812 q 513 844 530 828 q 495 867 497 861 q 490 893 490 878 q 510 943 490 922 q 557 964 530 964 q 607 942 585 964 q 628 886 628 920 q 581 764 628 825 q 443 668 533 702 l 429 690 m 362 782 l 309 597 l 416 597 l 404 555 l 298 555 l 182 155 q 163 71 163 90 q 168 54 163 60 q 181 47 174 47 q 226 71 198 47 q 298 155 242 85 l 321 138 q 203 9 258 47 q 126 -16 165 -16 q 77 2 96 -16 q 58 50 58 21 q 80 162 58 87 l 193 555 l 91 555 l 98 581 q 222 642 172 602 q 332 782 271 682 l 362 782 z "},"Ů":{"ha":1003,"x_min":148,"x_max":1131,"o":"m 182 920 l 570 920 l 563 895 q 478 883 503 893 q 434 848 452 873 q 397 755 416 823 l 302 430 q 273 316 277 343 q 264 235 264 273 q 326 97 264 153 q 489 40 387 40 q 609 65 556 40 q 700 137 662 91 q 768 261 737 182 q 823 419 800 339 l 905 700 q 935 837 935 805 q 915 875 935 859 q 831 895 894 891 l 838 920 l 1131 920 l 1123 895 q 1049 885 1072 895 q 1009 849 1026 875 q 971 751 992 824 l 871 410 q 781 164 823 243 q 657 32 738 85 q 456 -21 576 -21 q 233 57 317 -21 q 148 237 148 136 q 155 322 148 277 q 182 425 161 352 l 273 738 q 292 838 292 806 q 272 877 292 863 q 175 895 253 890 l 182 920 m 718 1227 q 808 1190 771 1227 q 846 1099 846 1152 q 808 1008 846 1046 q 718 970 770 970 q 627 1008 665 970 q 589 1099 589 1046 q 627 1190 589 1152 q 718 1227 664 1227 m 718 1183 q 658 1159 683 1183 q 633 1099 633 1134 q 658 1039 633 1064 q 718 1015 683 1015 q 778 1039 753 1015 q 802 1099 802 1064 q 778 1159 802 1134 q 718 1183 753 1183 z "},"ů":{"ha":694,"x_min":41,"x_max":654,"o":"m 654 597 l 536 193 q 509 79 509 103 q 514 61 509 67 q 526 56 518 56 q 551 66 537 56 q 621 150 565 77 l 642 134 q 532 9 588 50 q 460 -16 494 -16 q 418 -1 433 -16 q 404 37 404 14 q 412 98 404 60 q 474 317 423 149 q 281 56 359 127 q 137 -16 203 -16 q 84 5 106 -16 q 62 60 62 27 q 92 216 62 111 l 151 426 q 173 519 173 501 q 167 533 173 528 q 155 539 161 539 q 126 529 140 539 q 62 454 112 519 l 41 469 q 149 585 92 547 q 229 614 192 614 q 270 598 254 614 q 286 557 286 582 q 258 426 286 520 l 195 207 q 168 94 168 117 q 177 73 168 81 q 199 65 185 65 q 258 87 222 65 q 354 187 294 110 q 453 331 414 264 q 536 546 492 399 l 551 597 l 654 597 m 450 964 q 541 926 504 964 q 578 836 578 889 q 541 745 578 783 q 450 707 503 707 q 360 745 397 707 q 322 836 322 783 q 359 926 322 889 q 450 964 397 964 m 451 920 q 391 896 416 920 q 366 836 366 871 q 391 776 366 801 q 451 751 416 751 q 510 776 486 751 q 535 836 535 801 q 511 896 535 871 q 451 920 486 920 z "},"Ű":{"ha":1003,"x_min":148,"x_max":1131,"o":"m 182 920 l 570 920 l 563 895 q 478 883 503 893 q 434 848 452 873 q 397 755 416 823 l 302 430 q 273 316 277 343 q 264 235 264 273 q 326 97 264 153 q 489 40 387 40 q 609 65 556 40 q 700 137 662 91 q 768 261 737 182 q 823 419 800 339 l 905 700 q 935 837 935 805 q 915 875 935 859 q 831 895 894 891 l 838 920 l 1131 920 l 1123 895 q 1049 885 1072 895 q 1009 849 1026 875 q 971 751 992 824 l 871 410 q 781 164 823 243 q 657 32 738 85 q 456 -21 576 -21 q 233 57 317 -21 q 148 237 148 136 q 155 322 148 277 q 182 425 161 352 l 273 738 q 292 838 292 806 q 272 877 292 863 q 175 895 253 890 l 182 920 m 772 1222 l 573 989 l 550 989 l 620 1222 l 772 1222 m 968 1222 l 769 989 l 746 989 l 816 1222 l 968 1222 z "},"ű":{"ha":694,"x_min":41,"x_max":726,"o":"m 654 597 l 536 193 q 509 79 509 103 q 514 61 509 67 q 526 56 518 56 q 551 66 537 56 q 621 150 565 77 l 642 134 q 532 9 588 50 q 460 -16 494 -16 q 418 -1 433 -16 q 404 37 404 14 q 412 98 404 60 q 474 317 423 149 q 281 56 359 127 q 137 -16 203 -16 q 84 5 106 -16 q 62 60 62 27 q 92 216 62 111 l 151 426 q 173 519 173 501 q 167 533 173 528 q 155 539 161 539 q 126 529 140 539 q 62 454 112 519 l 41 469 q 149 585 92 547 q 229 614 192 614 q 270 598 254 614 q 286 557 286 582 q 258 426 286 520 l 195 207 q 168 94 168 117 q 177 73 168 81 q 199 65 185 65 q 258 87 222 65 q 354 187 294 110 q 453 331 414 264 q 536 546 492 399 l 551 597 l 654 597 m 530 951 l 330 718 l 307 718 l 377 951 l 530 951 m 726 951 l 526 718 l 503 718 l 573 951 l 726 951 z "},"Ź":{"ha":772,"x_min":-3,"x_max":848,"o":"m 210 920 l 848 920 l 848 895 l 165 44 l 272 44 q 515 61 444 44 q 633 120 586 78 q 712 239 680 162 l 738 239 l 659 0 l -3 0 l -3 20 l 680 870 l 490 870 q 314 859 365 870 q 227 813 263 848 q 165 710 191 779 l 142 710 l 210 920 m 701 1222 l 501 989 l 478 989 l 548 1222 l 701 1222 z "},"ź":{"ha":541,"x_min":-39,"x_max":547,"o":"m 117 597 l 547 597 l 547 581 l 78 92 l 277 92 q 366 98 347 92 q 401 121 385 103 q 437 184 417 138 l 462 184 l 403 0 l -39 0 l -39 20 l 431 508 l 235 508 q 161 505 174 508 q 123 483 142 500 q 85 426 104 466 l 59 426 l 117 597 m 530 951 l 330 718 l 307 718 l 377 951 l 530 951 z "},"Ż":{"ha":772,"x_min":-3,"x_max":848,"o":"m 210 920 l 848 920 l 848 895 l 165 44 l 272 44 q 515 61 444 44 q 633 120 586 78 q 712 239 680 162 l 738 239 l 659 0 l -3 0 l -3 20 l 680 870 l 490 870 q 314 859 365 870 q 227 813 263 848 q 165 710 191 779 l 142 710 l 210 920 m 553 1160 q 604 1139 583 1160 q 625 1088 625 1118 q 604 1037 625 1058 q 553 1015 583 1015 q 502 1037 523 1015 q 480 1088 480 1058 q 501 1139 480 1118 q 553 1160 522 1160 z "},"ż":{"ha":541,"x_min":-39,"x_max":547,"o":"m 117 597 l 547 597 l 547 581 l 78 92 l 277 92 q 366 98 347 92 q 401 121 385 103 q 437 184 417 138 l 462 184 l 403 0 l -39 0 l -39 20 l 431 508 l 235 508 q 161 505 174 508 q 123 483 142 500 q 85 426 104 466 l 59 426 l 117 597 m 366 909 q 417 887 395 909 q 438 836 438 866 q 417 785 438 806 q 366 764 395 764 q 314 785 336 764 q 293 836 293 806 q 314 887 293 866 q 366 909 335 909 z "},"Γ":{"ha":790,"x_min":-50,"x_max":922,"o":"m 205 920 l 922 920 l 850 677 l 825 677 q 832 757 832 734 q 797 850 832 828 q 669 873 762 873 l 452 873 l 248 178 q 226 87 226 106 q 251 40 226 52 q 347 25 277 28 l 340 0 l -50 0 l -42 25 q 72 57 46 26 q 125 178 98 87 l 288 720 q 311 831 311 797 q 289 880 311 869 q 197 895 267 891 l 205 920 z "},"Θ":{"ha":1003,"x_min":85,"x_max":999,"o":"m 676 941 q 920 843 840 941 q 999 621 999 745 q 912 311 999 471 q 690 65 825 151 q 404 -21 555 -21 q 164 80 243 -21 q 85 300 85 181 q 169 597 85 445 q 392 845 252 749 q 676 941 532 941 m 659 897 q 357 689 490 897 q 225 267 225 480 q 276 95 225 168 q 429 22 326 22 q 622 107 519 22 q 793 360 725 192 q 862 661 862 528 q 808 831 862 764 q 659 897 755 897 m 416 611 l 441 611 q 434 573 434 586 q 517 514 434 514 l 586 514 q 683 533 654 514 q 732 611 711 553 l 757 611 l 669 307 l 644 307 q 652 355 652 338 q 628 401 652 387 q 533 415 603 415 l 488 415 q 398 390 429 415 q 352 307 368 364 l 327 307 l 416 611 z "},"Φ":{"ha":1057,"x_min":106,"x_max":1038,"o":"m 591 760 q 603 823 603 802 q 585 873 603 851 q 500 895 568 895 l 507 920 l 918 920 l 911 895 q 791 869 831 893 q 728 760 752 844 q 962 681 886 753 q 1038 508 1038 609 q 915 266 1038 368 q 555 159 792 164 q 544 94 544 115 q 566 43 544 61 q 659 25 589 25 l 652 0 l 237 0 l 245 25 q 358 52 319 25 q 417 159 397 78 q 181 239 255 167 q 106 410 106 311 q 225 650 106 547 q 591 760 344 753 m 564 197 q 815 298 720 197 q 911 531 911 399 q 718 722 911 706 l 564 197 m 581 722 q 329 620 424 722 q 234 388 234 518 q 427 197 234 213 l 581 722 z "},"α":{"ha":729,"x_min":41,"x_max":696,"o":"m 592 597 l 692 597 l 547 266 q 612 79 557 79 q 648 99 631 79 q 668 149 665 119 l 696 149 q 602 -16 675 -16 q 554 11 576 -16 q 516 201 532 38 q 235 -16 391 -16 q 94 44 148 -16 q 41 205 41 104 q 90 396 41 304 q 214 551 140 489 q 377 614 288 614 q 477 574 441 614 q 527 452 513 535 l 592 597 m 501 401 q 470 512 498 450 q 388 574 442 574 q 228 421 309 574 q 146 153 146 269 q 173 52 146 90 q 247 15 200 15 q 335 65 296 15 q 444 273 374 116 l 501 401 z "},"δ":{"ha":646,"x_min":33,"x_max":642,"o":"m 446 579 q 383 656 432 600 q 298 823 298 753 q 342 927 298 889 q 465 964 387 964 q 588 935 534 964 q 642 864 642 905 q 626 828 642 842 q 589 814 610 814 q 530 855 556 814 q 474 920 496 908 q 429 931 452 931 q 367 908 391 931 q 343 848 343 884 q 362 792 343 819 q 450 704 381 764 q 565 571 527 637 q 602 410 602 505 q 486 119 602 254 q 229 -16 370 -16 q 84 41 136 -16 q 33 191 33 98 q 135 430 33 323 q 446 579 237 536 m 459 553 q 278 466 346 532 q 176 312 210 399 q 141 144 141 224 q 240 16 141 16 q 416 165 345 16 q 488 436 488 315 q 459 553 488 502 z "},"ε":{"ha":547,"x_min":15,"x_max":543,"o":"m 229 325 q 105 448 105 355 q 169 566 105 517 q 340 614 233 614 q 490 574 436 614 q 543 490 543 535 q 528 451 543 467 q 490 435 513 435 q 450 453 465 435 q 436 493 436 470 q 437 509 436 498 q 438 521 438 516 q 419 563 438 543 q 357 583 400 583 q 241 538 293 583 q 190 421 190 492 q 271 332 190 332 q 318 338 289 332 q 351 343 340 343 q 383 318 383 343 q 356 296 383 296 q 326 300 348 296 q 279 305 298 305 q 167 252 211 305 q 123 128 123 199 q 155 47 123 80 q 243 14 186 14 q 356 105 326 14 q 381 156 368 142 q 418 170 394 170 q 454 155 440 170 q 467 119 467 140 q 397 27 467 71 q 228 -16 328 -16 q 67 30 119 -16 q 15 143 15 76 q 69 265 15 212 q 229 325 123 319 z "},"σ":{"ha":685,"x_min":37,"x_max":732,"o":"m 732 597 l 705 502 l 485 502 q 581 324 581 422 q 480 90 581 195 q 241 -16 380 -16 q 90 38 143 -16 q 37 183 37 92 q 77 364 37 270 q 189 512 118 458 q 336 582 259 566 q 574 597 412 597 l 732 597 m 452 502 q 211 379 281 500 q 140 134 140 258 q 243 15 140 15 q 411 146 342 15 q 479 393 479 278 q 452 502 479 463 z "},"τ":{"ha":497,"x_min":35,"x_max":541,"o":"m 59 425 l 35 425 q 83 522 53 481 q 154 580 113 563 q 269 597 195 597 l 541 597 l 513 502 l 347 502 l 262 248 q 238 130 238 173 q 298 66 238 66 q 389 155 353 66 l 416 155 q 246 -16 362 -16 q 172 12 203 -16 q 140 103 140 40 q 191 305 140 158 l 257 502 q 132 491 174 502 q 59 425 89 481 z "},"φ":{"ha":768,"x_min":50,"x_max":712,"o":"m 243 -297 l 174 -297 l 256 -16 q 104 43 158 -16 q 50 204 50 102 q 147 485 50 360 q 389 614 244 610 l 382 589 q 223 441 291 574 q 156 179 156 307 q 266 20 156 24 l 357 323 q 420 497 392 440 q 488 584 448 555 q 575 614 529 614 q 676 558 640 614 q 712 412 712 503 q 611 119 712 248 q 323 -17 509 -10 l 243 -297 m 335 20 q 545 161 471 29 q 618 431 618 293 q 559 548 618 548 q 494 505 523 548 q 420 307 466 461 l 335 20 z "},"‗":{"ha":694,"x_min":-12,"x_max":707,"o":"m 707 -193 l -12 -193 l -12 -136 l 707 -136 l 707 -193 m 707 -300 l -12 -300 l -12 -243 l 707 -243 l 707 -300 z "},"‼":{"ha":795,"x_min":104,"x_max":774,"o":"m 219 224 l 193 224 q 240 411 227 347 q 271 581 254 476 q 312 832 304 796 q 356 925 326 893 q 395 941 370 941 q 428 926 414 941 q 441 886 441 911 q 428 815 441 858 q 318 508 400 722 q 275 395 279 407 q 219 224 262 357 m 174 117 q 223 96 203 117 q 243 47 243 76 q 223 -2 243 18 q 174 -22 203 -22 q 125 -2 145 -22 q 104 47 104 18 q 125 96 104 76 q 174 117 145 117 m 552 224 l 526 224 q 573 411 559 347 q 604 581 587 476 q 645 832 637 796 q 689 925 659 893 q 728 941 703 941 q 761 926 747 941 q 774 886 774 911 q 761 815 774 858 q 651 508 733 722 q 608 395 612 407 q 552 224 595 357 m 507 117 q 556 96 536 117 q 576 47 576 76 q 556 -2 576 18 q 507 -22 536 -22 q 458 -2 478 -22 q 437 47 437 18 q 458 96 437 76 q 507 117 478 117 z "},"ⁿ":{"ha":437,"x_min":14,"x_max":406,"o":"m 196 758 l 141 582 q 267 728 224 699 q 341 758 309 758 q 377 743 363 758 q 391 704 391 728 q 378 641 391 680 l 326 472 q 317 437 317 443 q 324 429 317 433 q 340 435 332 429 q 389 485 359 448 l 406 475 q 328 393 364 417 q 282 376 302 376 q 256 387 266 376 q 247 414 247 397 q 261 481 247 435 l 311 642 q 320 688 320 673 q 316 697 320 694 q 302 701 311 701 q 194 616 260 701 q 104 456 128 531 l 81 386 l 14 386 l 93 642 q 107 694 107 688 q 101 707 107 702 q 82 713 94 713 q 47 709 77 713 l 43 732 l 196 758 z "},"₧":{"ha":1375,"x_min":32,"x_max":1360,"o":"m 283 920 l 544 920 q 777 860 704 920 q 849 709 849 801 q 842 655 849 686 q 947 774 895 693 l 979 774 l 930 608 l 1020 608 l 1006 564 l 918 564 l 784 102 q 775 64 775 71 q 779 51 775 56 q 789 46 783 46 q 817 59 800 46 q 905 160 856 90 l 913 203 l 938 203 q 978 59 941 104 q 1063 14 1016 14 q 1142 46 1109 14 q 1175 121 1175 78 q 1161 182 1175 147 q 1101 286 1147 216 q 1020 475 1020 407 q 1066 579 1020 534 q 1175 623 1112 623 q 1259 605 1217 623 q 1296 592 1287 592 q 1336 624 1317 592 l 1360 624 l 1322 415 l 1299 415 q 1266 551 1299 508 q 1191 593 1234 593 q 1134 571 1158 593 q 1111 519 1111 548 q 1120 472 1111 495 q 1160 401 1128 450 q 1253 241 1232 294 q 1270 161 1270 200 q 1212 38 1270 92 q 1070 -16 1154 -16 q 996 -3 1032 -16 q 949 11 960 11 q 897 -16 926 11 l 871 -16 l 895 102 q 789 3 823 22 q 730 -16 756 -16 q 689 2 707 -16 q 671 45 671 21 q 685 112 671 65 l 816 564 l 796 564 q 674 469 751 506 q 517 433 597 433 q 395 454 470 433 l 315 172 q 301 102 301 127 q 325 47 301 68 q 409 24 349 26 l 401 0 l 32 0 l 39 24 q 105 43 81 29 q 146 86 130 58 q 183 186 162 114 l 347 753 q 363 831 363 812 q 342 874 363 855 q 276 895 321 892 l 283 920 m 408 500 q 487 484 458 484 q 643 552 576 484 q 709 720 709 621 q 669 833 709 793 q 556 873 629 873 q 515 869 538 873 l 408 500 z "},"←":{"ha":1389,"x_min":54,"x_max":1335,"o":"m 334 594 l 385 594 q 325 482 345 514 q 253 385 305 450 l 1335 385 l 1335 316 l 253 316 q 387 106 323 243 l 334 106 q 184 255 247 204 q 54 338 121 305 l 54 368 q 178 445 113 393 q 334 594 244 496 z "},"↑":{"ha":694,"x_min":104,"x_max":591,"o":"m 104 628 q 253 784 202 718 q 330 908 304 850 l 361 908 q 443 778 393 841 q 591 627 494 715 l 591 575 q 382 709 455 639 l 382 -291 l 313 -291 l 313 709 q 216 637 248 657 q 104 576 184 616 l 104 628 z "},"→":{"ha":1389,"x_min":54,"x_max":1335,"o":"m 1055 594 q 1211 445 1145 496 q 1335 368 1276 393 l 1335 338 q 1204 255 1267 305 q 1054 106 1141 204 l 1002 106 q 1135 316 1065 243 l 54 316 l 54 385 l 1135 385 q 1063 482 1084 450 q 1003 594 1043 514 l 1055 594 z "},"↓":{"ha":694,"x_min":104,"x_max":591,"o":"m 104 -11 l 104 41 q 216 -20 184 1 q 313 -92 248 -40 l 313 908 l 382 908 l 382 -92 q 591 42 455 -22 l 591 -10 q 443 -161 494 -98 q 361 -291 393 -224 l 330 -291 q 253 -167 304 -233 q 104 -11 202 -101 z "},"↔":{"ha":1389,"x_min":54,"x_max":1335,"o":"m 1335 366 l 1335 336 q 1209 257 1271 307 q 1059 107 1147 208 l 1005 107 q 1137 318 1052 224 l 252 318 q 383 107 336 224 l 329 107 q 179 257 241 208 q 54 336 117 307 l 54 366 q 179 445 117 396 q 329 595 241 494 l 383 595 q 252 385 336 479 l 1137 385 q 1005 595 1052 479 l 1059 595 q 1209 445 1147 494 q 1335 366 1271 396 z "},"↕":{"ha":694,"x_min":103,"x_max":591,"o":"m 332 992 l 362 992 q 441 866 392 928 q 591 716 490 804 l 591 662 q 380 794 475 709 l 380 -92 q 591 40 475 -6 l 591 -14 q 441 -164 490 -102 q 362 -290 392 -226 l 332 -290 q 253 -164 302 -226 q 103 -14 203 -102 l 103 40 q 314 -92 219 -6 l 314 794 q 103 662 219 709 l 103 716 q 253 866 203 804 q 332 992 302 928 z "},"↨":{"ha":694,"x_min":103,"x_max":591,"o":"m 332 992 l 362 992 q 441 866 392 928 q 591 716 490 804 l 591 662 q 380 794 475 709 l 380 -92 q 591 40 475 -6 l 591 -14 q 441 -164 490 -102 q 362 -290 392 -226 l 332 -290 q 253 -164 302 -226 q 103 -14 203 -102 l 103 40 q 314 -92 219 -6 l 314 794 q 103 662 219 709 l 103 716 q 253 866 203 804 q 332 992 302 928 m 104 -354 l 591 -354 l 591 -420 l 104 -420 l 104 -354 z "},"∟":{"ha":1360,"x_min":245,"x_max":1114,"o":"m 245 867 l 313 867 l 313 68 l 1114 68 l 1114 0 l 245 0 l 245 867 z "},"∩":{"ha":1003,"x_min":130,"x_max":869,"o":"m 205 0 l 130 0 l 130 380 q 134 593 130 548 q 164 725 142 673 q 233 826 186 777 q 351 907 281 876 q 500 939 421 939 q 645 909 576 939 q 765 828 714 879 q 838 719 816 777 q 866 575 859 661 q 869 380 869 541 l 869 0 l 795 0 l 795 384 q 791 574 795 532 q 766 694 783 650 q 712 778 749 739 q 617 842 675 817 q 499 867 560 867 q 402 849 449 867 q 321 807 355 832 q 267 754 288 781 q 237 704 246 728 q 212 605 220 663 q 205 384 205 546 l 205 0 z "},"≡":{"ha":937,"x_min":26,"x_max":758,"o":"m 26 709 l 758 709 l 758 654 l 26 654 l 26 709 m 26 488 l 758 488 l 758 433 l 26 433 l 26 488 m 26 267 l 758 267 l 758 212 l 26 212 l 26 267 z "},"⌂":{"ha":833,"x_min":104,"x_max":730,"o":"m 104 0 l 104 430 l 416 782 l 730 430 l 730 0 l 104 0 m 159 55 l 675 55 l 675 407 l 416 696 l 159 407 l 159 55 z "},"⌐":{"ha":937,"x_min":26,"x_max":758,"o":"m 758 595 l 758 541 l 79 541 l 79 320 l 26 320 l 26 595 l 758 595 z "},"⌠":{"ha":839,"x_min":370,"x_max":662,"o":"m 469 -349 l 370 -349 l 370 879 q 431 1103 370 1027 q 568 1178 492 1178 q 638 1156 614 1178 q 662 1104 662 1134 q 645 1059 662 1077 q 602 1042 627 1042 q 564 1052 582 1042 q 535 1083 551 1059 q 504 1108 519 1108 q 483 1100 492 1108 q 473 1082 476 1095 q 469 987 469 1059 l 469 -349 z "},"⌡":{"ha":839,"x_min":177,"x_max":469,"o":"m 370 1178 l 469 1178 l 469 -50 q 408 -274 469 -199 q 271 -349 347 -349 q 201 -327 225 -349 q 177 -275 177 -305 q 194 -231 177 -248 q 236 -213 212 -213 q 276 -224 257 -213 q 304 -255 288 -231 q 335 -279 319 -279 q 356 -272 347 -279 q 366 -252 363 -267 q 370 -159 370 -231 l 370 1178 z "},"─":{"ha":984,"x_min":-16,"x_max":999,"o":"m 999 362 l -16 362 l -16 481 l 999 481 l 999 362 z "},"│":{"ha":855,"x_min":304,"x_max":422,"o":"m 304 -421 l 304 1264 l 422 1264 l 422 -421 l 304 -421 z "},"┌":{"ha":984,"x_min":433,"x_max":1000,"o":"m 1000 481 l 1000 362 l 551 362 l 551 -421 l 433 -421 l 433 481 l 1000 481 z "},"┐":{"ha":984,"x_min":-16,"x_max":551,"o":"m 432 362 l -16 362 l -16 481 l 551 481 l 551 -421 l 432 -421 l 432 362 z "},"└":{"ha":984,"x_min":433,"x_max":1000,"o":"m 433 362 l 433 1264 l 551 1264 l 551 481 l 1000 481 l 1000 362 l 433 362 z "},"┘":{"ha":984,"x_min":-16,"x_max":551,"o":"m 551 362 l -16 362 l -16 481 l 432 481 l 432 1264 l 551 1264 l 551 362 z "},"├":{"ha":984,"x_min":433,"x_max":1000,"o":"m 433 -421 l 433 1264 l 551 1264 l 551 481 l 1000 481 l 1000 362 l 551 362 l 551 -421 l 433 -421 z "},"┤":{"ha":984,"x_min":-16,"x_max":551,"o":"m 432 -421 l 432 362 l -16 362 l -16 481 l 432 481 l 432 1264 l 551 1264 l 551 -421 l 432 -421 z "},"┬":{"ha":984,"x_min":-16,"x_max":999,"o":"m 432 362 l -16 362 l -16 481 l 999 481 l 999 362 l 551 362 l 551 -421 l 432 -421 l 432 362 z "},"┴":{"ha":984,"x_min":-16,"x_max":999,"o":"m 999 362 l -16 362 l -16 481 l 432 481 l 432 1264 l 551 1264 l 551 481 l 999 481 l 999 362 z "},"┼":{"ha":984,"x_min":-16,"x_max":999,"o":"m 432 362 l -16 362 l -16 481 l 432 481 l 432 1264 l 551 1264 l 551 481 l 999 481 l 999 362 l 551 362 l 551 -421 l 432 -421 l 432 362 z "},"═":{"ha":984,"x_min":0,"x_max":1015,"o":"m 1015 491 l 0 491 l 0 610 l 1015 610 l 1015 491 m 1015 233 l 0 233 l 0 352 l 1015 352 l 1015 233 z "},"║":{"ha":984,"x_min":0,"x_max":376,"o":"m 258 -421 l 258 1264 l 376 1264 l 376 -421 l 258 -421 m 0 -421 l 0 1264 l 119 1264 l 119 -421 l 0 -421 z "},"╒":{"ha":984,"x_min":0,"x_max":567,"o":"m 0 -421 l 0 610 l 567 610 l 567 491 l 119 491 l 119 352 l 567 352 l 567 233 l 119 233 l 119 -421 l 0 -421 z "},"╓":{"ha":984,"x_min":0,"x_max":696,"o":"m 0 -421 l 0 481 l 696 481 l 696 362 l 376 362 l 376 -421 l 258 -421 l 258 352 l 119 352 l 119 -421 l 0 -421 z "},"╔":{"ha":984,"x_min":0,"x_max":695,"o":"m 119 -421 l 0 -421 l 0 610 l 695 610 l 695 491 l 119 491 l 119 -421 m 376 233 l 376 -421 l 258 -421 l 258 352 l 695 352 l 695 233 l 376 233 z "},"╕":{"ha":984,"x_min":0,"x_max":566,"o":"m 448 233 l 0 233 l 0 352 l 448 352 l 448 491 l 0 491 l 0 610 l 566 610 l 566 -421 l 448 -421 l 448 233 z "},"╖":{"ha":984,"x_min":0,"x_max":695,"o":"m 319 -421 l 319 362 l 0 362 l 0 481 l 695 481 l 695 -421 l 576 -421 l 576 362 l 437 362 l 437 -421 l 319 -421 z "},"╗":{"ha":984,"x_min":0,"x_max":695,"o":"m 576 -421 l 576 491 l 0 491 l 0 610 l 695 610 l 695 -421 l 576 -421 m 319 233 l 0 233 l 0 352 l 437 352 l 437 -421 l 319 -421 l 319 233 z "},"╘":{"ha":984,"x_min":0,"x_max":567,"o":"m 0 233 l 0 1264 l 119 1264 l 119 610 l 567 610 l 567 491 l 119 491 l 119 352 l 567 352 l 567 233 l 0 233 z "},"╙":{"ha":984,"x_min":0,"x_max":696,"o":"m 696 362 l 0 362 l 0 1264 l 119 1264 l 119 481 l 258 481 l 258 1264 l 376 1264 l 376 481 l 696 481 l 696 362 z "},"╚":{"ha":984,"x_min":0,"x_max":695,"o":"m 119 1264 l 119 352 l 695 352 l 695 233 l 0 233 l 0 1264 l 119 1264 m 376 610 l 695 610 l 695 491 l 258 491 l 258 1264 l 376 1264 l 376 610 z "},"╛":{"ha":984,"x_min":0,"x_max":566,"o":"m 566 233 l 0 233 l 0 352 l 448 352 l 448 491 l 0 491 l 0 610 l 448 610 l 448 1264 l 566 1264 l 566 233 z "},"╜":{"ha":984,"x_min":0,"x_max":695,"o":"m 695 362 l 0 362 l 0 481 l 319 481 l 319 1264 l 437 1264 l 437 481 l 576 481 l 576 1264 l 695 1264 l 695 362 z "},"╝":{"ha":984,"x_min":0,"x_max":695,"o":"m 576 1264 l 695 1264 l 695 233 l 0 233 l 0 352 l 576 352 l 576 1264 m 319 610 l 319 1264 l 437 1264 l 437 491 l 0 491 l 0 610 l 319 610 z "},"╞":{"ha":984,"x_min":0,"x_max":567,"o":"m 0 -421 l 0 1264 l 119 1264 l 119 610 l 567 610 l 567 491 l 119 491 l 119 352 l 567 352 l 567 233 l 119 233 l 119 -421 l 0 -421 z "},"╟":{"ha":984,"x_min":0,"x_max":696,"o":"m 258 -421 l 258 1264 l 376 1264 l 376 481 l 696 481 l 696 362 l 376 362 l 376 -421 l 258 -421 m 0 -421 l 0 1264 l 119 1264 l 119 -421 l 0 -421 z "},"╠":{"ha":984,"x_min":0,"x_max":696,"o":"m 0 -421 l 0 1264 l 119 1264 l 119 -421 l 0 -421 m 258 491 l 258 1264 l 376 1264 l 376 610 l 696 610 l 696 491 l 258 491 m 258 -421 l 258 352 l 696 352 l 696 233 l 376 233 l 376 -421 l 258 -421 z "},"╡":{"ha":984,"x_min":0,"x_max":566,"o":"m 448 233 l 0 233 l 0 352 l 448 352 l 448 491 l 0 491 l 0 610 l 448 610 l 448 1264 l 566 1264 l 566 -421 l 448 -421 l 448 233 z "},"╢":{"ha":984,"x_min":0,"x_max":695,"o":"m 319 -421 l 319 362 l 0 362 l 0 481 l 319 481 l 319 1264 l 437 1264 l 437 -421 l 319 -421 m 576 -421 l 576 1264 l 695 1264 l 695 -421 l 576 -421 z "},"╣":{"ha":984,"x_min":0,"x_max":695,"o":"m 576 -421 l 576 1264 l 695 1264 l 695 -421 l 576 -421 m 437 1264 l 437 491 l 0 491 l 0 610 l 319 610 l 319 1264 l 437 1264 m 319 233 l 0 233 l 0 352 l 437 352 l 437 -421 l 319 -421 l 319 233 z "},"╤":{"ha":984,"x_min":0,"x_max":1015,"o":"m 1015 491 l 0 491 l 0 610 l 1015 610 l 1015 491 m 448 233 l 0 233 l 0 352 l 1015 352 l 1015 233 l 566 233 l 566 -421 l 448 -421 l 448 233 z "},"╥":{"ha":984,"x_min":0,"x_max":1015,"o":"m 319 -421 l 319 362 l 0 362 l 0 481 l 1015 481 l 1015 362 l 695 362 l 695 -421 l 576 -421 l 576 352 l 437 352 l 437 -421 l 319 -421 z "},"╦":{"ha":984,"x_min":0,"x_max":1015,"o":"m 1015 491 l 0 491 l 0 610 l 1015 610 l 1015 491 m 319 233 l 0 233 l 0 352 l 437 352 l 437 -421 l 319 -421 l 319 233 m 576 -421 l 576 352 l 1015 352 l 1015 233 l 695 233 l 695 -421 l 576 -421 z "},"╧":{"ha":984,"x_min":0,"x_max":1015,"o":"m 1015 491 l 0 491 l 0 610 l 448 610 l 448 1264 l 566 1264 l 566 610 l 1015 610 l 1015 491 m 1015 233 l 0 233 l 0 352 l 1015 352 l 1015 233 z "},"╨":{"ha":984,"x_min":0,"x_max":1015,"o":"m 1015 362 l 0 362 l 0 481 l 319 481 l 319 1264 l 437 1264 l 437 481 l 576 481 l 576 1264 l 695 1264 l 695 481 l 1015 481 l 1015 362 z "},"╩":{"ha":984,"x_min":0,"x_max":1015,"o":"m 437 491 l 0 491 l 0 610 l 319 610 l 319 1264 l 437 1264 l 437 491 m 1015 491 l 576 491 l 576 1264 l 695 1264 l 695 610 l 1015 610 l 1015 491 m 1015 233 l 0 233 l 0 352 l 1015 352 l 1015 233 z "},"╪":{"ha":984,"x_min":0,"x_max":1015,"o":"m 448 233 l 0 233 l 0 352 l 448 352 l 448 491 l 0 491 l 0 610 l 448 610 l 448 1264 l 566 1264 l 566 610 l 1015 610 l 1015 491 l 566 491 l 566 352 l 1015 352 l 1015 233 l 566 233 l 566 -421 l 448 -421 l 448 233 z "},"╫":{"ha":984,"x_min":0,"x_max":1015,"o":"m 319 -421 l 319 362 l 0 362 l 0 481 l 319 481 l 319 1264 l 437 1264 l 437 481 l 576 481 l 576 1264 l 695 1264 l 695 481 l 1015 481 l 1015 362 l 695 362 l 695 -421 l 576 -421 l 576 362 l 437 362 l 437 -421 l 319 -421 z "},"╬":{"ha":984,"x_min":0,"x_max":1015,"o":"m 696 610 l 1015 610 l 1015 491 l 577 491 l 577 1264 l 696 1264 l 696 610 m 319 610 l 319 1264 l 437 1264 l 437 491 l 0 491 l 0 610 l 319 610 m 319 233 l 0 233 l 0 352 l 437 352 l 437 -421 l 319 -421 l 319 233 m 696 233 l 696 -421 l 577 -421 l 577 352 l 1015 352 l 1015 233 l 696 233 z "},"▀":{"ha":984,"x_min":0,"x_max":1015,"o":"m 1015 421 l 0 421 l 0 1264 l 1015 1264 l 1015 421 z "},"▄":{"ha":984,"x_min":0,"x_max":1015,"o":"m 1015 -421 l 0 -421 l 0 421 l 1015 421 l 1015 -421 z "},"█":{"ha":984,"x_min":0,"x_max":1015,"o":"m 0 -421 l 0 1264 l 1015 1264 l 1015 -421 l 0 -421 z "},"▌":{"ha":984,"x_min":0,"x_max":507,"o":"m 0 -421 l 0 1264 l 507 1264 l 507 -421 l 0 -421 z "},"▐":{"ha":984,"x_min":0,"x_max":507,"o":"m 0 -421 l 0 1264 l 507 1264 l 507 -421 l 0 -421 z "},"░":{"ha":984,"x_min":69,"x_max":999,"o":"m 69 1264 l 154 1264 l 154 1179 l 69 1179 l 69 1264 m 407 1264 l 492 1264 l 492 1179 l 407 1179 l 407 1264 m 745 1264 l 830 1264 l 830 1179 l 745 1179 l 745 1264 m 238 1095 l 323 1095 l 323 1010 l 238 1010 l 238 1095 m 576 1095 l 661 1095 l 661 1010 l 576 1010 l 576 1095 m 914 1095 l 999 1095 l 999 1010 l 914 1010 l 914 1095 m 745 926 l 830 926 l 830 842 l 745 842 l 745 926 m 407 926 l 492 926 l 492 842 l 407 842 l 407 926 m 69 926 l 154 926 l 154 842 l 69 842 l 69 926 m 914 757 l 999 757 l 999 673 l 914 673 l 914 757 m 576 757 l 661 757 l 661 673 l 576 673 l 576 757 m 238 757 l 323 757 l 323 673 l 238 673 l 238 757 m 69 588 l 154 588 l 154 503 l 69 503 l 69 588 m 407 588 l 492 588 l 492 503 l 407 503 l 407 588 m 745 588 l 830 588 l 830 503 l 745 503 l 745 588 m 914 419 l 999 419 l 999 334 l 914 334 l 914 419 m 576 419 l 661 419 l 661 334 l 576 334 l 576 419 m 238 419 l 323 419 l 323 334 l 238 334 l 238 419 m 69 250 l 154 250 l 154 165 l 69 165 l 69 250 m 407 250 l 492 250 l 492 165 l 407 165 l 407 250 m 745 250 l 830 250 l 830 165 l 745 165 l 745 250 m 238 81 l 323 81 l 323 -3 l 238 -3 l 238 81 m 576 81 l 661 81 l 661 -3 l 576 -3 l 576 81 m 914 81 l 999 81 l 999 -3 l 914 -3 l 914 81 m 745 -88 l 830 -88 l 830 -173 l 745 -173 l 745 -88 m 407 -88 l 492 -88 l 492 -173 l 407 -173 l 407 -88 m 69 -88 l 154 -88 l 154 -173 l 69 -173 l 69 -88 m 238 -257 l 323 -257 l 323 -342 l 238 -342 l 238 -257 m 576 -257 l 661 -257 l 661 -342 l 576 -342 l 576 -257 m 914 -257 l 999 -257 l 999 -342 l 914 -342 l 914 -257 z "},"▒":{"ha":984,"x_min":-15,"x_max":999,"o":"m 70 1264 l 154 1264 l 154 1179 l 70 1179 l 70 1264 m 239 1264 l 323 1264 l 323 1179 l 239 1179 l 239 1264 m 408 1264 l 492 1264 l 492 1179 l 408 1179 l 408 1264 m 576 1264 l 661 1264 l 661 1179 l 576 1179 l 576 1264 m 746 1264 l 830 1264 l 830 1179 l 746 1179 l 746 1264 m 915 1264 l 999 1264 l 999 1179 l 915 1179 l 915 1264 m -15 1095 l 70 1095 l 70 1010 l -15 1010 l -15 1095 m 154 1095 l 239 1095 l 239 1010 l 154 1010 l 154 1095 m 323 1095 l 408 1095 l 408 1010 l 323 1010 l 323 1095 m 492 1095 l 576 1095 l 576 1010 l 492 1010 l 492 1095 m 661 1095 l 746 1095 l 746 1010 l 661 1010 l 661 1095 m 830 1095 l 915 1095 l 915 1010 l 830 1010 l 830 1095 m 70 926 l 154 926 l 154 842 l 70 842 l 70 926 m 239 926 l 323 926 l 323 842 l 239 842 l 239 926 m 408 926 l 492 926 l 492 842 l 408 842 l 408 926 m 576 926 l 661 926 l 661 842 l 576 842 l 576 926 m 746 926 l 830 926 l 830 842 l 746 842 l 746 926 m 915 926 l 999 926 l 999 842 l 915 842 l 915 926 m 154 757 l 239 757 l 239 673 l 154 673 l 154 757 m 323 757 l 408 757 l 408 673 l 323 673 l 323 757 m 492 757 l 576 757 l 576 673 l 492 673 l 492 757 m 661 757 l 746 757 l 746 673 l 661 673 l 661 757 m 830 757 l 915 757 l 915 673 l 830 673 l 830 757 m -15 757 l 70 757 l 70 673 l -15 673 l -15 757 m 70 588 l 154 588 l 154 503 l 70 503 l 70 588 m 239 588 l 323 588 l 323 503 l 239 503 l 239 588 m 408 588 l 492 588 l 492 503 l 408 503 l 408 588 m 576 588 l 661 588 l 661 503 l 576 503 l 576 588 m 746 588 l 830 588 l 830 503 l 746 503 l 746 588 m 915 588 l 999 588 l 999 503 l 915 503 l 915 588 m -15 419 l 70 419 l 70 334 l -15 334 l -15 419 m 323 419 l 408 419 l 408 334 l 323 334 l 323 419 m 492 419 l 576 419 l 576 334 l 492 334 l 492 419 m 661 419 l 746 419 l 746 334 l 661 334 l 661 419 m 830 419 l 915 419 l 915 334 l 830 334 l 830 419 m 154 419 l 239 419 l 239 334 l 154 334 l 154 419 m 915 250 l 999 250 l 999 165 l 915 165 l 915 250 m 746 250 l 830 250 l 830 165 l 746 165 l 746 250 m 576 250 l 661 250 l 661 165 l 576 165 l 576 250 m 408 250 l 492 250 l 492 165 l 408 165 l 408 250 m 239 250 l 323 250 l 323 165 l 239 165 l 239 250 m 70 250 l 154 250 l 154 165 l 70 165 l 70 250 m -15 81 l 70 81 l 70 -3 l -15 -3 l -15 81 m 154 81 l 239 81 l 239 -3 l 154 -3 l 154 81 m 323 81 l 408 81 l 408 -3 l 323 -3 l 323 81 m 492 81 l 576 81 l 576 -3 l 492 -3 l 492 81 m 661 81 l 746 81 l 746 -3 l 661 -3 l 661 81 m 830 81 l 915 81 l 915 -3 l 830 -3 l 830 81 m 915 -88 l 999 -88 l 999 -173 l 915 -173 l 915 -88 m 746 -88 l 830 -88 l 830 -173 l 746 -173 l 746 -88 m 576 -88 l 661 -88 l 661 -173 l 576 -173 l 576 -88 m 408 -88 l 492 -88 l 492 -173 l 408 -173 l 408 -88 m 239 -88 l 323 -88 l 323 -173 l 239 -173 l 239 -88 m 70 -88 l 154 -88 l 154 -173 l 70 -173 l 70 -88 m -15 -257 l 70 -257 l 70 -342 l -15 -342 l -15 -257 m 154 -257 l 239 -257 l 239 -342 l 154 -342 l 154 -257 m 323 -257 l 408 -257 l 408 -342 l 323 -342 l 323 -257 m 492 -257 l 576 -257 l 576 -342 l 492 -342 l 492 -257 m 661 -257 l 746 -257 l 746 -342 l 661 -342 l 661 -257 m 830 -257 l 915 -257 l 915 -342 l 830 -342 l 830 -257 z "},"▓":{"ha":1013,"x_min":-1,"x_max":1013,"o":"m 1013 1010 l 1013 757 l 929 757 l 929 673 l 1013 673 l 1013 419 l 929 419 l 929 334 l 1013 334 l 1013 81 l 929 81 l 929 -3 l 1013 -3 l 1013 -257 l 929 -257 l 929 -342 l 1013 -342 l 1013 -426 l -1 -426 l -1 -173 l 84 -173 l 84 -88 l -1 -88 l -1 165 l 84 165 l 84 250 l -1 250 l -1 503 l 84 503 l 84 588 l -1 588 l -1 842 l 84 842 l 84 926 l -1 926 l -1 1179 l 84 1179 l 84 1264 l 168 1264 l 168 1179 l 253 1179 l 253 1264 l 337 1264 l 337 1179 l 422 1179 l 422 1264 l 507 1264 l 507 1179 l 591 1179 l 591 1264 l 675 1264 l 675 1179 l 760 1179 l 760 1264 l 844 1264 l 844 1179 l 929 1179 l 929 1264 l 1013 1264 l 1013 1095 l 929 1095 l 929 1010 l 1013 1010 m 84 1095 l 84 1010 l 168 1010 l 168 1095 l 84 1095 m 253 1095 l 253 1010 l 337 1010 l 337 1095 l 253 1095 m 422 1095 l 422 1010 l 507 1010 l 507 1095 l 422 1095 m 591 1095 l 591 1010 l 675 1010 l 675 1095 l 591 1095 m 760 1095 l 760 1010 l 844 1010 l 844 1095 l 760 1095 m 929 926 l 844 926 l 844 842 l 929 842 l 929 926 m 760 926 l 675 926 l 675 842 l 760 842 l 760 926 m 591 926 l 507 926 l 507 842 l 591 842 l 591 926 m 422 926 l 337 926 l 337 842 l 422 842 l 422 926 m 253 926 l 168 926 l 168 842 l 253 842 l 253 926 m 84 757 l 84 673 l 168 673 l 168 757 l 84 757 m 253 757 l 253 673 l 337 673 l 337 757 l 253 757 m 422 757 l 422 673 l 507 673 l 507 757 l 422 757 m 591 757 l 591 673 l 675 673 l 675 757 l 591 757 m 760 757 l 760 673 l 844 673 l 844 757 l 760 757 m 253 588 l 168 588 l 168 503 l 253 503 l 253 588 m 337 588 l 337 503 l 422 503 l 422 588 l 337 588 m 507 588 l 507 503 l 591 503 l 591 588 l 507 588 m 675 588 l 675 503 l 760 503 l 760 588 l 675 588 m 844 588 l 844 503 l 929 503 l 929 588 l 844 588 m 84 419 l 84 334 l 168 334 l 168 419 l 84 419 m 422 419 l 422 334 l 507 334 l 507 419 l 422 419 m 337 334 l 337 419 l 253 419 l 253 334 l 337 334 m 591 419 l 591 334 l 675 334 l 675 419 l 591 419 m 760 419 l 760 334 l 844 334 l 844 419 l 760 419 m 929 165 l 929 250 l 844 250 l 844 165 l 929 165 m 760 165 l 760 250 l 675 250 l 675 165 l 760 165 m 591 165 l 591 250 l 507 250 l 507 165 l 591 165 m 422 165 l 422 250 l 337 250 l 337 165 l 422 165 m 253 165 l 253 250 l 168 250 l 168 165 l 253 165 m 84 81 l 84 -3 l 168 -3 l 168 81 l 84 81 m 253 81 l 253 -3 l 337 -3 l 337 81 l 253 81 m 422 81 l 422 -3 l 507 -3 l 507 81 l 422 81 m 591 81 l 591 -3 l 675 -3 l 675 81 l 591 81 m 760 81 l 760 -3 l 844 -3 l 844 81 l 760 81 m 929 -173 l 929 -88 l 844 -88 l 844 -173 l 929 -173 m 760 -173 l 760 -88 l 675 -88 l 675 -173 l 760 -173 m 591 -173 l 591 -88 l 507 -88 l 507 -173 l 591 -173 m 422 -173 l 422 -88 l 337 -88 l 337 -173 l 422 -173 m 253 -173 l 253 -88 l 168 -88 l 168 -173 l 253 -173 m 84 -257 l 84 -342 l 168 -342 l 168 -257 l 84 -257 m 253 -257 l 253 -342 l 337 -342 l 337 -257 l 253 -257 m 422 -257 l 422 -342 l 507 -342 l 507 -257 l 422 -257 m 591 -257 l 591 -342 l 675 -342 l 675 -257 l 591 -257 m 760 -257 l 760 -342 l 844 -342 l 844 -257 l 760 -257 z "},"■":{"ha":839,"x_min":0,"x_max":640,"o":"m 0 640 l 640 640 l 640 0 l 0 0 l 0 640 z "},"▬":{"ha":1389,"x_min":0,"x_max":1388,"o":"m 0 477 l 1388 477 l 1388 215 l 0 215 l 0 477 z "},"▲":{"ha":1375,"x_min":0,"x_max":963,"o":"m 0 0 l 481 962 l 963 0 l 0 0 z "},"►":{"ha":1375,"x_min":0,"x_max":984,"o":"m 0 961 l 984 470 l 0 -21 l 0 961 z "},"▼":{"ha":1375,"x_min":0,"x_max":963,"o":"m 963 941 l 481 -21 l 0 941 l 963 941 z "},"◄":{"ha":1375,"x_min":195,"x_max":1179,"o":"m 1179 961 l 1179 -21 l 195 470 l 1179 961 z "},"○":{"ha":839,"x_min":0,"x_max":597,"o":"m 299 690 q 446 652 374 690 q 557 541 517 613 q 597 392 597 469 q 510 180 597 268 q 299 93 422 93 q 87 180 175 93 q 0 392 0 268 q 40 542 0 470 q 152 652 80 613 q 299 690 224 690 m 299 639 q 177 607 236 639 q 85 515 118 575 q 52 392 52 456 q 124 217 52 290 q 299 144 197 144 q 474 217 401 144 q 546 392 546 290 q 513 515 546 456 q 420 607 479 575 q 299 639 361 639 z "},"◘":{"ha":839,"x_min":0,"x_max":665,"o":"m 0 0 l 0 665 l 665 665 l 665 0 l 0 0 m 332 469 q 235 429 275 469 q 195 332 195 389 q 236 236 195 276 q 332 195 276 195 q 429 236 389 195 q 469 332 469 276 q 429 429 469 389 q 332 469 389 469 z "},"◙":{"ha":839,"x_min":0,"x_max":783,"o":"m 0 0 l 0 783 l 783 783 l 783 0 l 0 0 m 391 690 q 244 652 316 690 q 133 541 173 613 q 93 391 93 469 q 180 180 93 268 q 391 93 268 93 q 603 180 515 93 q 690 391 690 268 q 650 541 690 469 q 539 652 610 613 q 391 690 467 690 m 392 639 q 513 607 454 639 q 606 516 572 575 q 639 391 639 456 q 567 217 639 289 q 392 144 494 144 q 217 217 289 144 q 144 391 144 289 q 178 516 144 456 q 270 607 211 575 q 392 639 330 639 z "},"☺":{"ha":1418,"x_min":277,"x_max":1142,"o":"m 709 784 q 922 728 818 784 q 1084 568 1025 672 q 1142 351 1142 464 q 1085 137 1142 239 q 924 -23 1027 34 q 709 -81 821 -81 q 494 -23 597 -81 q 334 137 391 34 q 277 351 277 239 q 335 568 277 464 q 496 728 393 672 q 709 784 600 784 m 709 721 q 528 673 616 721 q 390 536 439 625 q 340 351 340 448 q 389 168 340 256 q 526 31 437 80 q 709 -18 614 -18 q 893 31 805 -18 q 1030 168 981 80 q 1079 351 1079 256 q 1029 536 1079 448 q 891 673 979 625 q 709 721 802 721 m 543 496 q 582 480 566 496 q 598 441 598 464 q 582 402 598 418 q 543 386 566 386 q 505 402 521 386 q 488 441 488 418 q 505 480 488 464 q 543 496 521 496 m 875 496 q 914 480 898 496 q 930 441 930 464 q 914 402 930 418 q 875 386 898 386 q 836 402 852 386 q 820 441 820 418 q 836 480 820 464 q 875 496 852 496 m 510 212 l 552 237 q 709 139 606 139 q 866 237 813 139 l 909 212 q 825 114 875 148 q 709 80 775 80 q 593 114 643 80 q 510 212 544 148 z "},"☻":{"ha":1461,"x_min":298,"x_max":1164,"o":"m 731 784 q 943 728 840 784 q 1105 568 1047 672 q 1164 351 1164 464 q 1106 137 1164 239 q 946 -23 1049 34 q 731 -81 843 -81 q 516 -23 618 -81 q 356 137 413 34 q 298 351 298 239 q 356 568 298 464 q 518 728 414 672 q 731 784 622 784 m 565 496 q 526 480 543 496 q 510 441 510 464 q 526 402 510 418 q 565 386 543 386 q 604 402 588 386 q 620 441 620 418 q 604 480 620 464 q 565 496 588 496 m 897 496 q 858 480 873 496 q 842 441 842 464 q 858 402 842 418 q 897 386 874 386 q 936 402 920 386 q 951 441 951 418 q 936 480 951 464 q 897 496 920 496 m 532 212 q 615 114 566 148 q 731 80 665 80 q 847 114 797 80 q 930 212 897 148 l 888 237 q 731 139 835 139 q 574 237 627 139 l 532 212 z "},"☼":{"ha":1273,"x_min":0,"x_max":1252,"o":"m 601 1099 l 652 1099 l 652 871 q 775 845 722 866 q 889 775 829 823 l 1086 968 l 1121 932 l 927 738 q 997 623 977 673 q 1024 495 1023 558 l 1252 495 l 1252 448 l 1025 448 q 928 213 1012 320 l 1121 16 l 1082 -18 l 890 173 q 774 105 824 124 q 652 77 725 85 l 652 -151 l 601 -151 l 601 77 q 473 109 525 87 q 367 171 421 130 l 168 -18 l 133 17 l 326 211 q 258 323 281 268 q 228 451 235 379 l 0 451 l 0 498 l 228 498 q 256 624 234 570 q 326 734 279 677 l 133 929 l 165 968 l 363 777 q 485 845 432 824 q 601 871 538 865 l 601 1099 m 625 821 q 454 777 537 821 q 324 648 370 732 q 277 474 277 564 q 323 301 277 384 q 452 172 369 218 q 625 126 534 126 q 798 172 715 126 q 926 301 880 218 q 972 474 972 384 q 926 648 972 564 q 795 777 879 732 q 625 821 712 821 z "},"♀":{"ha":1042,"x_min":165,"x_max":876,"o":"m 540 313 l 540 40 l 851 40 l 851 0 l 540 0 l 540 -298 l 500 -298 l 500 0 l 188 0 l 188 40 l 500 40 l 500 313 q 347 357 430 313 q 215 487 264 401 q 165 667 165 572 q 213 844 165 759 q 344 975 260 928 q 521 1022 428 1022 q 697 975 613 1022 q 829 843 782 928 q 876 667 876 759 q 778 422 876 525 q 540 313 681 319 m 520 984 q 364 943 440 984 q 245 825 288 902 q 202 666 202 749 q 295 440 202 534 q 520 347 389 347 q 746 440 652 347 q 839 666 839 534 q 796 825 839 749 q 677 943 753 902 q 520 984 601 984 z "},"♂":{"ha":1042,"x_min":75,"x_max":960,"o":"m 825 1099 l 849 1088 l 960 636 l 921 626 l 825 1020 l 582 499 q 734 362 682 448 q 785 178 785 276 q 739 1 785 85 q 607 -131 692 -83 q 430 -178 523 -178 q 253 -131 338 -178 q 122 1 169 -83 q 75 178 75 85 q 179 429 75 325 q 432 532 283 532 q 545 514 485 532 l 789 1037 l 425 857 l 408 893 l 825 1099 m 430 496 q 274 455 350 496 q 155 337 197 414 q 112 178 112 260 q 205 -48 112 45 q 430 -141 298 -141 q 655 -48 562 -141 q 749 178 749 45 q 706 337 749 260 q 587 455 663 414 q 430 496 511 496 z "},"♠":{"ha":738,"x_min":0,"x_max":659,"o":"m 330 835 q 385 704 348 762 q 515 561 421 646 q 634 430 609 476 q 659 338 659 385 q 616 230 659 273 q 511 186 572 186 q 338 315 406 186 q 365 157 339 216 q 446 65 390 98 q 594 25 501 31 l 599 0 l 62 0 l 66 25 q 260 98 191 25 q 326 315 329 171 q 251 219 296 251 q 149 186 205 186 q 44 231 88 186 q 0 335 0 275 q 22 425 0 385 q 128 543 52 481 q 275 699 223 621 q 330 835 313 755 z "},"♣":{"ha":911,"x_min":37,"x_max":873,"o":"m 745 0 l 170 0 l 175 23 q 323 70 287 47 q 413 172 378 104 q 448 315 448 240 q 448 347 448 326 q 347 224 406 262 q 226 185 288 185 q 92 240 147 185 q 37 375 37 295 q 87 508 37 454 q 201 562 138 562 q 312 527 242 562 q 275 598 283 574 q 267 650 267 623 q 320 782 267 728 q 454 835 374 835 q 588 782 534 835 q 643 653 643 728 q 596 527 643 593 q 665 557 653 554 q 706 563 683 563 q 824 510 774 563 q 873 378 873 456 q 819 241 873 296 q 688 186 764 186 q 601 207 646 186 q 522 262 555 227 q 463 347 498 287 q 495 176 465 239 q 588 72 526 113 q 739 23 630 44 l 745 0 z "},"♥":{"ha":825,"x_min":0,"x_max":739,"o":"m 371 -16 q 311 134 350 64 q 160 352 272 204 q 59 490 78 460 q 14 577 28 537 q 0 657 0 616 q 50 783 0 732 q 175 834 100 834 q 304 781 249 834 q 371 664 345 742 q 448 792 395 750 q 563 835 500 835 q 688 785 637 835 q 739 665 739 734 q 710 538 739 604 q 594 363 680 472 q 437 142 483 223 q 371 -16 392 62 z "},"♦":{"ha":709,"x_min":0,"x_max":623,"o":"m 310 835 q 465 606 370 732 q 623 410 560 479 q 458 205 572 357 q 311 -16 366 81 q 190 166 281 39 q 0 410 127 254 q 176 632 68 488 q 310 835 256 739 z "},"♪":{"ha":694,"x_min":25,"x_max":669,"o":"m 330 924 l 355 924 q 509 915 472 924 q 604 863 563 901 q 652 782 634 834 q 669 661 669 730 l 669 591 l 602 591 l 602 621 q 583 699 602 667 q 526 748 564 731 q 416 770 476 770 l 397 770 l 397 203 q 375 76 397 121 q 300 2 353 30 q 185 -25 248 -25 q 68 17 111 -25 q 25 126 25 58 q 77 246 25 197 q 212 294 128 294 q 330 263 264 294 l 330 924 z "},"♫":{"ha":1042,"x_min":58,"x_max":902,"o":"m 362 862 l 902 1030 l 902 279 q 881 152 902 195 q 808 81 859 109 q 692 54 757 54 q 574 96 618 54 q 530 205 530 138 q 583 322 530 273 q 718 372 635 372 q 765 367 745 372 q 833 342 786 362 l 833 833 l 429 708 l 429 141 q 408 13 429 59 q 333 -60 386 -33 q 218 -87 280 -87 q 101 -45 144 -87 q 58 64 58 -3 q 109 183 58 135 q 244 232 161 232 q 362 201 297 232 l 362 862 z "},"Ĳ":{"ha":1042,"x_min":-43,"x_max":1149,"o":"m 342 25 l 335 0 l -43 0 l -34 25 q 41 35 23 26 q 85 66 71 46 q 132 180 108 98 l 292 735 q 312 840 312 804 q 303 869 312 857 q 276 888 294 882 q 206 895 258 895 l 214 920 l 570 920 l 562 895 q 498 885 519 895 q 451 846 467 871 q 410 735 435 821 l 251 180 q 229 83 229 104 q 238 54 229 66 q 265 36 246 42 q 342 25 283 29 m 787 920 l 1149 920 l 1142 895 q 1044 869 1072 894 q 984 736 1015 844 l 867 332 q 800 157 834 217 q 678 27 755 75 q 505 -21 601 -21 q 385 15 427 -21 q 342 103 342 52 q 368 171 342 144 q 429 198 393 198 q 478 180 459 198 q 498 135 498 161 q 480 93 498 113 q 458 58 458 67 q 471 32 458 43 q 505 20 484 20 q 570 35 536 20 q 633 81 604 50 q 685 154 663 111 q 730 271 707 197 l 763 388 l 864 736 q 886 832 886 813 q 866 874 886 858 q 780 895 846 890 l 787 920 z "},"ĳ":{"ha":695,"x_min":51,"x_max":696,"o":"m 302 883 q 350 863 330 883 q 370 815 370 844 q 350 767 370 787 q 302 747 330 747 q 254 767 274 747 q 234 815 234 787 q 254 863 234 844 q 302 883 273 883 m 311 614 l 176 138 q 163 81 163 90 q 169 63 163 70 q 184 56 176 56 q 209 67 195 56 q 287 154 248 98 l 311 138 q 202 20 264 68 q 114 -16 156 -16 q 68 0 86 -16 q 51 42 51 17 q 68 125 51 67 l 156 429 q 178 523 178 504 q 167 547 178 538 q 138 557 157 557 q 77 549 123 557 l 77 576 l 311 614 m 627 882 q 676 862 656 882 q 696 814 696 842 q 676 765 696 785 q 627 745 656 745 q 579 765 599 745 q 559 814 559 785 q 579 862 559 842 q 627 882 599 882 m 638 614 l 463 7 q 334 -228 416 -156 q 157 -300 252 -300 q 93 -280 115 -300 q 71 -233 71 -260 q 87 -196 71 -212 q 125 -180 104 -180 q 160 -193 145 -180 q 172 -216 172 -203 q 155 -247 172 -234 q 146 -259 146 -254 l 147 -262 q 153 -267 149 -265 q 165 -268 157 -268 q 259 -233 220 -268 q 329 -94 298 -198 l 481 427 q 503 512 503 504 q 489 541 503 528 q 452 554 474 554 q 431 552 443 554 q 406 548 422 551 l 406 572 l 638 614 z "},"ŉ":{"ha":802,"x_min":96,"x_max":747,"o":"m 96 666 q 178 724 146 688 q 203 776 203 751 q 199 799 203 789 q 180 821 196 804 q 161 843 163 837 q 157 869 157 854 q 177 920 157 899 q 224 941 197 941 q 273 918 252 941 q 294 862 294 896 q 247 740 294 802 q 109 644 199 678 l 96 666 m 415 614 l 325 305 q 519 554 452 494 q 649 614 587 614 q 705 591 683 614 q 727 533 727 569 q 707 425 727 492 l 625 139 q 610 79 610 90 q 616 63 610 69 q 627 56 621 56 q 647 65 635 56 q 726 152 683 94 l 747 139 q 627 10 684 49 q 557 -16 588 -16 q 517 -1 532 -16 q 502 40 502 14 q 525 152 502 73 l 604 425 q 618 504 618 475 q 610 526 618 517 q 588 534 601 534 q 543 518 569 534 q 438 417 492 488 q 323 238 384 347 q 271 112 292 180 l 237 0 l 135 0 l 258 425 q 280 517 280 501 q 268 543 280 532 q 239 554 256 554 q 210 551 231 554 l 184 547 l 180 572 l 415 614 z "},"′":{"ha":304,"x_min":182,"x_max":363,"o":"m 182 545 l 203 745 q 221 861 212 831 q 257 922 234 903 q 310 941 281 941 q 349 927 334 941 q 363 892 363 913 q 356 858 363 877 q 306 745 347 832 l 212 545 l 182 545 z "},"″":{"ha":578,"x_min":199,"x_max":628,"o":"m 448 545 l 468 743 q 479 833 476 820 q 502 900 488 877 q 533 929 513 917 q 578 941 554 941 q 615 928 602 941 q 628 894 628 915 q 618 849 628 876 q 576 743 593 778 l 480 545 l 448 545 m 199 545 l 220 745 q 238 861 229 831 q 275 922 251 903 q 328 941 299 941 q 365 927 351 941 q 379 893 379 913 q 372 857 379 877 q 323 745 363 829 l 229 545 l 199 545 z "},"℅":{"ha":1158,"x_min":73,"x_max":1117,"o":"m 494 578 q 264 450 387 450 q 147 492 189 450 q 105 606 105 535 q 206 838 105 734 q 422 941 307 941 q 508 917 479 941 q 536 858 536 892 q 517 802 536 825 q 480 784 502 784 q 453 795 464 784 q 442 821 442 806 q 464 861 442 840 q 479 888 479 877 q 470 906 479 899 q 426 918 454 918 q 324 881 375 918 q 234 770 273 844 q 194 614 194 696 q 224 529 194 560 q 308 498 255 498 q 389 518 349 498 q 479 591 429 538 l 494 578 m 1110 941 l 138 -37 l 73 -37 l 1046 941 l 1110 941 m 1117 313 q 1075 156 1117 234 q 958 33 1032 78 q 812 -13 883 -13 q 693 34 739 -13 q 648 153 648 80 q 692 309 648 231 q 812 433 737 387 q 956 478 886 478 q 1072 432 1026 478 q 1117 313 1117 387 m 1029 349 q 1005 425 1029 398 q 943 451 981 451 q 800 339 865 451 q 734 118 734 228 q 760 41 734 68 q 824 14 785 14 q 964 124 899 14 q 1029 349 1029 235 z "},"ℓ":{"ha":578,"x_min":20,"x_max":600,"o":"m 20 323 l 175 429 l 239 652 q 339 870 281 799 q 484 941 397 941 q 568 909 536 941 q 600 833 600 878 q 554 708 600 769 q 288 479 477 606 l 207 203 q 193 128 193 155 q 216 59 193 84 q 275 35 239 35 q 363 72 315 35 q 460 198 412 109 l 485 189 q 364 32 429 79 q 238 -16 299 -16 q 138 24 177 -16 q 98 133 98 64 q 113 220 98 172 l 162 385 l 35 300 l 20 323 m 301 521 q 509 703 456 634 q 561 825 561 771 q 544 871 561 854 q 495 888 526 888 q 429 859 458 888 q 361 726 389 820 l 301 521 z "},"□":{"ha":839,"x_min":99,"x_max":739,"o":"m 99 640 l 739 640 l 739 0 l 99 0 l 99 640 m 151 589 l 151 52 l 688 52 l 688 589 l 151 589 z "},"▪":{"ha":492,"x_min":89,"x_max":403,"o":"m 403 616 l 403 302 l 89 302 l 89 616 l 403 616 z "},"▫":{"ha":492,"x_min":89,"x_max":403,"o":"m 403 616 l 403 302 l 89 302 l 89 616 l 403 616 m 351 565 l 140 564 l 140 353 l 351 353 l 351 565 z "},"●":{"ha":839,"x_min":121,"x_max":718,"o":"m 420 690 q 566 652 494 690 q 678 541 638 613 q 718 392 718 469 q 631 180 718 268 q 420 93 543 93 q 208 180 296 93 q 121 392 121 268 q 161 542 121 470 q 273 652 201 613 q 420 690 345 690 z "},"◦":{"ha":492,"x_min":76,"x_max":416,"o":"m 246 629 q 367 579 317 629 q 416 459 416 530 q 367 339 416 389 q 246 289 317 289 q 126 339 176 289 q 76 459 76 389 q 125 579 76 530 q 246 629 175 629 m 246 578 q 162 543 197 578 q 127 459 127 508 q 162 375 127 410 q 246 340 197 340 q 330 375 295 340 q 365 459 365 410 q 330 543 365 508 q 246 578 296 578 z "},"Ā":{"ha":848,"x_min":-68,"x_max":935,"o":"m 715 941 l 646 176 q 640 105 640 122 q 650 64 640 78 q 685 35 663 44 q 760 25 707 25 l 752 0 l 390 0 l 397 25 l 413 25 q 485 44 457 25 q 515 87 505 57 q 530 186 523 108 l 541 302 l 277 302 l 184 176 q 144 114 152 133 q 136 79 136 96 q 153 42 136 58 q 212 25 171 26 l 204 0 l -68 0 l -60 25 q 28 59 -10 27 q 142 193 66 90 l 692 941 l 715 941 m 581 715 l 315 352 l 546 352 l 581 715 m 528 1109 l 935 1109 l 911 1023 l 504 1023 l 528 1109 z "},"ā":{"ha":694,"x_min":33,"x_max":697,"o":"m 652 614 l 519 154 l 505 92 q 503 77 503 83 q 509 58 503 66 q 523 52 515 52 q 546 63 532 52 q 616 144 572 83 l 640 128 q 543 21 593 58 q 452 -16 494 -16 q 408 -2 422 -16 q 393 41 393 13 q 408 128 393 74 l 422 179 q 259 17 334 63 q 154 -16 205 -16 q 68 25 104 -16 q 33 138 33 66 q 97 365 33 245 q 262 557 162 485 q 409 614 340 614 q 478 592 450 614 q 519 520 505 570 l 544 597 l 652 614 m 410 578 q 318 538 367 578 q 195 367 249 480 q 141 162 141 254 q 164 89 141 116 q 217 62 187 62 q 378 172 291 62 q 494 469 494 317 q 471 553 494 527 q 410 578 449 578 m 290 852 l 697 852 l 673 766 l 266 766 l 290 852 z "},"Ĉ":{"ha":926,"x_min":94,"x_max":977,"o":"m 977 941 l 909 643 l 884 643 l 882 718 q 866 790 878 758 q 829 845 854 822 q 768 882 805 869 q 685 895 730 895 q 473 829 564 895 q 291 589 357 744 q 237 331 237 462 q 315 118 237 197 q 517 38 393 38 q 685 80 612 38 q 822 210 759 122 l 854 210 q 688 35 779 91 q 471 -21 597 -21 q 271 26 358 -21 q 139 159 184 73 q 94 342 94 244 q 174 635 94 493 q 396 859 255 778 q 680 941 536 941 q 830 909 747 941 q 883 895 867 895 q 911 902 899 895 q 952 941 924 909 l 977 941 m 801 1199 l 852 985 l 838 985 l 723 1122 l 507 985 l 488 985 l 699 1199 l 801 1199 z "},"ĉ":{"ha":616,"x_min":41,"x_max":612,"o":"m 539 148 q 397 23 469 63 q 245 -16 325 -16 q 95 38 149 -16 q 41 184 41 92 q 99 388 41 288 q 255 551 157 488 q 447 614 353 614 q 557 583 521 614 q 594 507 594 552 q 568 435 594 465 q 522 412 549 412 q 487 426 500 412 q 473 460 473 439 q 478 484 473 473 q 499 510 483 494 q 518 532 515 525 q 522 546 522 538 q 509 570 522 560 q 453 583 489 583 q 321 536 387 583 q 210 404 256 490 q 155 195 155 299 q 194 85 155 125 q 301 45 233 45 q 405 71 353 45 q 519 165 456 97 l 539 148 m 562 941 l 612 726 l 598 726 l 484 863 l 267 726 l 249 726 l 460 941 l 562 941 z "}}}
